<svg id="svg" version="1.1" xmlns="http://www.w3.org/2000/svg" xmlns:xlink="http://www.w3.org/1999/xlink" width="400" height="84.84374999999999" viewBox="0, 0, 400,84.84374999999999"><g id="svgg"><path id="path0" d="M79.214 0.375 C 77.433 2.313,76.261 8.293,76.820 12.587 C 76.996 13.936,77.152 14.682,77.688 16.724 C 78.435 19.570,81.089 23.205,84.216 25.667 C 86.370 27.361,86.296 27.161,85.595 29.385 C 85.271 30.411,84.968 31.451,84.920 31.697 C 84.654 33.062,82.710 32.677,80.071 30.738 C 79.790 30.531,79.251 30.187,78.873 29.972 C 77.809 29.369,76.227 27.924,72.250 23.924 C 67.291 18.936,64.477 16.312,63.049 15.344 C 58.451 12.228,57.500 11.161,57.500 9.116 C 57.500 7.545,58.909 5.583,60.750 4.591 C 63.341 3.194,61.123 1.831,56.619 2.052 C 53.230 2.218,50.795 2.791,46.583 4.417 C 45.942 4.664,44.725 5.081,43.879 5.343 L 42.340 5.819 40.045 5.466 C 32.591 4.320,22.854 5.622,17.667 8.458 C 15.103 9.859,13.707 10.771,12.250 11.994 C 11.161 12.908,7.500 16.684,7.500 16.893 C 7.500 17.015,7.341 17.258,7.146 17.433 C 4.946 19.405,1.573 26.842,0.389 32.333 C -0.109 34.642,-0.062 44.329,0.461 47.049 C 1.231 51.057,2.727 55.807,4.019 58.348 C 4.504 59.302,4.984 60.308,5.085 60.583 C 5.252 61.038,6.489 63.031,8.000 65.281 C 9.815 67.983,16.329 74.833,17.084 74.833 C 17.180 74.833,17.385 74.980,17.539 75.160 C 18.144 75.867,23.596 79.572,24.385 79.812 C 24.586 79.873,25.613 80.363,26.667 80.901 C 35.561 85.438,49.450 86.255,59.800 82.850 C 63.920 81.494,67.726 79.390,71.310 76.486 L 71.870 76.032 72.723 76.428 C 76.633 78.239,88.092 78.275,90.355 76.483 C 91.696 75.421,91.928 72.333,90.667 72.333 C 90.589 72.333,89.526 71.857,88.304 71.274 C 87.083 70.692,85.596 70.044,85.000 69.835 C 82.966 69.120,81.466 68.516,81.053 68.245 L 80.640 67.975 81.528 66.991 C 82.875 65.498,84.747 63.364,85.664 62.274 C 86.749 60.985,89.515 56.968,90.041 55.917 C 90.271 55.458,90.847 54.352,91.322 53.457 C 91.796 52.563,92.322 51.438,92.491 50.957 C 92.660 50.477,93.209 48.958,93.712 47.583 C 94.214 46.208,94.711 44.708,94.815 44.250 C 94.919 43.792,95.224 42.479,95.493 41.333 C 96.669 36.319,96.897 34.870,96.907 32.317 C 96.918 29.503,96.957 29.413,98.217 29.250 C 101.417 28.835,105.385 27.278,107.333 25.672 C 107.746 25.332,108.233 24.973,108.417 24.875 C 108.799 24.670,109.551 23.905,110.978 22.268 C 114.515 18.211,116.717 8.316,114.355 7.094 C 113.261 6.529,112.606 6.862,110.537 9.036 C 108.686 10.981,106.936 11.661,103.333 11.834 C 101.821 11.907,100.367 12.051,100.103 12.154 C 99.839 12.257,99.276 12.419,98.853 12.514 C 98.080 12.686,95.880 13.944,95.242 14.578 C 95.054 14.765,94.706 15.045,94.468 15.201 L 94.036 15.484 93.841 14.701 C 93.456 13.155,91.408 10.000,90.789 10.000 C 90.711 10.000,90.370 9.778,90.032 9.507 C 89.694 9.236,88.479 8.565,87.333 8.016 C 84.552 6.684,82.500 4.592,82.500 3.087 C 82.500 2.572,81.787 0.620,81.490 0.324 C 81.010 -0.157,79.674 -0.127,79.214 0.375 M369.500 41.583 L 369.500 63.500 373.167 63.500 L 376.833 63.500 376.833 41.583 L 376.833 19.667 373.167 19.667 L 369.500 19.667 369.500 41.583 M147.296 35.375 L 147.243 49.583 146.817 50.944 C 146.028 53.467,145.058 54.744,143.184 55.729 C 138.832 58.016,133.199 56.690,131.131 52.892 C 129.500 49.894,129.586 44.469,131.310 41.687 C 133.041 38.893,135.137 38.008,140.042 38.003 L 142.667 38.000 142.667 34.667 L 142.667 31.333 140.292 31.336 C 137.391 31.340,135.318 31.548,133.667 32.001 C 132.979 32.190,132.100 32.422,131.713 32.518 C 131.037 32.685,129.296 33.763,128.198 34.694 C 122.374 39.635,122.377 55.237,128.203 60.139 C 129.176 60.958,130.538 61.852,131.147 62.070 C 136.756 64.082,142.315 63.880,145.361 61.554 C 146.003 61.064,146.470 60.833,146.819 60.833 L 147.333 60.833 147.333 62.167 L 147.333 63.500 150.917 63.500 L 154.500 63.500 154.500 42.333 L 154.500 21.167 150.924 21.167 L 147.349 21.167 147.296 35.375 M171.583 30.349 C 165.794 31.037,160.987 34.710,160.003 39.198 C 159.916 39.593,159.686 40.554,159.491 41.333 C 158.235 46.363,159.243 54.416,161.536 57.687 C 161.929 58.246,162.367 58.880,162.510 59.095 C 164.282 61.757,170.386 63.773,175.571 63.409 C 182.368 62.932,186.152 60.423,188.320 54.954 C 188.602 54.241,188.833 53.585,188.833 53.496 C 188.833 53.395,187.457 53.333,185.229 53.333 L 181.625 53.333 180.987 54.059 C 178.562 56.813,172.896 57.388,169.100 55.266 C 163.586 52.182,164.013 40.911,169.752 38.068 C 174.846 35.544,181.486 38.011,182.652 42.862 L 182.945 44.083 176.806 44.127 L 170.667 44.171 170.667 46.919 L 170.667 49.667 180.190 49.667 L 189.713 49.667 189.619 46.542 C 189.262 34.665,182.948 28.997,171.583 30.349 M206.667 30.336 C 200.584 31.182,196.341 34.521,195.022 39.500 C 192.734 48.144,194.435 56.834,199.126 60.457 C 202.815 63.306,209.390 64.275,214.733 62.758 C 215.476 62.547,216.271 62.330,216.500 62.276 C 219.047 61.670,222.103 58.423,223.420 54.924 C 224.069 53.199,224.333 53.333,220.283 53.333 L 216.733 53.333 216.014 54.087 C 212.566 57.705,204.758 57.324,202.142 53.410 C 199.450 49.383,199.825 42.462,202.899 39.422 C 206.497 35.864,214.507 36.623,216.926 40.750 C 217.314 41.413,218.000 43.461,218.000 43.958 C 218.000 44.121,216.663 44.167,211.829 44.167 L 205.658 44.167 205.704 46.875 L 205.750 49.583 215.250 49.583 L 224.750 49.583 224.717 47.000 C 224.589 37.160,220.909 31.940,213.083 30.499 C 211.715 30.248,207.987 30.153,206.667 30.336 M229.167 51.333 L 229.167 72.500 232.750 72.500 L 236.333 72.500 236.335 59.375 C 236.336 45.441,236.388 44.288,237.120 41.917 C 238.308 38.070,242.381 36.239,247.527 37.237 C 251.845 38.075,254.220 42.275,253.533 47.857 C 252.813 53.703,250.263 55.667,243.394 55.667 L 240.833 55.667 240.833 59.018 L 240.833 62.368 244.708 62.291 C 249.612 62.194,250.665 61.943,254.046 60.068 C 260.905 56.264,261.946 40.060,255.722 33.974 C 251.415 29.763,242.614 28.857,238.223 32.172 C 237.649 32.606,237.173 32.833,236.840 32.833 L 236.333 32.833 236.333 31.500 L 236.333 30.167 232.750 30.167 L 229.167 30.167 229.167 51.333 M277.250 30.272 C 272.425 30.810,267.500 32.816,267.500 34.244 C 267.500 34.362,267.382 34.557,267.237 34.677 C 265.808 35.864,265.183 40.897,266.136 43.541 C 267.657 47.759,271.457 49.684,278.667 49.892 C 284.399 50.056,286.667 51.107,286.667 53.597 C 286.667 58.236,273.465 58.687,272.716 54.074 L 272.623 53.500 268.395 53.500 L 264.167 53.500 264.167 53.924 C 264.167 57.699,267.287 61.573,270.949 62.341 C 271.298 62.414,272.296 62.630,273.167 62.820 C 276.741 63.600,282.293 63.604,285.842 62.828 C 286.708 62.638,287.754 62.412,288.167 62.324 C 293.550 61.176,296.519 54.685,294.003 49.563 C 292.136 45.761,288.189 44.100,280.176 43.746 C 276.516 43.584,274.685 43.026,273.899 41.833 C 272.698 40.011,273.638 37.752,275.873 37.086 C 280.720 35.642,285.961 37.086,285.996 39.875 C 286.000 40.144,286.289 40.167,289.716 40.167 L 293.432 40.167 293.316 38.958 C 292.988 35.541,291.463 33.338,288.432 31.903 C 285.613 30.567,280.844 29.872,277.250 30.272 M311.975 30.340 C 303.719 31.304,299.646 36.395,299.381 46.083 C 299.304 48.878,299.349 49.381,300.011 53.236 C 300.230 54.514,301.023 56.407,301.810 57.530 C 302.153 58.020,302.481 58.542,302.538 58.691 C 302.985 59.857,306.442 61.996,309.000 62.690 C 315.737 64.516,322.436 63.126,326.375 59.083 C 327.047 58.393,328.874 54.878,329.081 53.875 L 329.193 53.333 325.603 53.333 L 322.013 53.333 321.254 54.145 C 318.312 57.290,310.856 57.332,307.983 54.220 C 305.429 51.452,304.892 45.345,306.852 41.353 C 308.302 38.399,310.466 37.270,314.667 37.273 C 319.610 37.277,322.324 39.287,323.245 43.625 L 323.360 44.167 317.180 44.167 L 311.000 44.167 311.000 46.918 L 311.000 49.669 320.458 49.626 L 329.917 49.583 329.964 47.167 C 330.198 35.267,323.494 28.995,311.975 30.340 M346.917 30.355 C 338.558 31.399,334.428 36.885,334.450 46.917 C 334.478 59.210,341.219 65.006,353.333 63.152 C 357.213 62.558,362.500 59.356,362.500 57.600 C 362.500 57.528,362.640 57.269,362.811 57.026 C 363.089 56.630,364.333 53.698,364.333 53.438 C 364.333 53.380,362.699 53.333,360.702 53.333 L 357.071 53.333 356.475 54.042 C 355.199 55.558,352.541 56.548,349.750 56.548 C 343.938 56.548,340.811 53.223,340.771 47.000 C 340.725 39.950,344.455 36.552,351.409 37.307 C 355.059 37.704,357.727 40.107,358.267 43.486 L 358.376 44.167 352.271 44.167 L 346.167 44.167 346.167 46.917 L 346.167 49.667 355.602 49.667 L 365.037 49.667 364.959 46.042 C 364.713 34.627,358.182 28.947,346.917 30.355 M18.096 30.832 C 21.990 31.542,25.731 32.627,28.403 33.822 C 29.602 34.359,30.714 34.841,30.874 34.893 C 31.424 35.074,36.001 37.861,37.025 38.638 C 37.588 39.066,38.327 39.604,38.667 39.833 C 40.603 41.140,46.079 46.615,47.502 48.667 C 47.725 48.987,48.209 49.625,48.579 50.083 C 49.278 50.950,51.645 54.354,52.679 55.980 C 53.007 56.495,53.682 57.491,54.179 58.193 C 54.676 58.895,55.446 59.994,55.889 60.635 C 56.332 61.276,56.821 61.939,56.976 62.109 C 57.130 62.278,57.412 62.665,57.602 62.969 C 58.701 64.728,65.876 72.321,66.454 72.337 C 66.525 72.339,66.958 72.686,67.417 73.108 C 67.875 73.529,68.543 74.071,68.901 74.310 L 69.553 74.746 68.818 74.884 C 64.559 75.684,57.891 73.941,54.917 71.249 C 54.550 70.917,53.905 70.407,53.483 70.115 C 53.061 69.822,52.073 69.096,51.286 68.500 C 49.319 67.010,46.240 64.833,46.099 64.833 C 46.035 64.833,45.368 64.430,44.616 63.938 C 41.761 62.066,39.011 61.126,37.991 61.672 C 36.682 62.372,36.987 65.235,38.676 68.095 C 39.774 69.954,39.860 70.411,39.254 71.132 C 37.875 72.770,33.714 72.716,30.357 71.016 C 28.933 70.296,27.690 69.553,26.833 68.913 C 26.329 68.536,25.318 67.782,24.586 67.239 C 19.462 63.431,14.841 57.364,11.777 50.417 C 8.559 43.122,6.751 32.840,8.450 31.503 C 9.706 30.515,14.521 30.180,18.096 30.832 M389.826 33.416 C 389.142 34.287,388.534 34.999,388.475 35.000 C 388.415 35.000,388.100 35.394,387.775 35.875 C 387.449 36.356,386.833 37.125,386.405 37.583 C 385.976 38.042,385.395 38.754,385.113 39.167 C 384.832 39.579,384.508 39.992,384.394 40.083 C 383.425 40.864,379.829 45.629,379.904 46.033 C 379.977 46.424,380.796 47.735,383.217 51.333 C 383.556 51.837,384.108 52.663,384.444 53.167 C 384.779 53.671,385.548 54.826,386.152 55.734 C 386.756 56.642,387.321 57.504,387.408 57.651 C 387.575 57.932,389.669 61.151,390.643 62.625 L 391.222 63.500 395.611 63.500 C 400.814 63.500,400.533 63.714,398.781 61.083 C 394.617 54.832,392.548 51.678,392.276 51.167 C 392.105 50.846,391.830 50.433,391.666 50.250 C 391.357 49.906,389.373 46.874,389.019 46.207 C 388.837 45.863,388.940 45.685,390.202 44.159 C 390.962 43.240,391.996 41.970,392.500 41.337 C 393.004 40.704,393.773 39.780,394.208 39.283 C 394.644 38.787,395.000 38.317,395.000 38.238 C 395.000 38.160,395.299 37.791,395.665 37.418 C 396.031 37.046,396.687 36.280,397.123 35.717 C 397.560 35.154,398.385 34.131,398.958 33.443 C 400.398 31.715,400.650 31.833,395.534 31.833 L 391.068 31.833 389.826 33.416 M65.755 34.425 C 66.317 34.649,66.863 34.833,66.969 34.833 C 67.446 34.833,71.095 38.263,72.377 39.917 C 74.176 42.236,76.500 46.308,76.500 47.140 C 76.500 48.561,72.840 49.849,70.740 49.167 C 67.552 48.131,66.062 45.869,66.244 42.337 C 66.435 38.634,65.714 37.709,62.353 37.349 C 59.281 37.019,59.069 35.141,61.980 34.054 C 62.802 33.747,64.469 33.910,65.755 34.425 M62.821 40.272 C 63.282 40.858,63.257 41.368,62.735 41.987 C 62.080 42.766,61.244 42.622,60.739 41.645 C 60.053 40.320,61.901 39.102,62.821 40.272 " stroke="none" fill="#4c6cfc" fill-rule="evenodd"></path><path id="path1" d="" stroke="none" fill="#000000" fill-rule="evenodd"></path></g></svg>