<svg id="svg" version="1.1" xmlns="http://www.w3.org/2000/svg" xmlns:xlink="http://www.w3.org/1999/xlink" width="400" height="127.66666666666666" viewBox="0, 0, 400,127.66666666666666"><g id="svgg"><path id="path0" d="M392.000 30.892 C 384.248 32.682,385.395 43.721,393.333 43.721 C 396.315 43.721,399.667 41.181,399.667 38.922 C 399.667 38.792,399.742 38.640,399.833 38.583 C 399.925 38.527,400.000 37.927,400.000 37.250 C 400.000 36.573,399.925 35.973,399.833 35.917 C 399.742 35.860,399.667 35.705,399.667 35.572 C 399.667 32.900,395.176 30.159,392.000 30.892 M205.000 31.983 C 203.144 32.260,201.494 33.626,200.754 35.500 C 200.486 36.178,200.453 37.082,200.405 44.914 C 200.374 49.900,200.287 53.599,200.200 53.628 C 200.117 53.655,199.790 53.394,199.474 53.047 C 192.213 45.078,179.480 45.822,172.862 54.602 C 167.710 61.438,166.945 74.415,171.227 82.333 C 176.983 92.977,190.605 95.251,198.898 86.953 C 200.325 85.525,200.397 85.520,200.553 86.838 C 200.853 89.376,203.187 91.333,205.914 91.333 C 207.066 91.333,207.408 91.259,208.500 90.773 C 209.928 90.137,211.110 88.563,211.440 86.856 C 211.731 85.354,211.767 38.359,211.478 36.680 C 210.919 33.423,208.263 31.497,205.000 31.983 M239.833 47.676 C 225.579 48.983,216.937 62.377,221.128 76.667 C 224.490 88.134,236.032 94.162,248.833 91.139 C 260.408 88.406,267.206 76.409,264.255 63.923 C 261.675 53.004,251.991 46.562,239.833 47.676 M290.462 47.676 C 276.870 48.884,268.248 61.194,271.272 75.075 C 273.868 86.989,285.515 93.986,298.454 91.406 C 306.596 89.782,310.758 84.597,306.876 80.913 C 304.959 79.094,302.621 79.029,299.167 80.699 C 291.969 84.180,284.478 80.873,282.565 73.371 C 279.689 62.089,289.540 53.732,299.635 58.889 C 303.005 60.610,305.956 60.097,307.575 57.507 C 310.944 52.121,301.500 46.695,290.462 47.676 M355.750 47.602 C 345.384 48.692,339.317 52.370,340.601 56.785 C 341.508 59.905,344.040 60.528,347.833 58.564 C 354.671 55.025,362.683 56.164,364.966 61.000 C 365.383 61.882,365.402 62.055,365.466 65.542 C 365.541 69.595,365.524 69.646,364.491 68.567 C 363.314 67.336,361.251 66.156,358.917 65.376 C 357.980 65.063,357.392 64.925,355.200 64.503 C 350.930 63.682,345.389 64.941,341.966 67.510 C 336.255 71.796,335.645 81.906,340.775 87.253 C 346.720 93.448,358.196 93.464,364.618 87.285 L 365.320 86.610 365.493 87.066 C 365.589 87.317,365.667 87.632,365.667 87.766 C 365.667 91.052,371.802 92.566,374.724 90.001 C 376.624 88.332,376.654 88.101,376.660 74.917 C 376.668 59.665,376.453 57.943,374.084 54.239 C 371.119 49.605,363.372 46.800,355.750 47.602 M392.226 48.173 C 390.555 48.504,389.111 49.659,388.292 51.321 L 387.917 52.083 387.917 69.667 L 387.917 87.250 388.359 88.193 C 388.602 88.711,389.118 89.444,389.507 89.821 C 390.161 90.456,390.441 90.623,391.716 91.143 C 391.973 91.248,392.700 91.333,393.333 91.333 C 394.431 91.333,394.674 91.276,395.982 90.708 C 396.768 90.366,397.847 89.240,398.337 88.250 L 398.750 87.417 398.750 69.667 L 398.750 51.917 398.307 51.077 C 397.113 48.816,394.730 47.678,392.226 48.173 M193.417 57.673 C 194.150 57.856,195.068 58.155,195.457 58.337 C 195.845 58.518,196.205 58.667,196.256 58.667 C 196.913 58.667,200.324 61.709,200.341 62.310 C 200.345 62.460,200.342 65.910,200.334 69.977 L 200.319 77.370 199.785 78.036 C 196.749 81.814,190.237 83.149,185.723 80.919 C 177.857 77.034,177.939 62.341,185.848 58.434 C 188.168 57.288,190.818 57.021,193.417 57.673 M245.045 57.575 C 256.089 60.214,256.312 78.835,245.333 81.752 C 238.989 83.439,232.912 79.260,231.828 72.466 C 230.315 62.981,236.851 55.617,245.045 57.575 M358.750 71.903 C 361.487 72.388,363.435 73.295,364.875 74.755 L 365.500 75.389 365.500 78.098 L 365.500 80.807 364.767 81.520 C 361.105 85.083,353.704 85.522,350.236 82.382 C 347.159 79.595,348.035 74.505,351.893 72.757 C 354.215 71.704,356.218 71.455,358.750 71.903 M321.833 77.847 C 315.867 79.389,314.038 85.764,318.360 89.951 C 323.951 95.368,332.798 88.337,329.163 81.364 C 327.898 78.936,324.301 77.210,321.833 77.847 " stroke="none" fill="#243356" fill-rule="evenodd"></path><path id="path1" d="M0.011 20.542 C 0.017 31.840,0.083 40.933,0.156 40.750 C 0.230 40.567,0.384 40.117,0.499 39.750 C 2.366 33.798,9.677 30.997,14.984 34.199 C 18.391 36.256,20.224 39.940,19.787 43.854 C 19.577 45.731,18.175 44.577,29.750 52.053 C 31.033 52.882,32.930 54.109,33.964 54.780 C 36.037 56.125,36.103 56.146,36.715 55.664 C 42.552 51.073,51.771 55.435,52.284 63.030 C 52.424 65.116,52.175 66.323,51.208 68.250 C 46.117 78.386,30.699 72.933,32.710 61.708 L 32.838 60.999 31.877 60.389 C 31.349 60.054,29.417 58.806,27.583 57.615 C 25.750 56.425,23.087 54.701,21.667 53.784 C 20.246 52.867,18.462 51.713,17.703 51.220 L 16.323 50.324 15.603 50.820 C 10.547 54.298,3.689 52.493,1.021 46.980 C 0.643 46.199,0.332 45.414,0.331 45.238 C 0.329 45.061,0.256 44.804,0.167 44.667 C 0.062 44.504,0.004 51.166,0.003 63.635 C 0.001 76.405,0.056 82.818,0.167 82.750 C 0.258 82.693,0.333 82.511,0.333 82.346 C 0.333 80.045,3.791 76.323,6.862 75.317 C 16.078 72.298,23.646 83.002,17.778 90.754 C 12.956 97.122,2.644 95.164,0.420 87.458 C 0.267 86.931,0.111 86.500,0.072 86.500 C 0.032 86.500,0.000 95.763,0.000 107.083 L 0.000 127.667 200.000 127.667 L 400.000 127.667 399.989 83.208 C 399.981 51.887,399.926 38.873,399.802 39.167 C 397.970 43.511,393.939 45.164,390.129 43.133 C 385.482 40.656,385.504 33.592,390.167 31.396 C 391.580 30.730,391.852 30.667,393.300 30.669 C 396.428 30.675,398.449 32.124,399.802 35.333 C 399.926 35.629,399.981 30.565,399.989 17.875 L 400.000 0.000 243.550 -0.000 C 150.557 -0.000,87.164 0.061,87.258 0.150 C 87.345 0.233,87.772 0.419,88.206 0.564 C 95.152 2.883,97.155 11.837,91.874 16.960 C 89.676 19.092,88.043 19.715,84.600 19.735 L 82.116 19.750 81.600 20.517 C 81.316 20.938,79.958 23.018,78.583 25.137 C 77.208 27.257,75.090 30.511,73.875 32.367 C 71.452 36.071,71.497 35.963,72.064 36.719 C 75.278 41.007,73.898 47.789,69.214 50.723 C 65.953 52.767,61.205 52.640,58.203 50.431 C 49.575 44.079,55.198 30.776,65.757 32.559 L 66.598 32.700 67.022 32.059 C 67.255 31.706,67.860 30.779,68.367 30.000 C 68.875 29.221,70.149 27.271,71.199 25.667 C 72.249 24.063,73.546 22.075,74.081 21.250 C 74.616 20.425,75.529 19.026,76.110 18.140 C 77.334 16.275,77.317 16.364,76.670 15.313 C 73.228 9.719,75.696 2.525,81.730 0.569 C 82.199 0.417,82.655 0.227,82.742 0.146 C 82.833 0.062,74.786 0.000,63.867 0.000 C 53.398 0.000,44.833 0.031,44.833 0.070 C 44.833 0.108,45.227 0.269,45.708 0.426 C 53.060 2.835,55.194 11.556,49.746 16.929 C 45.432 21.185,38.771 20.754,34.965 15.975 C 30.767 10.704,33.771 1.590,40.097 0.403 C 40.412 0.344,40.711 0.229,40.762 0.148 C 40.815 0.062,32.261 -0.000,20.427 -0.000 L 0.000 0.000 0.011 20.542 M41.093 6.341 C 37.938 7.915,38.152 12.267,41.455 13.683 C 44.491 14.984,47.750 11.813,46.676 8.603 C 45.960 6.462,43.141 5.319,41.093 6.341 M82.732 6.542 C 80.555 8.004,80.293 10.300,82.038 12.613 C 84.504 15.883,89.964 12.789,88.836 8.761 C 88.147 6.300,84.867 5.107,82.732 6.542 M207.917 32.090 C 209.609 32.669,210.673 33.722,211.341 35.481 C 211.850 36.819,211.851 86.416,211.343 87.808 C 209.603 92.566,202.799 92.732,200.736 88.067 C 200.514 87.566,200.333 86.897,200.333 86.579 C 200.333 85.808,200.228 85.840,199.161 86.933 C 189.926 96.391,174.155 92.309,169.798 79.333 C 167.804 73.397,167.771 66.289,169.708 60.417 C 174.042 47.277,189.610 42.978,198.968 52.336 C 199.750 53.118,200.193 53.455,200.248 53.308 C 200.293 53.184,200.350 49.183,200.374 44.417 L 200.417 35.750 200.802 34.968 C 202.082 32.370,205.131 31.137,207.917 32.090 M120.048 33.079 C 125.498 34.234,129.094 40.373,127.362 45.569 C 124.775 53.332,114.945 55.159,110.031 48.791 C 104.361 41.441,110.925 31.146,120.048 33.079 M62.256 38.676 C 59.041 40.280,59.167 44.607,62.471 46.023 C 65.512 47.327,68.843 44.092,67.674 40.971 C 66.848 38.770,64.263 37.675,62.256 38.676 M8.832 38.812 C 4.369 40.276,5.327 46.713,10.010 46.731 C 14.198 46.747,15.539 41.057,11.797 39.148 C 11.051 38.767,9.504 38.592,8.832 38.812 M116.235 39.129 C 114.931 39.827,114.712 40.035,114.258 41.011 C 112.330 45.154,117.621 48.772,120.783 45.473 C 123.787 42.340,120.027 37.097,116.235 39.129 M247.166 47.768 C 269.126 51.540,271.695 83.684,250.600 90.738 C 240.413 94.144,229.252 90.827,223.855 82.788 C 221.923 79.912,221.078 77.706,220.177 73.196 C 219.949 72.051,219.948 67.290,220.176 66.138 C 220.599 63.997,220.717 63.509,221.117 62.250 C 223.343 55.250,228.713 50.150,235.917 48.197 C 239.138 47.324,243.592 47.154,247.166 47.768 M296.334 47.579 C 305.577 48.668,311.001 53.959,307.205 58.182 C 305.308 60.291,302.818 60.596,299.759 59.091 C 289.534 54.062,279.893 62.049,282.669 73.250 C 284.141 79.188,290.296 83.228,295.731 81.823 C 297.780 81.292,297.910 81.241,300.167 80.067 C 306.515 76.764,311.680 84.500,305.782 88.478 C 303.128 90.267,300.965 91.099,297.250 91.758 C 295.659 92.039,291.041 92.078,289.593 91.821 C 279.738 90.072,273.297 84.371,271.268 75.601 C 270.697 73.131,270.622 72.445,270.622 69.667 C 270.622 66.870,270.695 66.204,271.284 63.667 C 273.793 52.851,284.225 46.152,296.334 47.579 M361.667 47.579 C 365.460 48.020,367.691 48.758,370.394 50.466 C 373.691 52.549,375.640 55.647,376.417 60.039 C 376.859 62.540,376.777 86.694,376.322 87.910 C 374.570 92.590,367.269 92.766,365.655 88.167 C 365.446 87.571,365.252 87.053,365.224 87.016 C 365.195 86.980,364.814 87.283,364.378 87.690 C 361.421 90.446,357.046 91.989,352.167 91.997 C 343.445 92.010,337.150 86.173,337.141 78.066 C 337.134 72.304,339.523 68.236,344.282 65.905 C 350.565 62.829,360.380 64.096,364.689 68.542 C 364.934 68.794,365.179 69.000,365.234 69.000 C 365.549 69.000,365.323 62.641,364.969 61.562 C 363.247 56.318,354.864 55.068,347.349 58.936 C 344.520 60.392,343.048 60.290,341.462 58.530 C 336.288 52.787,348.682 46.069,361.667 47.579 M395.763 48.432 C 396.891 48.945,397.934 49.987,398.475 51.141 L 398.917 52.083 398.917 69.750 L 398.917 87.417 398.436 88.380 C 396.375 92.513,390.335 92.508,388.299 88.372 L 387.750 87.257 387.750 69.670 L 387.750 52.083 388.113 51.297 C 389.435 48.437,392.913 47.134,395.763 48.432 M89.122 54.553 C 93.212 56.284,95.221 59.407,95.240 64.065 C 95.250 66.520,95.255 66.550,95.667 66.834 C 95.896 66.992,97.208 67.848,98.583 68.737 C 99.958 69.625,102.133 71.036,103.417 71.871 C 111.762 77.304,111.485 77.151,112.141 76.686 C 120.673 70.628,131.696 80.502,126.513 89.560 C 121.239 98.778,107.696 94.666,108.022 83.945 L 108.083 81.918 106.040 80.584 C 104.917 79.850,102.554 78.317,100.790 77.177 C 99.026 76.038,96.340 74.294,94.820 73.302 C 91.764 71.310,91.825 71.332,90.972 71.911 C 83.121 77.246,72.757 69.211,76.045 60.338 C 77.980 55.115,84.078 52.418,89.122 54.553 M187.853 57.841 C 184.941 58.603,182.190 61.012,181.181 63.682 C 181.063 63.994,180.907 64.400,180.836 64.583 C 179.768 67.303,179.716 71.399,180.710 74.417 C 182.830 80.848,189.143 83.689,195.290 80.978 C 195.678 80.807,196.040 80.667,196.094 80.667 C 196.423 80.667,198.569 79.056,199.375 78.204 L 200.333 77.191 200.333 69.786 L 200.333 62.381 199.771 61.644 C 197.329 58.447,192.015 56.751,187.853 57.841 M240.500 57.604 C 233.855 58.873,230.198 66.255,232.357 74.045 C 235.249 84.482,249.093 84.736,252.580 74.417 C 255.720 65.123,249.134 55.956,240.500 57.604 M41.036 59.876 C 39.108 60.494,37.890 63.034,38.581 64.994 C 40.159 69.465,46.998 67.994,46.444 63.303 C 46.140 60.732,43.529 59.077,41.036 59.876 M83.775 60.063 C 81.062 61.424,80.526 64.552,82.652 66.617 C 85.600 69.480,90.752 66.160,89.199 62.399 C 88.280 60.175,85.738 59.079,83.775 60.063 M354.750 71.989 C 346.780 73.295,346.261 82.275,354.052 84.072 C 357.515 84.870,362.347 83.724,364.542 81.583 L 365.333 80.811 365.333 78.089 L 365.333 75.367 364.426 74.537 C 362.258 72.557,358.051 71.448,354.750 71.989 M66.881 75.695 C 74.642 78.243,76.313 88.186,69.803 93.079 C 67.762 94.614,66.184 95.066,63.180 94.978 L 61.102 94.917 59.926 96.699 C 59.279 97.679,58.030 99.592,57.150 100.949 C 56.270 102.306,54.916 104.392,54.140 105.583 C 50.146 111.717,50.430 111.102,51.136 112.092 C 56.865 120.118,47.384 130.862,38.500 126.411 C 28.259 121.281,33.016 106.501,44.507 107.747 L 45.597 107.865 48.590 103.267 C 50.236 100.738,52.575 97.159,53.787 95.313 C 56.382 91.363,56.326 91.491,55.753 90.740 C 50.210 83.472,58.096 72.811,66.881 75.695 M325.266 78.003 C 330.264 79.714,331.817 85.627,328.303 89.570 C 324.156 94.221,316.503 91.607,315.898 85.333 C 315.424 80.421,320.568 76.396,325.266 78.003 M8.243 81.061 C 6.748 81.757,6.000 82.997,6.000 84.779 C 6.000 89.025,11.807 90.285,13.603 86.428 C 15.190 83.020,11.650 79.475,8.243 81.061 M116.250 81.048 C 112.272 82.956,113.489 88.678,117.869 88.663 C 120.201 88.655,121.833 87.025,121.866 84.673 C 121.906 81.854,118.779 79.836,116.250 81.048 M62.404 81.403 C 59.520 82.659,59.037 86.530,61.537 88.341 C 65.424 91.157,70.074 86.023,66.862 82.460 C 65.784 81.265,63.801 80.795,62.404 81.403 M87.250 107.866 C 92.748 109.043,96.264 115.229,94.448 120.531 C 91.981 127.735,83.204 129.774,77.880 124.381 C 70.962 117.373,77.535 105.786,87.250 107.866 M41.854 113.620 C 39.952 113.980,38.588 116.115,38.905 118.233 C 39.370 121.331,43.589 122.590,45.729 120.269 C 48.461 117.305,45.871 112.860,41.854 113.620 M83.627 113.727 C 79.114 115.411,80.684 121.936,85.483 121.445 C 88.741 121.111,90.152 116.999,87.804 114.684 C 86.722 113.618,84.985 113.220,83.627 113.727 " stroke="none" fill="#fbfbfb" fill-rule="evenodd"></path><path id="path2" d="M391.500 30.838 C 391.325 30.955,391.476 30.972,392.000 30.896 C 392.934 30.760,393.067 30.666,392.319 30.669 C 392.006 30.671,391.637 30.747,391.500 30.838 M393.847 30.727 C 393.885 30.760,394.254 30.836,394.667 30.896 C 395.191 30.972,395.341 30.955,395.167 30.838 C 394.942 30.689,393.680 30.582,393.847 30.727 M396.338 31.381 C 396.558 31.632,397.667 32.309,397.667 32.192 C 397.667 32.120,397.348 31.886,396.958 31.671 C 396.569 31.457,396.289 31.326,396.338 31.381 M205.000 31.822 C 204.747 31.897,205.138 31.943,206.000 31.940 C 206.841 31.937,207.247 31.887,207.000 31.817 C 206.460 31.665,205.528 31.667,205.000 31.822 M202.893 32.654 C 202.605 32.829,202.319 33.055,202.257 33.156 C 202.163 33.307,203.240 32.649,203.482 32.407 C 203.644 32.244,203.389 32.352,202.893 32.654 M208.750 32.551 C 208.933 32.661,209.522 33.186,210.058 33.719 C 211.038 34.693,211.107 34.695,210.381 33.727 C 210.002 33.222,208.810 32.323,208.545 32.343 C 208.475 32.349,208.567 32.442,208.750 32.551 M398.308 32.965 C 398.514 33.254,398.768 33.543,398.874 33.608 C 398.979 33.674,398.897 33.491,398.692 33.202 C 398.486 32.913,398.232 32.623,398.126 32.558 C 398.021 32.493,398.103 32.676,398.308 32.965 M387.961 33.208 C 387.446 33.886,386.949 34.838,387.056 34.945 C 387.100 34.989,387.185 34.871,387.245 34.684 C 387.304 34.496,387.612 33.965,387.929 33.504 C 388.574 32.567,388.595 32.374,387.961 33.208 M201.357 34.076 C 200.724 34.956,200.326 36.010,200.353 36.729 C 200.369 37.160,200.395 37.120,200.505 36.500 C 200.679 35.511,201.053 34.660,201.598 34.013 C 201.842 33.723,202.007 33.452,201.965 33.410 C 201.924 33.368,201.650 33.668,201.357 34.076 M386.762 35.595 C 386.701 35.839,386.683 36.071,386.722 36.111 C 386.761 36.150,386.843 35.982,386.905 35.738 C 386.966 35.494,386.984 35.262,386.945 35.223 C 386.906 35.183,386.823 35.351,386.762 35.595 M211.441 36.417 C 211.497 36.875,211.571 37.281,211.605 37.319 C 211.735 37.466,211.636 36.234,211.492 35.917 C 211.389 35.692,211.373 35.856,211.441 36.417 M386.695 38.417 C 386.692 38.600,386.755 38.900,386.833 39.083 C 387.016 39.508,387.016 39.070,386.833 38.500 C 386.726 38.165,386.699 38.149,386.695 38.417 M108.695 38.825 C 108.597 39.105,108.553 39.333,108.596 39.333 C 108.709 39.333,109.023 38.468,108.941 38.385 C 108.903 38.347,108.792 38.545,108.695 38.825 M387.005 39.583 C 386.995 40.704,390.204 43.701,391.369 43.659 C 391.487 43.655,391.133 43.442,390.583 43.186 C 389.313 42.594,388.137 41.505,387.502 40.333 C 387.229 39.829,387.005 39.492,387.005 39.583 M200.401 42.667 C 200.401 44.179,200.426 44.798,200.457 44.042 C 200.488 43.285,200.488 42.048,200.457 41.292 C 200.426 40.535,200.401 41.154,200.401 42.667 M398.053 41.760 C 397.487 42.361,396.827 42.845,396.137 43.164 C 395.557 43.432,395.180 43.655,395.297 43.659 C 395.975 43.683,397.986 42.290,398.681 41.314 C 399.173 40.622,399.030 40.723,398.053 41.760 M107.996 41.917 C 107.910 44.987,108.416 46.697,110.031 48.791 C 112.720 52.276,118.388 53.758,121.776 51.862 C 122.393 51.517,121.659 51.561,120.501 51.938 C 119.123 52.388,117.685 52.498,116.917 52.213 C 116.642 52.111,116.042 51.945,115.583 51.844 C 115.125 51.743,114.308 51.437,113.768 51.164 C 113.228 50.890,112.729 50.667,112.658 50.667 C 112.403 50.667,110.675 48.878,110.509 48.441 C 110.416 48.195,110.150 47.922,109.920 47.834 C 109.689 47.747,109.500 47.593,109.500 47.494 C 109.500 47.394,109.317 46.924,109.092 46.448 C 108.648 45.506,108.343 43.940,108.323 42.500 C 108.304 41.141,108.031 40.655,107.996 41.917 M113.840 44.021 C 113.836 44.262,113.946 44.553,114.083 44.667 C 114.395 44.925,114.396 44.849,114.090 44.144 C 113.857 43.607,113.846 43.602,113.840 44.021 M392.458 43.895 C 392.984 43.986,393.683 43.986,394.208 43.895 C 394.999 43.758,394.915 43.744,393.333 43.744 C 391.752 43.744,391.668 43.758,392.458 43.895 M115.500 46.160 C 115.500 46.424,116.014 46.833,116.345 46.833 C 116.797 46.833,116.750 46.749,116.083 46.355 C 115.763 46.166,115.500 46.078,115.500 46.160 M185.083 47.485 C 184.625 47.539,185.525 47.586,187.083 47.589 C 188.810 47.592,189.591 47.549,189.083 47.479 C 188.104 47.342,186.260 47.345,185.083 47.485 M240.000 47.474 C 239.443 47.540,240.325 47.590,242.250 47.601 C 245.383 47.619,247.093 47.815,249.326 48.411 C 250.506 48.727,250.629 48.609,249.471 48.273 C 247.143 47.597,242.347 47.192,240.000 47.474 M290.667 47.485 C 290.162 47.539,291.287 47.583,293.167 47.583 C 295.100 47.583,296.149 47.537,295.583 47.476 C 294.374 47.347,291.921 47.352,290.667 47.485 M355.417 47.485 C 354.958 47.539,356.233 47.583,358.250 47.583 C 360.267 47.583,361.467 47.535,360.917 47.476 C 359.692 47.346,356.550 47.350,355.417 47.485 M182.917 47.833 L 182.583 47.977 182.917 47.969 C 183.100 47.964,183.475 47.903,183.750 47.833 L 184.250 47.706 183.750 47.698 C 183.475 47.694,183.100 47.755,182.917 47.833 M191.167 47.999 C 191.854 48.169,192.779 48.463,193.222 48.654 C 194.152 49.053,194.437 49.096,193.833 48.746 C 193.244 48.404,190.812 47.664,190.325 47.679 C 190.100 47.685,190.479 47.830,191.167 47.999 M237.500 47.833 C 236.915 48.021,237.526 48.027,238.417 47.843 L 239.083 47.705 238.500 47.702 C 238.179 47.701,237.729 47.760,237.500 47.833 M287.917 47.860 C 287.550 47.947,287.072 48.056,286.855 48.101 C 286.638 48.146,286.498 48.220,286.543 48.265 C 286.588 48.310,287.140 48.234,287.771 48.097 C 288.401 47.959,289.104 47.817,289.333 47.779 C 289.622 47.733,289.571 47.710,289.167 47.707 C 288.846 47.704,288.283 47.773,287.917 47.860 M297.750 47.918 C 298.392 48.040,299.179 48.194,299.500 48.260 C 299.821 48.327,300.042 48.335,299.991 48.278 C 299.855 48.128,297.554 47.664,297.031 47.682 C 296.785 47.690,297.108 47.796,297.750 47.918 M352.833 47.842 C 352.563 47.934,352.769 47.950,353.417 47.888 C 353.967 47.835,354.448 47.763,354.486 47.729 C 354.621 47.608,353.244 47.702,352.833 47.842 M363.083 47.909 C 363.725 48.026,364.512 48.178,364.833 48.247 C 365.154 48.316,365.379 48.332,365.333 48.283 C 365.182 48.122,362.994 47.666,362.448 47.682 C 362.130 47.691,362.386 47.782,363.083 47.909 M236.000 48.167 C 235.682 48.372,236.024 48.372,236.667 48.167 L 237.083 48.033 236.667 48.019 C 236.438 48.011,236.137 48.078,236.000 48.167 M351.000 48.172 C 350.825 48.288,350.976 48.305,351.500 48.229 C 352.434 48.094,352.567 47.999,351.819 48.003 C 351.506 48.004,351.137 48.080,351.000 48.172 M391.667 48.164 C 391.496 48.273,391.629 48.291,392.083 48.222 C 392.907 48.095,393.047 47.999,392.403 48.003 C 392.135 48.004,391.804 48.077,391.667 48.164 M394.014 48.061 C 394.052 48.095,394.383 48.173,394.750 48.234 C 395.228 48.314,395.346 48.297,395.167 48.175 C 394.942 48.022,393.847 47.914,394.014 48.061 M179.917 48.827 C 178.600 49.456,178.791 49.462,180.255 48.838 C 180.894 48.565,181.304 48.344,181.167 48.346 C 181.029 48.348,180.467 48.565,179.917 48.827 M234.833 48.508 C 234.651 48.631,234.718 48.647,235.083 48.565 C 235.696 48.428,235.829 48.332,235.403 48.336 C 235.227 48.337,234.971 48.415,234.833 48.508 M285.002 48.633 C 284.590 48.774,284.330 48.916,284.424 48.947 C 284.518 48.978,285.005 48.859,285.506 48.681 C 286.007 48.503,286.267 48.362,286.083 48.367 C 285.900 48.371,285.413 48.491,285.002 48.633 M300.987 48.678 C 301.483 48.855,301.919 48.970,301.954 48.935 C 302.032 48.857,300.514 48.328,300.262 48.346 C 300.164 48.352,300.490 48.502,300.987 48.678 M349.500 48.499 C 349.271 48.575,348.858 48.691,348.583 48.756 C 348.308 48.821,348.158 48.901,348.250 48.933 C 348.342 48.966,348.942 48.851,349.583 48.678 C 350.225 48.505,350.563 48.363,350.333 48.362 C 350.104 48.360,349.729 48.422,349.500 48.499 M366.320 48.678 C 366.817 48.855,367.259 48.963,367.302 48.920 C 367.346 48.877,367.239 48.796,367.066 48.740 C 366.892 48.685,366.578 48.571,366.367 48.486 C 366.157 48.402,365.857 48.339,365.700 48.346 C 365.544 48.352,365.823 48.502,366.320 48.678 M390.492 48.661 C 389.693 49.083,388.550 50.352,388.110 51.304 L 387.750 52.083 387.750 69.670 L 387.750 87.257 388.288 88.349 C 388.583 88.950,388.989 89.585,389.188 89.762 C 389.421 89.968,389.338 89.770,388.956 89.209 C 387.854 87.593,387.917 88.773,387.917 69.583 L 387.917 52.083 388.292 51.321 C 388.835 50.219,389.755 49.215,390.643 48.752 C 391.069 48.530,391.342 48.349,391.250 48.348 C 391.158 48.348,390.817 48.489,390.492 48.661 M233.833 48.833 C 233.611 48.977,233.611 48.995,233.833 48.995 C 233.971 48.995,234.196 48.922,234.333 48.833 C 234.556 48.690,234.556 48.672,234.333 48.672 C 234.196 48.672,233.971 48.744,233.833 48.833 M250.667 48.833 C 250.804 48.922,251.029 48.995,251.167 48.995 C 251.389 48.995,251.389 48.977,251.167 48.833 C 251.029 48.744,250.804 48.672,250.667 48.672 C 250.444 48.672,250.444 48.690,250.667 48.833 M397.040 49.489 C 397.535 49.941,398.077 50.617,398.246 50.991 C 398.414 51.364,398.583 51.639,398.621 51.601 C 398.895 51.327,396.782 48.667,396.290 48.667 C 396.207 48.667,396.545 49.037,397.040 49.489 M194.833 49.365 C 196.672 50.498,197.699 51.260,198.653 52.198 C 199.241 52.777,199.597 53.064,199.443 52.836 C 198.812 51.900,194.962 48.989,194.373 49.003 C 194.305 49.004,194.512 49.167,194.833 49.365 M283.458 49.262 C 282.812 49.613,282.885 49.734,283.542 49.400 C 284.170 49.080,284.281 48.997,284.069 49.007 C 283.985 49.010,283.710 49.125,283.458 49.262 M178.292 49.595 C 177.669 49.933,177.707 50.074,178.333 49.750 C 178.608 49.608,178.833 49.456,178.833 49.412 C 178.833 49.305,178.815 49.311,178.292 49.595 M176.817 50.524 C 174.874 51.913,172.909 54.012,171.925 55.750 C 171.644 56.246,171.644 56.246,171.946 55.839 C 173.338 53.960,173.835 53.354,174.649 52.539 C 175.163 52.025,176.033 51.274,176.583 50.870 C 177.695 50.053,177.759 50.000,177.636 50.000 C 177.589 50.000,177.220 50.236,176.817 50.524 M230.667 50.348 C 230.390 50.575,230.362 50.631,230.583 50.517 C 231.127 50.236,231.428 50.005,231.250 50.006 C 231.158 50.007,230.896 50.161,230.667 50.348 M281.333 50.347 L 280.917 50.687 281.458 50.422 C 281.756 50.277,282.000 50.123,282.000 50.079 C 282.000 49.913,281.735 50.020,281.333 50.347 M304.333 50.070 C 304.333 50.108,304.615 50.312,304.958 50.524 C 305.893 51.099,306.994 52.157,307.527 52.991 C 308.055 53.818,308.184 53.721,307.672 52.881 C 307.017 51.806,304.333 49.546,304.333 50.070 M254.333 50.399 C 254.333 50.440,254.615 50.643,254.958 50.852 C 256.828 51.986,258.566 53.526,260.394 55.667 C 260.879 56.234,260.940 56.275,260.644 55.833 C 259.474 54.090,254.333 49.663,254.333 50.399 M370.250 50.443 C 370.342 50.530,370.851 50.927,371.382 51.326 C 372.645 52.275,373.569 53.360,374.542 55.038 C 375.363 56.454,375.596 56.674,374.980 55.452 C 374.073 53.652,372.066 51.410,370.640 50.601 C 370.334 50.428,370.158 50.357,370.250 50.443 M123.244 50.825 C 123.058 50.901,122.795 51.096,122.661 51.259 C 122.380 51.599,122.773 51.431,123.417 50.934 C 123.788 50.648,123.746 50.622,123.244 50.825 M229.398 51.103 C 226.989 52.724,224.171 55.694,223.170 57.667 C 222.838 58.323,223.214 57.860,224.123 56.497 C 225.397 54.585,227.402 52.646,229.839 50.967 C 230.065 50.811,230.204 50.680,230.148 50.675 C 230.092 50.671,229.755 50.863,229.398 51.103 M279.969 51.150 C 279.550 51.416,279.151 51.724,279.083 51.834 C 278.985 51.992,280.545 51.005,280.819 50.735 C 281.019 50.539,280.647 50.721,279.969 51.150 M343.150 51.187 C 341.553 52.321,340.320 53.922,340.343 54.833 C 340.346 54.971,340.490 54.723,340.662 54.282 C 341.097 53.169,341.703 52.429,342.895 51.553 C 344.029 50.719,344.093 50.667,343.969 50.667 C 343.922 50.667,343.553 50.901,343.150 51.187 M398.750 69.635 C 398.750 84.132,398.709 87.489,398.528 87.806 C 398.406 88.020,398.348 88.237,398.399 88.287 C 398.880 88.769,399.349 53.473,398.878 52.199 C 398.808 52.009,398.750 59.855,398.750 69.635 M277.327 53.286 C 275.293 55.199,271.957 60.013,272.376 60.431 C 272.419 60.474,272.754 59.889,273.121 59.130 C 274.077 57.151,275.449 55.311,277.290 53.542 C 278.172 52.694,278.848 52.000,278.794 52.000 C 278.739 52.000,278.079 52.579,277.327 53.286 M308.108 54.333 C 308.239 55.052,308.334 55.188,308.331 54.653 C 308.329 54.431,308.254 54.137,308.164 54.000 C 308.049 53.824,308.032 53.923,308.108 54.333 M308.104 56.188 C 307.965 56.882,308.100 57.017,308.250 56.333 C 308.313 56.045,308.330 55.775,308.288 55.732 C 308.245 55.690,308.163 55.895,308.104 56.188 M340.348 56.417 C 340.343 56.600,340.411 56.862,340.500 57.000 C 340.714 57.331,340.714 56.915,340.500 56.417 L 340.357 56.083 340.348 56.417 M171.242 56.849 C 171.095 57.132,171.005 57.394,171.041 57.430 C 171.077 57.466,171.232 57.234,171.384 56.915 C 171.727 56.196,171.608 56.141,171.242 56.849 M355.042 56.623 C 355.477 56.657,356.190 56.657,356.625 56.623 C 357.060 56.588,356.704 56.560,355.833 56.560 C 354.962 56.560,354.606 56.588,355.042 56.623 M352.917 56.746 C 352.825 56.776,352.188 56.923,351.500 57.074 C 350.360 57.324,345.715 59.438,345.900 59.622 C 345.937 59.659,346.744 59.278,347.692 58.775 C 349.519 57.805,350.970 57.301,353.004 56.930 C 353.772 56.790,354.026 56.701,353.667 56.698 C 353.346 56.695,353.008 56.717,352.917 56.746 M359.000 56.977 C 359.688 57.145,360.467 57.372,360.731 57.480 C 360.996 57.588,361.251 57.638,361.297 57.592 C 361.343 57.546,361.277 57.473,361.149 57.430 C 359.835 56.991,359.296 56.852,358.583 56.768 C 357.907 56.689,357.986 56.728,359.000 56.977 M307.660 57.361 C 307.551 57.575,307.188 58.050,306.855 58.416 C 306.259 59.071,306.258 59.074,306.807 58.582 C 307.467 57.991,308.072 57.183,307.948 57.059 C 307.900 57.011,307.770 57.147,307.660 57.361 M188.083 57.583 C 187.625 57.700,187.063 57.881,186.833 57.986 L 186.417 58.176 186.833 58.084 C 187.063 58.034,187.737 57.874,188.333 57.729 C 189.116 57.538,189.925 57.486,191.250 57.540 C 192.258 57.581,192.896 57.559,192.667 57.491 C 191.996 57.291,188.990 57.351,188.083 57.583 M240.365 57.475 C 240.154 57.535,241.114 57.583,242.500 57.583 C 243.886 57.583,244.846 57.535,244.635 57.475 C 244.423 57.415,243.463 57.367,242.500 57.367 C 241.537 57.367,240.577 57.415,240.365 57.475 M290.953 57.578 C 290.422 57.694,289.935 57.846,289.869 57.915 C 289.804 57.985,289.900 57.999,290.083 57.947 C 291.785 57.463,294.442 57.374,296.165 57.744 C 296.760 57.871,297.275 57.947,297.310 57.912 C 297.344 57.878,297.158 57.801,296.895 57.742 C 296.632 57.683,296.154 57.567,295.833 57.485 C 295.006 57.273,292.095 57.329,290.953 57.578 M375.690 57.500 C 375.690 57.637,375.755 57.900,375.833 58.083 C 375.924 58.293,375.977 58.324,375.977 58.167 C 375.977 58.029,375.912 57.767,375.833 57.583 C 375.743 57.373,375.690 57.342,375.690 57.500 M261.917 58.000 C 262.059 58.275,262.213 58.500,262.259 58.500 C 262.304 58.500,262.226 58.275,262.083 58.000 C 261.941 57.725,261.787 57.500,261.741 57.500 C 261.696 57.500,261.774 57.725,261.917 58.000 M170.575 58.182 C 170.429 58.466,170.338 58.727,170.375 58.763 C 170.411 58.800,170.565 58.568,170.717 58.248 C 171.060 57.529,170.941 57.474,170.575 58.182 M193.500 57.833 C 194.070 58.016,194.508 58.016,194.083 57.833 C 193.900 57.755,193.600 57.692,193.417 57.695 C 193.149 57.699,193.165 57.726,193.500 57.833 M239.000 57.833 C 238.669 58.047,239.085 58.047,239.583 57.833 L 239.917 57.690 239.583 57.681 C 239.400 57.676,239.137 57.744,239.000 57.833 M245.919 57.989 C 246.378 58.152,247.072 58.448,247.460 58.646 C 247.849 58.845,248.167 58.963,248.167 58.909 C 248.167 58.750,245.715 57.666,245.386 57.679 C 245.219 57.686,245.459 57.825,245.919 57.989 M361.500 57.746 C 361.500 57.789,361.744 57.944,362.042 58.089 L 362.583 58.353 362.167 58.014 C 361.765 57.687,361.500 57.580,361.500 57.746 M288.458 58.428 C 288.023 58.654,287.667 58.872,287.667 58.911 C 287.667 58.976,289.495 58.191,289.653 58.059 C 289.911 57.841,289.111 58.088,288.458 58.428 M341.500 58.562 C 342.081 59.193,342.958 59.764,343.111 59.611 C 343.156 59.567,343.025 59.478,342.822 59.413 C 342.618 59.348,342.106 58.988,341.684 58.612 L 340.917 57.928 341.500 58.562 M184.894 58.988 C 184.356 59.349,183.617 59.965,183.250 60.358 L 182.583 61.072 183.442 60.294 C 183.915 59.867,184.683 59.281,185.151 58.994 C 185.905 58.530,186.139 58.333,185.936 58.333 C 185.900 58.333,185.432 58.628,184.894 58.988 M237.167 58.680 L 236.750 59.020 237.292 58.756 C 237.590 58.610,237.833 58.456,237.833 58.412 C 237.833 58.247,237.568 58.353,237.167 58.680 M363.592 59.346 C 364.361 60.181,364.687 60.697,364.960 61.513 C 365.157 62.102,365.322 62.417,365.326 62.213 C 365.338 61.609,364.580 60.132,363.892 59.417 C 362.776 58.258,362.539 58.202,363.592 59.346 M376.023 58.750 C 376.023 58.933,376.088 59.233,376.167 59.417 L 376.310 59.750 376.310 59.417 C 376.310 59.233,376.245 58.933,376.167 58.750 L 376.023 58.417 376.023 58.750 M196.167 58.746 C 196.167 58.789,196.410 58.944,196.708 59.089 L 197.250 59.353 196.833 59.014 C 196.432 58.687,196.167 58.580,196.167 58.746 M235.532 59.958 L 234.555 60.917 235.486 60.096 C 235.998 59.644,236.488 59.213,236.575 59.138 C 236.662 59.062,236.683 59.000,236.621 59.000 C 236.559 59.000,236.069 59.431,235.532 59.958 M286.897 59.361 C 286.150 59.922,285.010 61.032,284.615 61.583 C 284.418 61.858,284.781 61.551,285.420 60.901 C 286.060 60.251,286.808 59.560,287.083 59.365 C 287.358 59.170,287.537 59.008,287.481 59.005 C 287.424 59.002,287.162 59.162,286.897 59.361 M299.833 59.082 C 299.833 59.196,300.854 59.702,300.930 59.625 C 300.966 59.589,300.734 59.435,300.415 59.283 C 300.095 59.130,299.833 59.040,299.833 59.082 M76.092 60.206 C 75.739 61.260,75.511 62.167,75.599 62.167 C 75.804 62.167,76.606 59.550,76.448 59.393 C 76.414 59.358,76.253 59.724,76.092 60.206 M249.929 60.531 C 250.578 61.231,251.382 62.317,251.716 62.944 C 252.050 63.571,252.325 64.008,252.327 63.917 C 252.337 63.291,250.370 60.570,249.251 59.663 C 248.975 59.439,249.281 59.830,249.929 60.531 M198.628 60.438 C 199.111 60.885,199.692 61.508,199.919 61.824 C 200.147 62.140,200.333 62.317,200.333 62.217 C 200.333 61.958,198.901 60.400,198.277 59.981 C 197.979 59.781,198.132 59.980,198.628 60.438 M301.333 59.833 C 301.471 59.922,301.771 59.989,302.000 59.981 L 302.417 59.967 302.000 59.833 C 301.358 59.628,301.015 59.628,301.333 59.833 M304.000 59.833 L 303.583 59.967 304.000 59.981 C 304.229 59.989,304.529 59.922,304.667 59.833 C 304.985 59.628,304.642 59.628,304.000 59.833 M343.558 59.872 C 343.663 59.940,344.087 59.995,344.500 59.995 C 344.912 59.995,345.337 59.940,345.442 59.872 C 345.548 59.805,345.124 59.750,344.500 59.750 C 343.876 59.750,343.452 59.805,343.558 59.872 M221.604 60.830 C 221.228 61.770,221.286 61.910,221.682 61.017 C 221.861 60.614,221.977 60.255,221.941 60.219 C 221.905 60.183,221.753 60.457,221.604 60.830 M376.457 61.583 C 376.506 62.408,376.573 63.115,376.606 63.153 C 376.720 63.284,376.627 61.083,376.498 60.583 C 376.426 60.303,376.408 60.743,376.457 61.583 M169.447 61.064 C 169.385 61.227,169.338 61.486,169.344 61.639 C 169.351 61.823,169.409 61.781,169.515 61.514 C 169.604 61.293,169.650 61.034,169.619 60.939 C 169.587 60.844,169.510 60.900,169.447 61.064 M182.111 61.708 C 181.575 62.425,181.118 63.341,181.238 63.460 C 181.290 63.513,181.333 63.480,181.333 63.387 C 181.333 63.294,181.632 62.757,181.996 62.193 C 182.709 61.089,182.772 60.826,182.111 61.708 M233.496 62.283 C 233.223 62.713,233.000 63.140,233.000 63.232 C 233.000 63.370,233.421 62.766,234.060 61.708 C 234.430 61.097,233.917 61.620,233.496 62.283 M169.104 62.256 C 169.047 62.405,169.007 62.690,169.015 62.889 C 169.026 63.145,169.077 63.087,169.191 62.690 C 169.357 62.113,169.289 61.774,169.104 62.256 M271.429 62.929 C 271.367 63.173,271.349 63.405,271.389 63.444 C 271.428 63.483,271.510 63.316,271.571 63.071 C 271.633 62.827,271.651 62.595,271.611 62.556 C 271.572 62.517,271.490 62.684,271.429 62.929 M264.000 62.710 C 264.000 62.764,264.151 63.470,264.336 64.279 C 264.521 65.088,264.742 66.313,264.828 67.000 L 264.984 68.250 264.904 66.917 C 264.828 65.642,264.306 62.917,264.099 62.710 C 264.044 62.655,264.000 62.655,264.000 62.710 M365.402 65.583 C 365.402 67.233,365.427 67.886,365.458 67.033 C 365.488 66.181,365.488 64.831,365.457 64.033 C 365.427 63.236,365.402 63.933,365.402 65.583 M81.189 63.760 C 81.174 64.461,81.247 64.869,81.430 65.093 C 81.690 65.412,81.692 65.412,81.576 65.083 C 81.512 64.900,81.403 64.300,81.336 63.750 L 81.212 62.750 81.189 63.760 M220.762 63.262 C 220.701 63.506,220.683 63.738,220.722 63.777 C 220.761 63.817,220.843 63.649,220.905 63.405 C 220.966 63.161,220.984 62.929,220.945 62.889 C 220.906 62.850,220.823 63.018,220.762 63.262 M168.773 63.868 C 168.717 64.078,168.678 64.438,168.687 64.667 C 168.697 64.912,168.763 64.780,168.848 64.344 C 169.001 63.563,168.947 63.220,168.773 63.868 M232.582 64.113 C 232.441 64.450,232.352 64.805,232.384 64.902 C 232.416 64.998,232.563 64.722,232.711 64.289 C 233.030 63.354,232.946 63.241,232.582 64.113 M283.015 64.415 C 282.628 65.448,282.315 66.704,282.418 66.807 C 282.454 66.843,282.532 66.658,282.591 66.395 C 282.650 66.132,282.879 65.398,283.099 64.764 C 283.581 63.375,283.512 63.087,283.015 64.415 M75.502 64.615 C 75.509 65.855,76.568 68.833,77.003 68.833 C 77.274 68.833,77.194 68.546,76.586 67.338 C 76.244 66.659,75.960 65.803,75.896 65.255 C 75.781 64.275,75.498 63.816,75.502 64.615 M351.297 64.290 C 351.782 64.324,352.532 64.323,352.964 64.289 C 353.396 64.255,353.000 64.227,352.083 64.228 C 351.167 64.228,350.813 64.256,351.297 64.290 M348.417 64.500 L 347.917 64.627 348.417 64.630 C 348.692 64.632,349.104 64.573,349.333 64.500 L 349.750 64.367 349.333 64.370 C 349.104 64.371,348.692 64.430,348.417 64.500 M355.083 64.500 C 355.358 64.570,355.808 64.627,356.083 64.627 L 356.583 64.627 356.083 64.500 C 355.808 64.430,355.358 64.373,355.083 64.373 L 354.583 64.373 355.083 64.500 M220.444 64.611 C 220.383 64.672,220.338 64.878,220.344 65.069 C 220.354 65.389,220.367 65.385,220.514 65.017 C 220.677 64.609,220.644 64.412,220.444 64.611 M346.497 64.979 C 345.696 65.236,344.760 65.658,345.000 65.656 C 345.046 65.655,345.721 65.437,346.500 65.171 C 348.023 64.651,348.021 64.491,346.497 64.979 M356.917 64.833 C 357.100 64.912,357.438 64.974,357.667 64.972 L 358.083 64.967 357.667 64.833 C 357.438 64.760,357.100 64.698,356.917 64.695 L 356.583 64.690 356.917 64.833 M180.429 65.262 C 180.367 65.506,180.355 65.743,180.400 65.789 C 180.446 65.835,180.534 65.673,180.595 65.429 C 180.657 65.184,180.669 64.947,180.623 64.901 C 180.578 64.855,180.490 65.018,180.429 65.262 M252.690 65.167 C 252.690 65.304,252.755 65.567,252.833 65.750 C 252.924 65.960,252.977 65.991,252.977 65.833 C 252.977 65.696,252.912 65.433,252.833 65.250 C 252.743 65.040,252.690 65.009,252.690 65.167 M232.017 65.918 C 231.913 66.331,231.794 67.137,231.752 67.709 C 231.679 68.718,231.684 68.709,231.904 67.417 C 232.029 66.683,232.185 65.877,232.250 65.625 C 232.316 65.373,232.333 65.167,232.288 65.167 C 232.243 65.167,232.121 65.505,232.017 65.918 M168.439 66.107 C 168.299 67.128,168.321 72.738,168.468 73.566 C 168.531 73.923,168.583 72.217,168.583 69.774 C 168.583 67.332,168.575 65.333,168.564 65.333 C 168.554 65.333,168.498 65.681,168.439 66.107 M359.500 65.530 C 360.665 66.084,362.000 66.636,362.000 66.564 C 362.000 66.453,360.016 65.553,359.500 65.430 L 359.083 65.332 359.500 65.530 M270.742 66.242 C 270.679 66.668,270.664 67.053,270.710 67.099 C 270.756 67.145,270.845 66.834,270.909 66.409 C 270.973 65.984,270.988 65.599,270.942 65.553 C 270.896 65.507,270.806 65.817,270.742 66.242 M343.421 66.343 C 340.659 67.957,338.254 70.954,337.746 73.417 C 337.689 73.692,337.901 73.297,338.216 72.539 C 339.442 69.595,341.109 67.774,344.083 66.133 C 344.542 65.880,344.840 65.671,344.747 65.670 C 344.654 65.668,344.057 65.971,343.421 66.343 M180.091 66.758 C 180.027 67.183,180.012 67.568,180.058 67.614 C 180.104 67.660,180.194 67.349,180.258 66.924 C 180.321 66.499,180.336 66.114,180.290 66.068 C 180.244 66.022,180.155 66.332,180.091 66.758 M220.112 66.482 C 220.050 66.790,220.010 67.351,220.021 67.729 C 220.038 68.292,220.068 68.221,220.185 67.333 C 220.340 66.152,220.292 65.583,220.112 66.482 M253.031 66.583 C 253.036 66.767,253.097 67.142,253.167 67.417 L 253.294 67.917 253.302 67.417 C 253.306 67.142,253.245 66.767,253.167 66.583 L 253.023 66.250 253.031 66.583 M362.167 66.724 C 362.167 66.760,362.485 66.999,362.875 67.256 C 363.276 67.520,363.480 67.598,363.345 67.434 C 363.120 67.159,362.167 66.585,362.167 66.724 M82.833 66.965 C 82.833 67.152,83.471 67.667,83.704 67.667 C 83.775 67.667,83.833 67.592,83.833 67.500 C 83.833 67.408,83.745 67.333,83.638 67.333 C 83.531 67.333,83.306 67.209,83.138 67.058 C 82.970 66.906,82.833 66.864,82.833 66.965 M282.143 68.458 C 282.110 69.077,282.127 70.146,282.181 70.833 C 282.261 71.852,282.284 71.643,282.306 69.708 C 282.335 67.215,282.247 66.544,282.143 68.458 M364.326 68.383 C 365.041 69.137,365.167 69.244,365.167 69.101 C 365.167 68.997,364.284 68.108,363.917 67.842 C 363.733 67.709,363.918 67.953,364.326 68.383 M179.888 69.583 C 179.889 70.225,179.919 70.467,179.955 70.121 C 179.991 69.775,179.990 69.250,179.954 68.955 C 179.917 68.659,179.887 68.942,179.888 69.583 M253.387 69.667 C 253.387 70.262,253.417 70.506,253.454 70.208 C 253.491 69.910,253.491 69.423,253.454 69.125 C 253.417 68.827,253.387 69.071,253.387 69.667 M265.053 69.667 C 265.053 70.262,265.084 70.506,265.121 70.208 C 265.158 69.910,265.158 69.423,265.121 69.125 C 265.084 68.827,265.053 69.071,265.053 69.667 M270.550 69.667 C 270.550 70.171,270.581 70.377,270.619 70.125 C 270.658 69.873,270.658 69.460,270.619 69.208 C 270.581 68.956,270.550 69.162,270.550 69.667 M77.361 69.542 C 78.550 71.219,81.748 73.371,82.981 73.323 C 83.178 73.315,83.159 73.276,82.909 73.174 C 82.722 73.098,82.201 72.803,81.752 72.518 C 81.302 72.233,80.812 72.000,80.663 72.000 C 80.514 72.000,80.221 71.819,80.013 71.597 C 79.804 71.375,79.418 71.104,79.154 70.995 C 78.858 70.872,78.569 70.557,78.399 70.171 C 78.162 69.636,77.451 69.000,77.088 69.000 C 77.027 69.000,77.150 69.244,77.361 69.542 M231.686 71.094 C 231.651 72.040,232.392 75.330,232.594 75.128 C 232.627 75.095,232.542 74.696,232.404 74.242 C 232.266 73.788,232.052 72.779,231.929 72.000 C 231.805 71.221,231.696 70.813,231.686 71.094 M220.017 71.764 C 220.026 72.215,220.095 72.771,220.171 73.000 C 220.255 73.254,220.272 72.960,220.215 72.250 C 220.104 70.873,219.993 70.601,220.017 71.764 M264.764 72.473 C 264.696 73.238,264.677 73.900,264.722 73.944 C 264.832 74.054,265.056 71.583,264.961 71.305 C 264.920 71.183,264.831 71.709,264.764 72.473 M253.189 71.833 C 253.174 72.063,253.124 72.438,253.076 72.667 L 252.991 73.083 253.170 72.673 C 253.268 72.447,253.319 72.072,253.283 71.840 L 253.217 71.417 253.189 71.833 M354.926 71.811 C 354.657 71.869,355.444 71.919,356.676 71.921 C 358.079 71.924,358.667 71.880,358.250 71.806 C 357.450 71.662,355.607 71.665,354.926 71.811 M180.033 72.167 C 180.033 72.396,180.093 72.771,180.167 73.000 L 180.300 73.417 180.300 73.000 C 180.300 72.771,180.240 72.396,180.167 72.167 L 180.033 71.750 180.033 72.167 M353.333 72.174 C 353.151 72.298,353.218 72.313,353.583 72.232 C 354.196 72.095,354.329 71.999,353.903 72.003 C 353.727 72.004,353.471 72.081,353.333 72.174 M359.500 72.167 C 360.070 72.349,360.508 72.349,360.083 72.167 C 359.900 72.088,359.600 72.026,359.417 72.028 C 359.149 72.032,359.165 72.059,359.500 72.167 M270.703 72.583 C 270.701 72.858,270.760 73.271,270.833 73.500 L 270.967 73.917 270.964 73.500 C 270.962 73.271,270.903 72.858,270.833 72.583 L 270.706 72.083 270.703 72.583 M282.367 72.417 C 282.367 72.600,282.427 72.938,282.500 73.167 C 282.606 73.497,282.633 73.514,282.633 73.250 C 282.633 73.067,282.573 72.729,282.500 72.500 C 282.394 72.170,282.367 72.153,282.367 72.417 M88.250 73.024 C 87.752 73.271,87.697 73.330,88.034 73.259 C 88.641 73.131,89.333 72.862,89.333 72.754 C 89.333 72.590,88.917 72.693,88.250 73.024 M351.158 73.143 C 350.750 73.405,350.229 73.837,350.001 74.102 L 349.585 74.583 350.084 74.142 C 350.359 73.899,350.954 73.468,351.408 73.184 C 351.861 72.899,352.157 72.667,352.065 72.667 C 351.974 72.667,351.565 72.881,351.158 73.143 M83.833 73.500 C 84.063 73.573,84.625 73.632,85.083 73.630 C 85.795 73.628,85.844 73.609,85.417 73.500 C 84.704 73.319,83.267 73.319,83.833 73.500 M252.762 73.762 C 252.701 74.006,252.683 74.238,252.722 74.277 C 252.761 74.317,252.843 74.149,252.905 73.905 C 252.966 73.661,252.984 73.429,252.945 73.389 C 252.906 73.350,252.823 73.518,252.762 73.762 M363.333 73.614 C 364.129 74.192,365.208 75.248,365.343 75.581 C 365.445 75.834,365.481 75.850,365.489 75.646 C 365.502 75.324,364.267 74.090,363.476 73.634 C 363.020 73.371,362.994 73.367,363.333 73.614 M180.333 73.804 C 180.333 74.034,180.867 75.522,180.928 75.461 C 181.000 75.388,180.498 73.667,180.404 73.667 C 180.365 73.667,180.333 73.728,180.333 73.804 M282.752 74.083 C 283.060 75.818,285.131 78.792,286.906 80.050 C 287.187 80.249,286.737 79.738,285.907 78.914 C 284.382 77.401,283.688 76.340,282.987 74.456 C 282.809 73.976,282.703 73.808,282.752 74.083 M220.357 74.250 C 220.357 74.433,220.421 74.733,220.500 74.917 L 220.643 75.250 220.643 74.917 C 220.643 74.733,220.579 74.433,220.500 74.250 L 220.357 73.917 220.357 74.250 M337.448 74.338 C 337.388 74.564,337.344 74.938,337.352 75.167 C 337.363 75.466,337.410 75.399,337.520 74.928 C 337.690 74.206,337.625 73.677,337.448 74.338 M264.426 74.759 C 264.363 75.094,264.345 75.401,264.386 75.441 C 264.427 75.482,264.511 75.242,264.574 74.907 C 264.637 74.573,264.655 74.266,264.614 74.225 C 264.573 74.184,264.489 74.425,264.426 74.759 M271.023 74.667 C 271.023 74.804,271.088 75.067,271.167 75.250 C 271.257 75.460,271.310 75.491,271.310 75.333 C 271.310 75.196,271.245 74.933,271.167 74.750 C 271.076 74.540,271.023 74.509,271.023 74.667 M168.703 75.000 C 168.701 75.229,168.760 75.604,168.833 75.833 C 169.013 76.394,169.013 75.788,168.833 75.083 C 168.719 74.634,168.706 74.626,168.703 75.000 M349.375 74.875 C 349.126 75.187,348.634 76.189,348.698 76.254 C 348.729 76.285,348.951 75.940,349.192 75.488 C 349.632 74.664,349.685 74.487,349.375 74.875 M62.667 75.276 C 55.407 76.188,51.434 85.076,55.753 90.740 C 56.326 91.491,56.382 91.363,53.787 95.313 C 52.575 97.159,50.236 100.738,48.590 103.267 L 45.597 107.865 44.507 107.747 C 40.813 107.346,38.536 108.061,36.046 110.403 C 29.455 116.604,33.870 127.384,43.001 127.384 C 50.757 127.384,55.580 118.318,51.136 112.092 C 50.430 111.102,50.146 111.717,54.140 105.583 C 54.916 104.392,56.270 102.306,57.150 100.949 C 58.030 99.592,59.279 97.679,59.926 96.699 L 61.102 94.917 63.180 94.978 C 66.863 95.086,69.361 94.034,71.563 91.446 C 77.269 84.740,71.454 74.171,62.667 75.276 M232.667 75.394 C 232.667 75.575,233.495 77.167,233.589 77.167 C 233.635 77.167,233.474 76.773,233.233 76.292 C 232.768 75.366,232.667 75.206,232.667 75.394 M220.690 75.667 C 220.690 75.804,220.755 76.067,220.833 76.250 C 220.924 76.460,220.977 76.491,220.977 76.333 C 220.977 76.196,220.912 75.933,220.833 75.750 C 220.743 75.540,220.690 75.509,220.690 75.667 M181.000 75.777 C 181.000 75.934,181.832 77.333,181.925 77.333 C 181.968 77.333,181.807 76.958,181.567 76.500 C 181.159 75.719,181.000 75.516,181.000 75.777 M263.738 77.241 C 263.456 78.071,263.164 78.900,263.088 79.083 C 262.993 79.315,263.005 79.366,263.127 79.250 C 263.352 79.036,264.361 76.165,264.298 75.918 C 264.272 75.815,264.020 76.410,263.738 77.241 M337.168 76.750 C 337.096 78.293,337.152 79.554,337.339 80.634 C 337.535 81.766,337.836 82.886,337.921 82.801 C 337.958 82.764,337.871 82.325,337.728 81.826 C 337.580 81.304,337.417 79.780,337.346 78.250 C 337.261 76.416,337.205 75.948,337.168 76.750 M271.357 76.000 C 271.357 76.137,271.421 76.400,271.500 76.583 C 271.590 76.793,271.643 76.824,271.643 76.667 C 271.643 76.529,271.579 76.267,271.500 76.083 C 271.410 75.873,271.357 75.842,271.357 76.000 M365.370 78.342 C 365.350 79.675,365.277 80.838,365.208 80.926 C 365.140 81.014,365.179 81.005,365.296 80.907 C 365.456 80.773,365.497 80.124,365.458 78.323 L 365.407 75.917 365.370 78.342 M251.578 76.708 L 251.313 77.250 251.653 76.833 C 251.980 76.432,252.087 76.167,251.921 76.167 C 251.877 76.167,251.723 76.410,251.578 76.708 M169.003 76.764 C 169.004 76.940,169.081 77.196,169.174 77.333 C 169.298 77.516,169.313 77.448,169.232 77.083 C 169.095 76.471,168.999 76.337,169.003 76.764 M221.005 76.833 C 221.005 76.971,221.078 77.196,221.167 77.333 C 221.310 77.556,221.328 77.556,221.328 77.333 C 221.328 77.196,221.256 76.971,221.167 76.833 C 221.023 76.611,221.005 76.611,221.005 76.833 M348.438 77.042 C 348.306 77.536,348.326 79.007,348.471 79.370 C 348.533 79.528,348.584 78.984,348.584 78.162 C 348.583 76.515,348.582 76.505,348.438 77.042 M199.333 78.227 C 198.829 78.771,197.971 79.506,197.427 79.862 C 196.270 80.616,196.048 80.812,196.757 80.452 C 197.634 80.006,199.228 78.729,199.808 78.006 C 200.634 76.979,200.381 77.096,199.333 78.227 M182.170 77.840 C 182.705 78.840,186.260 81.629,186.585 81.304 C 186.619 81.270,186.220 81.022,185.698 80.754 C 185.145 80.469,184.182 79.704,183.387 78.916 C 182.637 78.174,182.090 77.690,182.170 77.840 M321.417 77.833 C 320.992 78.016,321.430 78.016,322.000 77.833 C 322.335 77.726,322.351 77.699,322.083 77.695 C 321.900 77.692,321.600 77.755,321.417 77.833 M324.167 77.833 C 324.737 78.016,325.175 78.016,324.750 77.833 C 324.567 77.755,324.267 77.692,324.083 77.695 C 323.815 77.699,323.832 77.726,324.167 77.833 M234.300 78.277 C 234.799 78.991,236.130 80.165,236.975 80.636 C 237.934 81.171,237.848 80.970,236.875 80.405 C 236.440 80.152,235.599 79.451,235.008 78.848 C 234.416 78.244,234.098 77.987,234.300 78.277 M249.677 79.138 C 248.507 80.345,248.557 80.390,249.806 79.255 C 250.289 78.817,251.121 77.810,250.970 77.846 C 250.941 77.853,250.359 78.435,249.677 79.138 M272.008 78.062 C 271.997 78.271,272.870 80.186,272.943 80.113 C 272.976 80.080,272.781 79.572,272.509 78.985 C 272.238 78.397,272.012 77.982,272.008 78.062 M326.105 78.502 C 327.811 79.362,329.330 81.133,329.746 82.750 C 329.817 83.025,329.909 83.155,329.952 83.039 C 330.352 81.951,327.295 78.555,325.500 78.094 C 325.271 78.035,325.543 78.219,326.105 78.502 M319.333 78.684 C 318.610 79.117,317.746 79.923,317.298 80.583 C 317.112 80.858,317.266 80.736,317.642 80.312 C 318.018 79.887,318.702 79.298,319.162 79.003 C 319.623 78.707,320.000 78.436,320.000 78.399 C 320.000 78.294,319.948 78.316,319.333 78.684 M301.220 79.554 C 300.929 79.662,300.629 79.818,300.554 79.902 C 300.472 79.992,300.552 79.998,300.750 79.918 C 300.933 79.844,301.496 79.688,302.000 79.572 C 302.775 79.394,302.826 79.361,302.333 79.360 C 302.012 79.359,301.512 79.447,301.220 79.554 M303.014 79.393 C 303.052 79.426,303.496 79.495,304.000 79.547 C 304.570 79.605,304.791 79.587,304.583 79.498 C 304.264 79.363,302.870 79.269,303.014 79.393 M262.616 80.085 C 262.463 80.405,262.373 80.667,262.415 80.667 C 262.529 80.667,263.035 79.646,262.959 79.570 C 262.923 79.534,262.768 79.766,262.616 80.085 M305.612 80.049 C 306.399 80.465,307.083 81.042,307.639 81.760 C 307.899 82.095,307.961 82.131,307.836 81.874 C 307.450 81.077,305.630 79.641,305.048 79.674 C 304.976 79.678,305.230 79.847,305.612 80.049 M170.012 79.872 C 169.993 80.069,170.536 81.353,170.608 81.281 C 170.644 81.245,170.527 80.886,170.349 80.483 C 170.170 80.080,170.018 79.805,170.012 79.872 M348.670 80.009 C 348.649 81.542,352.533 84.396,354.536 84.319 C 354.746 84.311,354.426 84.177,353.826 84.023 C 351.554 83.436,349.739 82.096,348.994 80.455 C 348.818 80.067,348.672 79.867,348.670 80.009 M299.458 80.428 C 299.023 80.654,298.667 80.877,298.667 80.923 C 298.667 80.968,299.042 80.816,299.500 80.583 C 299.958 80.351,300.333 80.125,300.333 80.081 C 300.333 79.970,300.348 79.964,299.458 80.428 M247.792 80.595 C 247.169 80.933,247.207 81.074,247.833 80.750 C 248.108 80.608,248.333 80.456,248.333 80.412 C 248.333 80.305,248.315 80.311,247.792 80.595 M287.500 80.413 C 287.500 80.525,288.663 81.100,289.167 81.238 C 289.396 81.300,289.133 81.124,288.583 80.846 C 287.491 80.294,287.500 80.298,287.500 80.413 M195.356 80.939 C 195.047 81.073,194.834 81.223,194.882 81.270 C 194.929 81.318,195.257 81.205,195.609 81.019 C 196.348 80.630,196.184 80.577,195.356 80.939 M222.917 81.333 C 223.059 81.608,223.213 81.833,223.259 81.833 C 223.304 81.833,223.226 81.608,223.083 81.333 C 222.941 81.058,222.787 80.833,222.741 80.833 C 222.696 80.833,222.774 81.058,222.917 81.333 M273.654 81.583 C 274.757 83.516,277.219 86.330,278.675 87.321 C 279.007 87.547,278.864 87.368,278.338 86.898 C 276.745 85.473,275.445 84.014,274.456 82.539 C 273.384 80.940,273.080 80.579,273.654 81.583 M65.583 81.478 C 67.202 82.215,68.229 84.215,67.852 85.897 C 67.031 89.568,62.297 90.307,60.395 87.062 C 58.507 83.840,62.154 79.916,65.583 81.478 M316.575 81.682 C 316.429 81.966,316.338 82.227,316.375 82.263 C 316.411 82.300,316.565 82.068,316.717 81.748 C 317.060 81.029,316.941 80.974,316.575 81.682 M187.000 81.500 C 187.137 81.589,187.362 81.662,187.500 81.662 C 187.722 81.662,187.722 81.644,187.500 81.500 C 187.362 81.411,187.137 81.338,187.000 81.338 C 186.778 81.338,186.778 81.356,187.000 81.500 M193.833 81.500 C 193.502 81.714,193.918 81.714,194.417 81.500 L 194.750 81.357 194.417 81.348 C 194.233 81.343,193.971 81.411,193.833 81.500 M297.000 81.500 C 296.778 81.644,296.778 81.662,297.000 81.662 C 297.137 81.662,297.362 81.589,297.500 81.500 C 297.722 81.356,297.722 81.338,297.500 81.338 C 297.362 81.338,297.137 81.411,297.000 81.500 M261.265 82.458 C 260.850 83.105,260.791 83.254,261.084 82.917 C 261.508 82.428,262.072 81.500,261.945 81.500 C 261.909 81.500,261.604 81.931,261.265 82.458 M188.167 81.833 C 188.396 81.907,188.733 81.967,188.917 81.967 C 189.181 81.967,189.163 81.939,188.833 81.833 C 188.604 81.760,188.267 81.700,188.083 81.700 C 187.819 81.700,187.837 81.728,188.167 81.833 M192.333 81.833 L 191.917 81.967 192.333 81.967 C 192.563 81.967,192.938 81.907,193.167 81.833 L 193.583 81.700 193.167 81.700 C 192.938 81.700,192.563 81.760,192.333 81.833 M239.917 81.833 C 240.100 81.912,240.438 81.974,240.667 81.972 L 241.083 81.967 240.667 81.833 C 240.438 81.760,240.100 81.698,239.917 81.695 L 239.583 81.690 239.917 81.833 M244.333 81.833 C 244.003 81.939,243.986 81.967,244.250 81.967 C 244.433 81.967,244.771 81.907,245.000 81.833 C 245.330 81.728,245.347 81.700,245.083 81.700 C 244.900 81.700,244.563 81.760,244.333 81.833 M291.083 81.833 C 291.267 81.912,291.604 81.974,291.833 81.972 L 292.250 81.967 291.833 81.833 C 291.604 81.760,291.267 81.698,291.083 81.695 L 290.750 81.690 291.083 81.833 M295.583 81.833 C 295.159 82.016,295.597 82.016,296.167 81.833 C 296.502 81.726,296.518 81.699,296.250 81.695 C 296.067 81.692,295.767 81.755,295.583 81.833 M171.350 82.875 C 171.796 83.759,173.036 85.520,173.439 85.842 C 173.605 85.975,173.472 85.746,173.142 85.333 C 172.813 84.921,172.222 84.040,171.829 83.375 C 171.034 82.031,170.803 81.790,171.350 82.875 M308.005 82.500 C 308.005 82.637,308.078 82.862,308.167 83.000 C 308.310 83.222,308.328 83.222,308.328 83.000 C 308.328 82.862,308.256 82.637,308.167 82.500 C 308.023 82.278,308.005 82.278,308.005 82.500 M316.095 82.929 C 316.034 83.173,316.016 83.405,316.055 83.444 C 316.094 83.483,316.177 83.316,316.238 83.071 C 316.299 82.827,316.317 82.595,316.278 82.556 C 316.239 82.517,316.157 82.684,316.095 82.929 M362.044 83.194 C 361.472 83.469,360.347 83.833,359.544 84.002 C 358.741 84.171,358.310 84.315,358.587 84.322 C 359.574 84.345,363.167 83.110,363.167 82.747 C 363.167 82.646,363.261 82.608,362.044 83.194 M224.355 83.500 C 225.622 85.455,231.265 90.123,231.762 89.627 C 231.809 89.580,231.450 89.337,230.965 89.085 C 228.912 88.023,226.284 85.770,224.447 83.497 L 223.978 82.917 224.355 83.500 M330.038 84.750 C 330.037 85.981,330.061 86.126,330.173 85.558 C 330.249 85.177,330.249 84.502,330.175 84.058 C 330.055 83.345,330.039 83.426,330.038 84.750 M259.812 84.383 C 258.253 86.273,255.223 88.644,253.255 89.515 C 252.361 89.911,252.229 90.118,253.104 89.752 C 255.364 88.808,258.937 85.956,260.362 83.958 C 260.905 83.198,260.588 83.442,259.812 84.383 M315.885 84.750 C 315.886 85.300,315.917 85.505,315.954 85.205 C 315.991 84.906,315.990 84.456,315.952 84.205 C 315.914 83.955,315.884 84.200,315.885 84.750 M338.333 83.944 C 338.333 84.668,341.170 88.091,342.502 88.973 C 342.959 89.275,342.924 89.221,342.340 88.720 C 340.955 87.533,339.979 86.421,339.155 85.090 C 338.703 84.361,338.333 83.845,338.333 83.944 M355.880 84.456 C 356.318 84.490,356.993 84.490,357.380 84.455 C 357.767 84.420,357.408 84.392,356.583 84.392 C 355.758 84.393,355.442 84.422,355.880 84.456 M308.083 85.500 C 308.021 85.697,308.007 85.896,308.053 85.942 C 308.099 85.988,308.187 85.864,308.250 85.667 C 308.313 85.470,308.326 85.271,308.280 85.225 C 308.235 85.179,308.146 85.303,308.083 85.500 M211.524 86.333 C 211.508 86.563,211.454 86.938,211.403 87.167 C 211.323 87.526,211.336 87.542,211.499 87.288 C 211.602 87.126,211.657 86.751,211.620 86.455 C 211.568 86.036,211.547 86.009,211.524 86.333 M316.003 86.264 C 316.004 86.440,316.081 86.696,316.174 86.833 C 316.298 87.016,316.313 86.948,316.232 86.583 C 316.095 85.971,315.999 85.837,316.003 86.264 M174.250 86.816 C 175.390 88.041,178.377 90.178,178.616 89.940 C 178.670 89.886,178.572 89.789,178.399 89.725 C 177.801 89.505,175.694 88.008,174.640 87.055 C 173.846 86.337,173.749 86.278,174.250 86.816 M200.336 86.681 C 200.337 86.994,200.413 87.362,200.505 87.500 C 200.621 87.675,200.639 87.524,200.563 87.000 C 200.427 86.066,200.333 85.933,200.336 86.681 M307.586 86.625 C 307.429 86.877,306.990 87.372,306.609 87.724 C 306.025 88.265,306.001 88.308,306.459 88.004 C 306.938 87.685,307.555 86.989,307.902 86.375 C 308.135 85.963,307.865 86.177,307.586 86.625 M376.439 86.814 C 376.375 87.216,376.357 87.580,376.400 87.623 C 376.512 87.735,376.715 86.560,376.628 86.301 C 376.588 86.182,376.503 86.413,376.439 86.814 M198.333 87.530 C 197.646 88.181,197.308 88.559,197.583 88.370 C 198.064 88.039,199.818 86.326,199.660 86.341 C 199.618 86.344,199.021 86.880,198.333 87.530 M329.833 86.535 C 329.833 86.677,329.583 87.290,329.278 87.897 C 328.656 89.133,328.635 89.308,329.222 88.375 C 329.677 87.652,330.079 86.523,329.933 86.378 C 329.878 86.323,329.833 86.394,329.833 86.535 M363.776 88.004 C 363.148 88.543,362.084 89.267,361.411 89.613 C 360.738 89.960,360.213 90.269,360.244 90.300 C 360.468 90.523,363.684 88.455,364.573 87.517 C 365.288 86.762,365.063 86.899,363.776 88.004 M279.467 87.870 C 279.734 88.201,281.681 89.374,281.787 89.268 C 281.830 89.226,281.614 89.063,281.307 88.906 C 281.001 88.748,280.412 88.391,280.000 88.111 C 279.587 87.831,279.348 87.722,279.467 87.870 M200.667 87.897 C 200.667 88.076,201.163 89.000,201.259 89.000 C 201.304 89.000,201.218 88.756,201.066 88.458 C 200.757 87.850,200.667 87.723,200.667 87.897 M210.537 88.973 C 210.145 89.570,209.985 89.915,210.180 89.738 C 210.551 89.402,211.419 88.021,211.312 87.936 C 211.278 87.908,210.929 88.375,210.537 88.973 M375.953 88.411 C 375.802 88.727,375.398 89.307,375.054 89.701 C 374.468 90.372,374.463 90.385,374.979 89.917 C 375.537 89.410,376.435 88.046,376.300 87.911 C 376.260 87.871,376.103 88.096,375.953 88.411 M316.854 88.333 C 317.125 88.907,317.803 89.703,318.500 90.266 C 318.898 90.587,318.791 90.421,318.164 89.743 C 317.659 89.197,317.113 88.563,316.951 88.333 L 316.657 87.917 316.854 88.333 M365.674 88.188 C 365.632 88.783,366.899 90.362,367.781 90.814 C 368.469 91.166,368.398 90.999,367.658 90.525 C 366.785 89.966,366.493 89.649,366.027 88.750 C 365.837 88.383,365.678 88.130,365.674 88.188 M397.845 89.064 C 397.647 89.384,397.208 89.884,396.868 90.176 L 396.250 90.706 396.830 90.292 C 397.492 89.821,398.437 88.715,398.298 88.575 C 398.246 88.524,398.043 88.744,397.845 89.064 M195.978 89.305 C 194.423 90.319,194.385 90.352,195.250 89.928 C 195.963 89.578,197.250 88.665,197.000 88.686 C 196.954 88.689,196.494 88.968,195.978 89.305 M303.750 89.508 C 302.035 90.447,301.955 90.615,303.629 89.764 C 304.633 89.253,305.554 88.669,305.333 88.682 C 305.287 88.685,304.575 89.057,303.750 89.508 M201.833 89.728 C 202.154 90.076,202.567 90.440,202.750 90.536 C 202.933 90.633,203.046 90.677,203.000 90.634 C 201.934 89.643,201.304 89.153,201.833 89.728 M282.000 89.405 C 282.000 89.529,283.862 90.361,283.947 90.275 C 283.982 90.240,283.614 90.034,283.130 89.816 C 282.646 89.599,282.194 89.395,282.125 89.363 C 282.056 89.331,282.000 89.350,282.000 89.405 M343.167 89.400 C 343.167 89.525,344.669 90.386,344.748 90.307 C 344.785 90.271,344.444 90.032,343.991 89.777 C 343.538 89.523,343.167 89.353,343.167 89.400 M232.000 89.748 C 232.000 89.835,233.140 90.338,233.312 90.326 C 233.446 90.317,232.292 89.683,232.125 89.674 C 232.056 89.670,232.000 89.703,232.000 89.748 M193.522 90.605 C 193.214 90.740,193.000 90.889,193.048 90.937 C 193.141 91.029,194.167 90.548,194.167 90.412 C 194.167 90.318,194.214 90.304,193.522 90.605 M284.333 90.500 C 284.471 90.589,284.696 90.662,284.833 90.662 C 285.056 90.662,285.056 90.644,284.833 90.500 C 284.696 90.411,284.471 90.338,284.333 90.338 C 284.111 90.338,284.111 90.356,284.333 90.500 M373.333 90.853 C 372.829 91.111,372.478 91.325,372.552 91.328 C 372.827 91.339,374.333 90.621,374.333 90.479 C 374.333 90.399,374.315 90.345,374.292 90.358 C 374.269 90.372,373.837 90.594,373.333 90.853 M180.333 90.833 C 180.471 90.922,180.696 90.995,180.833 90.995 C 181.056 90.995,181.056 90.977,180.833 90.833 C 180.696 90.744,180.471 90.672,180.333 90.672 C 180.111 90.672,180.111 90.690,180.333 90.833 M203.167 90.772 C 203.167 90.885,204.356 91.366,204.436 91.286 C 204.473 91.249,204.203 91.100,203.835 90.956 C 203.467 90.812,203.167 90.729,203.167 90.772 M285.333 90.833 C 285.471 90.922,285.696 90.995,285.833 90.995 C 286.056 90.995,286.056 90.977,285.833 90.833 C 285.696 90.744,285.471 90.672,285.333 90.672 C 285.111 90.672,285.111 90.690,285.333 90.833 M300.667 90.833 C 300.444 90.977,300.444 90.995,300.667 90.995 C 300.804 90.995,301.029 90.922,301.167 90.833 C 301.389 90.690,301.389 90.672,301.167 90.672 C 301.029 90.672,300.804 90.744,300.667 90.833 M319.167 90.748 C 319.167 90.862,320.187 91.368,320.263 91.292 C 320.300 91.256,320.068 91.102,319.748 90.949 C 319.428 90.797,319.167 90.706,319.167 90.748 M358.667 90.833 C 358.444 90.977,358.444 90.995,358.667 90.995 C 358.804 90.995,359.029 90.922,359.167 90.833 C 359.389 90.690,359.389 90.672,359.167 90.672 C 359.029 90.672,358.804 90.744,358.667 90.833 M192.083 91.167 C 191.873 91.257,191.842 91.310,192.000 91.310 C 192.137 91.310,192.400 91.245,192.583 91.167 C 192.793 91.076,192.824 91.023,192.667 91.023 C 192.529 91.023,192.267 91.088,192.083 91.167 M207.500 91.167 C 207.278 91.310,207.278 91.328,207.500 91.328 C 207.637 91.328,207.862 91.256,208.000 91.167 C 208.222 91.023,208.222 91.005,208.000 91.005 C 207.862 91.005,207.637 91.078,207.500 91.167 M235.750 91.167 C 235.933 91.245,236.196 91.310,236.333 91.310 C 236.491 91.310,236.460 91.257,236.250 91.167 C 236.067 91.088,235.804 91.023,235.667 91.023 C 235.509 91.023,235.540 91.076,235.750 91.167 M248.750 91.167 C 248.540 91.257,248.509 91.310,248.667 91.310 C 248.804 91.310,249.067 91.245,249.250 91.167 C 249.460 91.076,249.491 91.023,249.333 91.023 C 249.196 91.023,248.933 91.088,248.750 91.167 M286.417 91.167 C 286.600 91.245,286.862 91.310,287.000 91.310 C 287.158 91.310,287.127 91.257,286.917 91.167 C 286.733 91.088,286.471 91.023,286.333 91.023 C 286.176 91.023,286.207 91.076,286.417 91.167 M346.667 91.167 C 346.804 91.256,347.029 91.328,347.167 91.328 C 347.389 91.328,347.389 91.310,347.167 91.167 C 347.029 91.078,346.804 91.005,346.667 91.005 C 346.444 91.005,346.444 91.023,346.667 91.167 M357.583 91.167 L 357.250 91.310 357.583 91.319 C 357.767 91.324,358.029 91.256,358.167 91.167 C 358.498 90.953,358.082 90.953,357.583 91.167 M391.333 91.167 C 391.471 91.256,391.696 91.328,391.833 91.328 C 392.056 91.328,392.056 91.310,391.833 91.167 C 391.696 91.078,391.471 91.005,391.333 91.005 C 391.111 91.005,391.111 91.023,391.333 91.167 M394.833 91.167 C 394.611 91.310,394.611 91.328,394.833 91.328 C 394.971 91.328,395.196 91.256,395.333 91.167 C 395.556 91.023,395.556 91.005,395.333 91.005 C 395.196 91.005,394.971 91.078,394.833 91.167 M182.583 91.500 C 182.767 91.579,183.029 91.643,183.167 91.643 C 183.324 91.643,183.293 91.590,183.083 91.500 C 182.900 91.421,182.637 91.357,182.500 91.357 C 182.342 91.357,182.373 91.410,182.583 91.500 M190.917 91.500 L 190.583 91.643 190.917 91.652 C 191.100 91.657,191.362 91.589,191.500 91.500 C 191.831 91.286,191.415 91.286,190.917 91.500 M205.461 91.454 C 205.761 91.491,206.211 91.490,206.461 91.452 C 206.712 91.414,206.467 91.384,205.917 91.385 C 205.367 91.386,205.162 91.417,205.461 91.454 M237.083 91.500 C 237.267 91.579,237.567 91.641,237.750 91.638 C 238.018 91.634,238.002 91.607,237.667 91.500 C 237.097 91.317,236.659 91.317,237.083 91.500 M247.167 91.500 L 246.750 91.633 247.167 91.638 C 247.396 91.641,247.733 91.579,247.917 91.500 L 248.250 91.357 247.917 91.362 C 247.733 91.364,247.396 91.427,247.167 91.500 M287.750 91.492 C 288.070 91.637,288.963 91.732,288.819 91.605 C 288.781 91.572,288.450 91.499,288.083 91.443 C 287.619 91.372,287.518 91.387,287.750 91.492 M298.000 91.500 C 297.670 91.606,297.653 91.633,297.917 91.633 C 298.100 91.633,298.438 91.573,298.667 91.500 C 298.997 91.394,299.014 91.367,298.750 91.367 C 298.567 91.367,298.229 91.427,298.000 91.500 M347.750 91.500 C 347.933 91.579,348.233 91.641,348.417 91.638 C 348.685 91.634,348.668 91.607,348.333 91.500 C 347.763 91.317,347.325 91.317,347.750 91.500 M356.250 91.500 L 355.917 91.643 356.250 91.652 C 356.433 91.657,356.696 91.589,356.833 91.500 C 357.165 91.286,356.748 91.286,356.250 91.500 M370.129 91.456 C 370.521 91.491,371.121 91.490,371.463 91.454 C 371.804 91.419,371.483 91.390,370.750 91.390 C 370.017 91.391,369.737 91.420,370.129 91.456 M392.875 91.453 C 393.127 91.491,393.540 91.491,393.792 91.453 C 394.044 91.415,393.837 91.383,393.333 91.383 C 392.829 91.383,392.623 91.415,392.875 91.453 M184.250 91.825 C 184.757 91.962,186.280 92.053,186.153 91.937 C 186.115 91.903,185.558 91.833,184.917 91.781 C 184.181 91.723,183.935 91.739,184.250 91.825 M188.833 91.833 L 188.083 91.950 188.750 91.958 C 189.117 91.963,189.604 91.907,189.833 91.833 C 190.360 91.665,189.918 91.665,188.833 91.833 M239.083 91.828 C 239.584 91.961,241.450 92.054,241.319 91.939 C 241.281 91.906,240.650 91.837,239.917 91.787 C 239.127 91.733,238.787 91.750,239.083 91.828 M244.417 91.833 L 243.417 91.944 244.417 91.952 C 244.967 91.957,245.642 91.903,245.917 91.833 L 246.417 91.706 245.917 91.714 C 245.642 91.719,244.967 91.772,244.417 91.833 M289.833 91.833 C 290.241 91.964,292.290 92.059,292.153 91.940 C 292.115 91.907,291.483 91.839,290.750 91.789 C 289.981 91.737,289.593 91.755,289.833 91.833 M295.417 91.833 L 294.583 91.948 295.417 91.954 C 295.875 91.958,296.475 91.903,296.750 91.833 L 297.250 91.706 296.750 91.713 C 296.475 91.716,295.875 91.770,295.417 91.833 M321.725 91.872 C 321.963 92.024,323.980 92.017,324.369 91.863 C 324.526 91.801,323.952 91.750,323.094 91.750 C 322.235 91.750,321.619 91.805,321.725 91.872 M349.333 91.833 C 349.563 91.907,350.012 91.966,350.333 91.964 L 350.917 91.962 350.250 91.824 C 349.360 91.640,348.748 91.646,349.333 91.833 M354.000 91.833 L 353.250 91.950 353.917 91.955 C 354.283 91.958,354.808 91.903,355.083 91.833 C 355.750 91.664,355.091 91.664,354.000 91.833 M83.750 107.674 C 75.619 108.748,72.161 118.588,77.880 124.381 C 83.204 129.774,91.981 127.735,94.448 120.531 C 96.740 113.841,90.831 106.740,83.750 107.674 M44.181 113.728 C 46.889 114.696,47.701 118.129,45.729 120.269 C 44.060 122.080,40.898 121.808,39.526 119.737 C 37.416 116.552,40.596 112.447,44.181 113.728 M86.758 113.880 C 90.256 115.710,89.357 121.048,85.483 121.445 C 80.684 121.936,79.114 115.411,83.627 113.727 C 84.394 113.440,86.074 113.523,86.758 113.880 " stroke="none" fill="#de5c84" fill-rule="evenodd"></path><path id="path3" d="M40.742 0.139 C 40.655 0.215,40.246 0.373,39.833 0.490 C 37.644 1.113,35.199 3.143,34.142 5.216 C 28.992 15.310,41.831 24.813,49.840 16.835 C 56.143 10.557,51.679 0.000,42.722 0.000 C 41.720 0.000,40.829 0.062,40.742 0.139 M82.742 0.146 C 82.655 0.227,82.199 0.417,81.730 0.569 C 75.701 2.524,73.231 9.723,76.670 15.313 C 77.292 16.324,77.290 16.377,76.595 17.404 C 76.281 17.870,74.050 21.290,71.637 25.006 C 69.224 28.722,67.091 31.979,66.896 32.246 L 66.542 32.730 64.978 32.525 C 60.522 31.942,56.002 34.788,54.576 39.073 C 51.907 47.100,59.868 54.559,67.736 51.403 C 68.764 50.991,71.085 49.285,71.382 48.723 C 71.472 48.555,71.710 48.229,71.911 48.000 C 74.318 45.265,74.418 40.287,72.135 36.887 C 71.495 35.935,71.497 35.930,72.972 33.712 C 73.690 32.633,74.713 31.075,75.245 30.250 C 76.329 28.567,76.546 28.233,79.143 24.250 C 80.159 22.692,81.259 21.021,81.588 20.538 L 82.187 19.658 84.135 19.756 C 93.585 20.230,98.552 9.414,91.880 2.888 C 90.922 1.951,88.972 0.667,88.507 0.667 C 88.402 0.667,88.007 0.517,87.627 0.333 C 86.888 -0.024,83.084 -0.170,82.742 0.146 M44.643 6.321 C 47.867 7.966,47.475 12.651,44.017 13.810 C 40.058 15.137,36.973 9.753,40.112 6.997 C 41.310 5.945,43.319 5.646,44.643 6.321 M86.822 6.328 C 89.954 7.925,89.576 12.408,86.204 13.670 C 83.665 14.620,81.416 13.112,80.922 10.127 C 80.452 7.284,84.096 4.937,86.822 6.328 M65.262 38.411 C 69.574 40.213,68.416 46.333,63.763 46.333 C 60.355 46.333,58.552 41.968,60.933 39.483 C 61.968 38.403,64.024 37.894,65.262 38.411 " stroke="none" fill="#0db8ce" fill-rule="evenodd"></path><path id="path4" d="M116.250 32.941 C 112.957 33.627,109.593 36.131,108.999 38.339 C 108.900 38.705,108.675 39.250,108.498 39.549 C 108.120 40.190,108.103 40.506,108.326 42.889 C 108.515 44.910,108.711 45.772,109.180 46.648 C 109.356 46.976,109.500 47.342,109.500 47.460 C 109.500 47.578,109.689 47.747,109.920 47.834 C 110.150 47.922,110.416 48.195,110.509 48.441 C 110.675 48.878,112.403 50.667,112.658 50.667 C 112.729 50.667,113.228 50.890,113.768 51.164 C 114.308 51.437,115.125 51.743,115.583 51.844 C 116.042 51.945,116.642 52.111,116.917 52.213 C 117.665 52.490,119.174 52.388,120.353 51.980 C 120.929 51.781,121.603 51.624,121.851 51.631 C 122.099 51.638,122.432 51.501,122.590 51.326 C 122.748 51.151,123.205 50.850,123.604 50.656 C 126.642 49.186,128.567 43.877,127.435 40.092 C 125.996 35.281,120.841 31.985,116.250 32.941 M119.254 39.001 C 122.011 39.950,122.753 43.288,120.713 45.567 C 120.418 45.897,120.100 46.167,120.005 46.167 C 119.911 46.167,119.833 46.235,119.833 46.319 C 119.833 46.666,116.095 46.938,115.827 46.610 C 115.740 46.504,115.397 46.080,115.064 45.668 C 114.731 45.256,114.318 44.821,114.146 44.700 C 113.347 44.141,113.991 40.615,115.033 39.844 C 116.611 38.677,117.687 38.462,119.254 39.001 M83.385 53.996 C 83.001 54.079,82.513 54.257,82.302 54.393 C 82.090 54.528,81.608 54.721,81.231 54.820 C 79.364 55.312,76.794 58.032,76.394 59.940 C 76.271 60.529,76.019 61.322,75.835 61.703 C 75.493 62.411,75.367 64.065,75.643 64.235 C 75.722 64.284,75.836 64.743,75.896 65.255 C 75.961 65.808,76.245 66.661,76.597 67.360 C 76.922 68.007,77.154 68.627,77.111 68.739 C 77.068 68.850,77.276 69.073,77.573 69.233 C 77.893 69.405,78.227 69.783,78.394 70.160 C 78.568 70.556,78.855 70.871,79.154 70.995 C 79.418 71.104,79.804 71.375,80.013 71.597 C 80.221 71.819,80.508 72.000,80.651 72.000 C 80.793 72.000,81.352 72.273,81.893 72.606 C 83.477 73.584,86.453 73.811,88.106 73.080 C 88.621 72.853,89.204 72.667,89.403 72.667 C 89.603 72.667,90.174 72.406,90.674 72.088 C 91.926 71.290,91.903 71.285,94.268 72.935 C 94.808 73.312,95.419 73.673,95.625 73.738 C 95.831 73.803,96.000 73.925,96.000 74.010 C 96.000 74.095,96.257 74.296,96.570 74.457 C 96.884 74.618,97.915 75.269,98.862 75.903 C 101.375 77.586,105.710 80.360,106.000 80.471 C 106.138 80.523,106.438 80.740,106.667 80.952 C 106.896 81.164,107.233 81.385,107.416 81.443 C 108.053 81.645,108.131 81.972,108.052 84.100 C 107.917 87.737,108.843 89.813,111.833 92.575 C 114.600 95.130,120.303 95.219,123.652 92.760 C 131.443 87.042,127.429 74.854,117.749 74.836 C 116.204 74.833,114.433 75.279,113.476 75.913 C 113.126 76.144,112.783 76.335,112.712 76.337 C 112.641 76.339,112.396 76.487,112.167 76.667 C 111.578 77.127,111.596 77.133,109.433 75.750 C 108.358 75.063,107.333 74.500,107.156 74.500 C 106.978 74.500,106.833 74.406,106.832 74.292 C 106.832 74.177,105.558 73.258,104.002 72.250 C 102.446 71.242,99.991 69.651,98.545 68.715 C 97.099 67.778,95.767 66.906,95.583 66.775 C 95.276 66.557,95.249 66.342,95.240 64.061 C 95.212 57.371,89.656 52.654,83.385 53.996 M87.126 60.126 C 90.224 61.741,90.178 65.937,87.045 67.424 C 85.879 67.977,82.833 67.618,82.833 66.927 C 82.833 66.799,82.766 66.669,82.683 66.639 C 81.805 66.315,80.534 62.836,81.292 62.833 C 81.360 62.832,81.551 62.506,81.714 62.108 C 82.555 60.063,85.169 59.106,87.126 60.126 M120.073 81.402 C 123.386 83.684,121.879 88.649,117.869 88.663 C 113.489 88.678,112.272 82.956,116.250 81.048 C 117.493 80.452,118.880 80.580,120.073 81.402 " stroke="none" fill="#f5894d" fill-rule="evenodd"></path><path id="path5" d="M34.250 15.000 C 34.392 15.275,34.546 15.500,34.592 15.500 C 34.638 15.500,34.559 15.275,34.417 15.000 C 34.274 14.725,34.121 14.500,34.075 14.500 C 34.029 14.500,34.108 14.725,34.250 15.000 M35.275 16.380 C 35.536 16.681,35.975 17.107,36.250 17.325 C 36.525 17.544,36.340 17.298,35.839 16.778 C 34.837 15.739,34.531 15.523,35.275 16.380 M8.083 32.992 C 4.998 33.508,1.839 36.155,0.715 39.167 C 0.053 40.937,-0.026 41.394,0.045 43.000 C 0.395 50.923,9.096 55.297,15.603 50.820 L 16.323 50.324 17.703 51.220 C 18.462 51.713,20.246 52.867,21.667 53.784 C 23.087 54.701,25.750 56.425,27.583 57.615 C 29.417 58.806,31.349 60.054,31.877 60.389 L 32.838 60.999 32.710 61.708 C 30.699 72.933,46.117 78.386,51.208 68.250 C 52.175 66.323,52.424 65.116,52.284 63.030 C 51.771 55.435,42.552 51.073,36.715 55.664 C 36.103 56.146,36.037 56.125,33.964 54.780 C 32.930 54.109,31.033 52.882,29.750 52.053 C 18.175 44.577,19.577 45.731,19.787 43.854 C 20.526 37.234,14.753 31.876,8.083 32.992 M56.906 35.208 L 56.417 35.750 56.958 35.260 C 57.463 34.804,57.577 34.667,57.448 34.667 C 57.419 34.667,57.175 34.910,56.906 35.208 M63.960 38.285 C 64.168 38.324,64.468 38.323,64.627 38.281 C 64.786 38.239,64.617 38.207,64.250 38.209 C 63.883 38.211,63.753 38.245,63.960 38.285 M11.797 39.148 C 15.539 41.057,14.198 46.747,10.010 46.731 C 5.327 46.713,4.369 40.276,8.832 38.812 C 9.504 38.592,11.051 38.767,11.797 39.148 M60.906 39.542 L 60.417 40.083 60.958 39.594 C 61.463 39.138,61.577 39.000,61.448 39.000 C 61.419 39.000,61.175 39.244,60.906 39.542 M59.695 42.333 C 59.703 42.766,59.966 43.478,59.972 43.083 C 59.974 42.900,59.912 42.600,59.833 42.417 C 59.746 42.212,59.692 42.180,59.695 42.333 M54.003 43.847 C 54.004 44.069,54.079 44.362,54.169 44.500 C 54.284 44.676,54.301 44.577,54.226 44.167 C 54.094 43.448,53.999 43.312,54.003 43.847 M54.344 45.120 C 54.331 45.369,55.114 47.167,55.235 47.167 C 55.283 47.167,55.167 46.810,54.978 46.375 C 54.789 45.940,54.571 45.433,54.494 45.250 C 54.417 45.067,54.350 45.008,54.344 45.120 M71.887 48.042 C 71.702 48.248,71.490 48.529,71.417 48.667 C 71.276 48.932,71.315 48.896,71.990 48.125 C 72.211 47.873,72.354 47.667,72.308 47.667 C 72.262 47.667,72.073 47.835,71.887 48.042 M56.917 49.333 C 57.368 49.792,57.775 50.167,57.821 50.167 C 57.867 50.167,57.535 49.792,57.083 49.333 C 56.632 48.875,56.225 48.500,56.179 48.500 C 56.133 48.500,56.465 48.875,56.917 49.333 M61.000 51.826 C 61.137 51.919,61.394 51.996,61.569 51.997 C 61.996 52.001,61.863 51.905,61.250 51.768 C 60.885 51.687,60.817 51.702,61.000 51.826 M64.875 52.115 C 65.035 52.157,65.298 52.157,65.458 52.115 C 65.619 52.073,65.487 52.039,65.167 52.039 C 64.846 52.039,64.715 52.073,64.875 52.115 M199.900 53.437 C 200.138 53.709,200.500 53.629,200.500 53.303 C 200.500 53.181,200.432 53.183,200.279 53.309 C 200.135 53.429,199.991 53.436,199.862 53.330 C 199.754 53.241,199.771 53.289,199.900 53.437 M43.945 60.011 C 48.040 61.760,46.872 67.688,42.432 67.688 C 40.578 67.688,39.189 66.716,38.581 64.994 C 37.444 61.771,40.789 58.663,43.945 60.011 M7.606 75.087 C 4.280 75.929,1.492 78.543,0.499 81.750 C 0.385 82.117,0.227 82.547,0.146 82.706 C -0.148 83.289,-0.020 86.116,0.354 87.298 C 3.696 97.851,18.449 96.604,19.824 85.654 C 20.639 79.165,14.039 73.457,7.606 75.087 M11.580 81.016 C 15.000 82.623,14.678 87.518,11.083 88.592 C 7.278 89.728,4.357 85.072,6.945 81.996 C 7.983 80.763,10.093 80.317,11.580 81.016 M199.901 86.039 C 199.659 86.322,199.651 86.358,199.868 86.191 C 200.024 86.070,200.229 86.019,200.324 86.078 C 200.427 86.141,200.456 86.080,200.397 85.925 C 200.271 85.598,200.279 85.596,199.901 86.039 M365.085 86.831 C 365.027 86.924,365.054 87.000,365.145 87.000 C 365.235 87.000,365.343 87.131,365.385 87.292 C 365.444 87.517,365.466 87.500,365.481 87.218 C 365.502 86.814,365.249 86.566,365.085 86.831 " stroke="none" fill="#725efb" fill-rule="evenodd"></path></g></svg>