<svg version="1.1" id="Layer_1" xmlns="http://www.w3.org/2000/svg" xmlns:xlink="http://www.w3.org/1999/xlink" x="0px" y="0px"
	 width="100%" viewBox="0 0 992 404" enable-background="new 0 0 992 404" xml:space="preserve">
<path fill="#FFFFFF" opacity="1.000000" stroke="none" 
	d="
M717.000000,405.000000 
	C608.312439,405.000000 499.624878,405.000000 390.684509,404.691528 
	C402.670044,401.990265 411.717926,395.415405 417.373779,383.821228 
	C427.858978,361.612122 426.243744,338.891907 421.821777,315.623596 
	C421.188782,312.834167 420.535400,310.419098 419.901428,307.616882 
	C414.325378,286.808655 405.385468,268.255188 389.272003,253.942688 
	C367.958130,235.011032 342.790314,235.219498 322.096893,254.779221 
	C315.854340,260.679749 310.696655,267.728088 304.691589,274.186554 
	C296.022430,266.021881 288.450378,256.922638 279.229675,250.028366 
	C259.985291,235.639496 236.186523,236.475540 217.246033,251.311829 
	C199.671967,265.077820 189.687836,283.804474 183.494263,305.216675 
	C181.556198,314.661407 179.849152,323.828827 178.037109,333.410034 
	C176.413635,348.501740 176.361053,363.035370 182.196136,377.346344 
	C187.625107,390.994751 196.766052,400.193115 210.928192,403.912262 
	C211.663315,404.105286 212.311386,404.629822 213.000000,405.000000 
	C142.450165,405.000000 71.900345,405.000000 1.000000,405.000000 
	C1.000000,387.647339 1.000000,370.292328 1.468140,352.468628 
	C7.231203,351.999969 12.526126,351.999969 18.144466,351.999969 
	C18.144466,349.517487 18.144466,347.466431 18.144466,345.169891 
	C32.484329,357.558075 52.575783,354.208191 61.377552,338.914703 
	C66.161217,330.602905 67.272354,321.276947 65.062187,311.607727 
	C61.783161,297.262421 52.716972,289.093628 38.411942,288.108856 
	C30.830017,287.586884 23.908474,290.202148 17.788895,296.436523 
	C17.788895,286.678314 17.788895,277.941223 17.788895,269.000000 
	C11.949901,269.000000 6.474950,269.000000 1.000000,269.000000 
	C1.000000,248.979111 1.000000,228.958206 1.468657,208.468628 
	C50.168354,207.999954 98.399391,207.999954 146.793427,207.999954 
	C146.793427,195.509445 146.793427,183.447464 146.793427,170.843674 
	C111.424896,170.843674 76.258949,170.843674 41.000000,170.843674 
	C41.000000,113.867653 41.000000,57.433826 41.000000,1.000000 
	C84.687561,1.000000 128.375122,1.000000 172.531372,1.468657 
	C173.000046,70.537842 173.000046,139.138367 173.000046,207.726074 
	C221.941330,207.726074 270.345612,207.726074 318.719940,207.726074 
	C318.719940,195.378128 318.719940,183.306152 318.719940,170.833740 
	C283.368774,170.833740 248.295822,170.833740 213.000000,170.833740 
	C213.000000,113.952553 213.000000,57.476276 213.000000,1.000000 
	C318.687561,1.000000 424.375122,1.000000 530.531372,1.468657 
	C531.000000,70.514603 531.000000,139.091888 531.000000,207.766937 
	C544.535034,207.766937 557.601868,207.766937 571.042603,207.766937 
	C571.042603,158.526138 571.042603,109.516708 571.042603,59.529606 
	C576.356506,67.005264 581.000854,73.714203 585.823914,80.292099 
	C601.806152,102.089478 617.865295,123.830475 633.860718,145.618210 
	C636.130127,148.709488 643.028503,149.163528 645.359680,146.107117 
	C656.272095,131.799988 667.156128,117.470863 677.979919,103.096596 
	C688.453125,89.188103 698.840515,75.215004 710.086365,60.172363 
	C710.086365,110.260765 710.086365,159.054428 710.086365,207.679382 
	C723.712830,207.679382 736.781433,207.679382 750.000000,207.679382 
	C750.000000,138.572617 750.000000,69.786308 750.000000,1.000000 
	C785.354248,1.000000 820.708435,1.000000 856.443115,1.352565 
	C855.243896,4.682615 853.483276,7.579428 852.113708,10.650578 
	C842.839661,31.446968 833.708435,52.307133 824.409790,73.092438 
	C817.791626,87.886177 810.912842,102.563232 804.276917,117.349167 
	C792.981140,142.517929 781.777405,167.727951 770.553650,192.928955 
	C768.369507,197.833176 766.270508,202.775284 764.001953,207.999878 
	C777.970947,207.999878 791.297974,208.052948 804.623047,207.914490 
	C805.899109,207.901245 807.839600,207.017181 808.328125,205.992325 
	C813.640137,194.848328 818.988953,183.704620 823.684570,172.296112 
	C824.869690,169.416611 826.094482,168.971893 828.580322,168.979187 
	C843.074402,169.021652 857.568726,168.999969 872.062927,168.999969 
	C890.722168,168.999969 909.381531,169.021347 928.040649,168.975555 
	C930.664612,168.969116 932.085449,169.268890 933.371399,172.403763 
	C938.295776,184.407684 943.968384,196.104614 949.399963,208.000000 
	C964.023376,208.000000 978.511719,208.000000 993.000000,208.000000 
	C993.000000,233.354233 993.000000,258.708466 992.531372,284.531372 
	C984.135010,285.000031 976.207214,285.000031 967.843994,285.000031 
	C967.843994,289.543915 967.843994,293.571381 967.843994,298.034698 
	C964.585999,295.067047 962.049622,292.181976 958.982849,290.065338 
	C947.369812,282.050293 934.495728,280.509460 920.812805,282.934998 
	C900.257263,286.578796 887.063293,299.065735 880.631653,318.127350 
	C874.363159,336.705444 874.561401,355.812042 882.658203,373.978088 
	C887.982788,385.924408 896.330994,395.657379 909.071594,400.485138 
	C913.921570,402.322906 919.016663,403.514099 924.000000,405.000000 
	C898.979126,405.000000 873.958191,405.000000 848.638184,404.603027 
	C854.230164,403.565186 860.121277,402.924316 865.619751,402.326141 
	C865.619751,394.170502 865.619751,387.143799 865.619751,380.113495 
	C862.238403,380.760376 859.211731,381.889862 856.226379,381.789703 
	C850.905945,381.611206 845.309021,381.568359 840.374084,379.875732 
	C832.662964,377.230835 831.199951,369.896149 831.090149,362.816437 
	C830.816589,345.167358 830.993530,327.511230 831.013794,309.857941 
	C831.015259,308.601318 831.213135,307.344940 831.352783,305.698364 
	C843.108032,305.698364 854.509460,305.698364 865.623901,305.698364 
	C865.623901,298.533203 865.623901,291.797180 865.623901,284.833435 
	C853.969788,284.833435 842.690979,284.833435 830.991943,284.833435 
	C830.991943,273.526245 830.991943,262.457520 830.991943,251.227936 
	C822.169312,251.227936 813.772949,251.227936 804.952026,251.227936 
	C804.952026,262.515137 804.952026,273.583405 804.952026,285.068909 
	C797.132080,285.068909 789.725525,285.068909 782.261108,285.068909 
	C782.261108,292.230804 782.261108,298.961395 782.261108,306.117340 
	C789.918518,306.117340 797.323303,306.117340 805.000000,306.117340 
	C805.000000,324.002289 804.828857,341.462921 805.091980,358.916962 
	C805.184998,365.085052 805.793152,371.357391 807.119690,377.371796 
	C809.937012,390.145447 817.236389,399.287994 830.389404,402.688843 
	C834.516235,403.755859 838.792236,404.245880 843.000000,405.000000 
	C805.979126,405.000000 768.958191,405.000000 731.630615,404.608398 
	C747.455872,403.304382 761.349976,397.278137 773.611450,386.029724 
	C768.633789,379.977570 763.940247,374.270905 759.192383,368.498260 
	C745.519287,382.836487 723.136169,385.990173 709.001038,379.046661 
	C699.501709,374.380341 691.411926,364.183868 691.485901,352.877686 
	C719.548096,352.877686 747.615295,352.877686 777.076233,352.877686 
	C775.664062,342.006531 775.274292,331.453125 772.762390,321.431610 
	C768.958557,306.255890 760.494507,293.960754 745.769287,286.974365 
	C734.789124,281.764832 723.380005,281.082733 711.444885,282.903900 
	C689.348999,286.275482 675.588135,299.494019 668.162598,319.576050 
	C663.479614,332.241150 663.331238,345.530975 665.895996,358.965088 
	C669.612122,378.429932 685.081787,397.499817 705.082764,402.052063 
	C709.072144,402.960022 713.028442,404.013580 717.000000,405.000000 
M394.375641,60.951565 
	C381.319885,63.121475 370.356018,69.558472 361.087738,78.575310 
	C348.919128,90.413780 342.565857,105.618362 341.276978,122.158424 
	C340.011414,138.399643 340.044373,154.842697 346.905853,170.450943 
	C352.538879,183.264725 360.532684,193.840622 372.571136,201.092056 
	C385.532654,208.899490 399.633942,212.376816 414.781097,212.035065 
	C434.443848,211.591431 450.986328,205.014099 462.659149,188.612122 
	C463.173035,194.974686 463.693634,201.420486 464.199219,207.680237 
	C476.046692,207.680237 487.447906,207.680237 498.700684,207.680237 
	C498.700684,158.972900 498.700684,110.585747 498.700684,62.298794 
	C486.663910,62.298794 474.928589,62.298794 462.606232,62.298794 
	C462.606232,68.061844 462.606232,73.535828 462.606232,79.841927 
	C451.046173,64.993332 436.045288,58.929653 418.928894,58.195740 
	C411.018951,57.856579 403.018982,59.616306 394.375641,60.951565 
M476.000031,366.500000 
	C476.000031,378.260284 476.000031,390.020569 476.000031,401.682709 
	C485.008759,401.682709 493.409882,401.682709 502.275940,401.682709 
	C502.275940,362.752625 502.275940,324.138153 502.275940,284.482513 
	C505.266846,289.829437 507.701935,294.173737 510.128723,298.522705 
	C522.008667,319.812714 533.853149,341.122772 545.849792,362.346802 
	C546.549866,363.585297 548.446533,364.824310 549.834839,364.881348 
	C556.321960,365.147888 562.830383,365.120911 569.320679,364.895538 
	C570.596802,364.851227 572.369812,363.773865 572.997314,362.657776 
	C584.865417,341.549530 596.580688,320.355469 608.365967,299.200531 
	C610.965637,294.534058 613.711609,289.949097 616.390198,285.326569 
	C616.685669,285.428040 616.981140,285.529480 617.276611,285.630920 
	C617.276611,324.364227 617.276611,363.097534 617.276611,401.654724 
	C626.065735,401.654724 634.468323,401.654724 642.652954,401.654724 
	C642.652954,349.251587 642.652954,297.194183 642.652954,245.000168 
	C632.984314,245.000168 623.660217,244.902618 614.342651,245.104904 
	C612.937866,245.135406 610.928223,246.211777 610.268311,247.399063 
	C595.441956,274.070648 580.767578,300.826691 566.058167,327.563293 
	C564.097473,331.127136 562.102051,334.671936 560.057983,338.341675 
	C559.233398,337.623535 558.726746,337.368927 558.501953,336.959595 
	C549.256348,320.121704 540.060364,303.256592 530.804932,286.424164 
	C523.567627,273.261963 516.280212,260.127106 508.939270,247.022491 
	C508.459839,246.166626 507.340118,245.108826 506.505707,245.097855 
	C496.412323,244.965164 486.316620,245.011856 476.000031,245.011856 
	C476.000031,285.566528 476.000031,325.533264 476.000031,366.500000 
M81.555321,320.041870 
	C84.974693,328.515137 88.646576,336.900177 91.657120,345.516296 
	C92.541786,348.048218 92.280128,351.518127 91.288918,354.070892 
	C87.823456,362.995819 83.809471,371.707825 79.788078,380.999298 
	C85.352470,380.999298 90.473160,381.128906 95.577271,380.895752 
	C96.666565,380.845947 98.199951,379.708282 98.668724,378.679810 
	C101.260536,372.993713 103.580544,367.183899 106.004112,361.420898 
	C112.528305,345.906982 119.070656,330.400696 125.579979,314.880554 
	C129.132034,306.411438 132.631683,297.920319 136.295197,289.101501 
	C129.905426,289.101501 124.258202,289.101501 118.510857,289.101501 
	C113.354294,302.730499 108.208595,316.330750 102.799339,330.627625 
	C97.423149,316.105927 92.432877,302.626617 87.492828,289.282990 
	C81.306335,289.282990 75.241135,289.282990 68.715172,289.282990 
	C72.934067,299.602295 76.987831,309.517670 81.555321,320.041870 
z"/>
<path fill="#050708" opacity="1.000000" stroke="none" 
	d="
M749.531372,1.000000 
	C750.000000,69.786308 750.000000,138.572617 750.000000,207.679382 
	C736.781433,207.679382 723.712830,207.679382 710.086365,207.679382 
	C710.086365,159.054428 710.086365,110.260765 710.086365,60.172363 
	C698.840515,75.215004 688.453125,89.188103 677.979919,103.096596 
	C667.156128,117.470863 656.272095,131.799988 645.359680,146.107117 
	C643.028503,149.163528 636.130127,148.709488 633.860718,145.618210 
	C617.865295,123.830475 601.806152,102.089478 585.823914,80.292099 
	C581.000854,73.714203 576.356506,67.005264 571.042603,59.529606 
	C571.042603,109.516708 571.042603,158.526138 571.042603,207.766937 
	C557.601868,207.766937 544.535034,207.766937 531.000000,207.766937 
	C531.000000,139.091888 531.000000,70.514603 531.000000,1.468657 
	C546.020874,1.000000 561.041809,1.000000 576.609558,1.339849 
	C598.317017,30.667311 619.477661,59.654922 640.848450,88.930458 
	C646.828003,80.727028 652.905334,72.374397 658.998535,64.033356 
	C670.354553,48.488056 681.778198,32.991657 693.048767,17.384708 
	C696.892212,12.062512 700.360413,6.469377 704.000000,1.000008 
	C719.020874,1.000000 734.041809,1.000000 749.531372,1.000000 
z"/>
<path fill="#050708" opacity="1.000000" stroke="none" 
	d="
M993.000000,207.750000 
	C978.511719,208.000000 964.023376,208.000000 949.399963,208.000000 
	C943.968384,196.104614 938.295776,184.407684 933.371399,172.403763 
	C932.085449,169.268890 930.664612,168.969116 928.040649,168.975555 
	C909.381531,169.021347 890.722168,168.999969 872.062927,168.999969 
	C857.568726,168.999969 843.074402,169.021652 828.580322,168.979187 
	C826.094482,168.971893 824.869690,169.416611 823.684570,172.296112 
	C818.988953,183.704620 813.640137,194.848328 808.328125,205.992325 
	C807.839600,207.017181 805.899109,207.901245 804.623047,207.914490 
	C791.297974,208.052948 777.970947,207.999878 764.001953,207.999878 
	C766.270508,202.775284 768.369507,197.833176 770.553650,192.928955 
	C781.777405,167.727951 792.981140,142.517929 804.276917,117.349167 
	C810.912842,102.563232 817.791626,87.886177 824.409790,73.092438 
	C833.708435,52.307133 842.839661,31.446968 852.113708,10.650578 
	C853.483276,7.579428 855.243896,4.682615 856.911743,1.352565 
	C871.020874,1.000000 885.041809,1.000000 899.620300,1.353364 
	C903.049133,7.614021 906.084534,13.447943 908.762634,19.441532 
	C919.421265,43.296070 929.913696,67.224892 940.577087,91.077286 
	C947.188049,105.864983 954.035217,120.546906 960.706665,135.307816 
	C971.501282,159.191574 982.238525,183.101257 993.000000,207.000000 
	C993.000000,207.000000 993.000000,207.500000 993.000000,207.750000 
M844.485352,124.010201 
	C843.435791,126.609467 842.386169,129.208740 841.293762,131.914017 
	C866.277710,131.914017 890.887939,131.914017 915.830444,131.914017 
	C903.331238,103.245728 890.916321,74.770958 878.461853,46.205433 
	C867.279541,71.968285 856.120789,97.676727 844.485352,124.010201 
z"/>
<path fill="#050708" opacity="1.000000" stroke="none" 
	d="
M40.531342,1.000000 
	C41.000000,57.433826 41.000000,113.867653 41.000000,170.843674 
	C76.258949,170.843674 111.424896,170.843674 146.793427,170.843674 
	C146.793427,183.447464 146.793427,195.509445 146.793427,207.999954 
	C98.399391,207.999954 50.168354,207.999954 1.468657,207.999969 
	C1.000000,139.122406 1.000000,70.244804 1.000000,1.000000 
	C14.018593,1.000000 27.040638,1.000000 40.531342,1.000000 
z"/>
<path fill="#050708" opacity="1.000000" stroke="none" 
	d="
M212.531342,1.000000 
	C213.000000,57.476276 213.000000,113.952553 213.000000,170.833740 
	C248.295822,170.833740 283.368774,170.833740 318.719940,170.833740 
	C318.719940,183.306152 318.719940,195.378128 318.719940,207.726074 
	C270.345612,207.726074 221.941330,207.726074 173.000046,207.726074 
	C173.000046,139.138367 173.000046,70.537842 173.000031,1.468657 
	C186.020889,1.000000 199.041794,1.000000 212.531342,1.000000 
z"/>
<path fill="#FFFFFF" opacity="1.000000" stroke="none" 
	d="
M993.000000,206.531342 
	C982.238525,183.101257 971.501282,159.191574 960.706665,135.307816 
	C954.035217,120.546906 947.188049,105.864983 940.577087,91.077286 
	C929.913696,67.224892 919.421265,43.296070 908.762634,19.441532 
	C906.084534,13.447943 903.049133,7.614021 900.088989,1.353364 
	C930.954590,1.000000 961.909180,1.000000 993.000000,1.000000 
	C993.000000,69.354172 993.000000,137.708420 993.000000,206.531342 
z"/>
<path fill="#1C2B34" opacity="1.000000" stroke="none" 
	d="
M924.460632,405.000000 
	C919.016663,403.514099 913.921570,402.322906 909.071594,400.485138 
	C896.330994,395.657379 887.982788,385.924408 882.658203,373.978088 
	C874.561401,355.812042 874.363159,336.705444 880.631653,318.127350 
	C887.063293,299.065735 900.257263,286.578796 920.812805,282.934998 
	C934.495728,280.509460 947.369812,282.050293 958.982849,290.065338 
	C962.049622,292.181976 964.585999,295.067047 967.843994,298.034698 
	C967.843994,293.571381 967.843994,289.543915 967.843994,285.000031 
	C976.207214,285.000031 984.135010,285.000031 992.531372,285.000000 
	C993.000000,323.687561 993.000000,362.375122 992.531372,401.531342 
	C984.147522,402.000000 976.232239,402.000000 967.882324,402.000000 
	C967.882324,396.837555 967.882324,392.163513 967.882324,388.265991 
	C963.449585,391.764526 959.323914,396.110107 954.294434,398.701263 
	C948.620544,401.624390 942.133423,402.968933 936.000000,405.000031 
	C932.307068,405.000000 928.614197,405.000000 924.460632,405.000000 
M937.371948,305.000000 
	C923.128967,304.255646 910.206238,312.949677 905.484436,325.973541 
	C900.742676,339.052582 900.990417,351.969940 906.983582,364.520538 
	C912.553772,376.185150 922.673584,381.718842 935.041870,381.777954 
	C945.326599,381.827148 954.888184,378.008606 961.606384,369.674622 
	C964.120239,366.556213 966.487549,362.404449 966.758606,358.570831 
	C967.472595,348.475128 967.029785,338.295349 966.961487,328.149628 
	C966.953125,326.910889 966.608948,325.589935 966.097717,324.452026 
	C960.705627,312.451752 951.132568,306.374695 937.371948,305.000000 
z"/>
<path fill="#1C2B34" opacity="1.000000" stroke="none" 
	d="
M717.464661,405.000000 
	C713.028442,404.013580 709.072144,402.960022 705.082764,402.052063 
	C685.081787,397.499817 669.612122,378.429932 665.895996,358.965088 
	C663.331238,345.530975 663.479614,332.241150 668.162598,319.576050 
	C675.588135,299.494019 689.348999,286.275482 711.444885,282.903900 
	C723.380005,281.082733 734.789124,281.764832 745.769287,286.974365 
	C760.494507,293.960754 768.958557,306.255890 772.762390,321.431610 
	C775.274292,331.453125 775.664062,342.006531 777.076233,352.877686 
	C747.615295,352.877686 719.548096,352.877686 691.485901,352.877686 
	C691.411926,364.183868 699.501709,374.380341 709.001038,379.046661 
	C723.136169,385.990173 745.519287,382.836487 759.192383,368.498260 
	C763.940247,374.270905 768.633789,379.977570 773.611450,386.029724 
	C761.349976,397.278137 747.455872,403.304382 731.161926,404.608398 
	C726.643127,405.000000 722.286194,405.000000 717.464661,405.000000 
M728.500000,334.000000 
	C735.823730,334.000000 743.147400,334.000000 750.482239,334.000000 
	C749.205688,312.255005 732.971985,300.945068 713.842468,304.912109 
	C702.525146,307.259094 689.861511,323.075775 691.597168,334.000000 
	C703.537842,334.000000 715.518921,334.000000 728.500000,334.000000 
z"/>
<path fill="#1C2B34" opacity="1.000000" stroke="none" 
	d="
M843.416626,405.000000 
	C838.792236,404.245880 834.516235,403.755859 830.389404,402.688843 
	C817.236389,399.287994 809.937012,390.145447 807.119690,377.371796 
	C805.793152,371.357391 805.184998,365.085052 805.091980,358.916962 
	C804.828857,341.462921 805.000000,324.002289 805.000000,306.117340 
	C797.323303,306.117340 789.918518,306.117340 782.261108,306.117340 
	C782.261108,298.961395 782.261108,292.230804 782.261108,285.068909 
	C789.725525,285.068909 797.132080,285.068909 804.952026,285.068909 
	C804.952026,273.583405 804.952026,262.515137 804.952026,251.227936 
	C813.772949,251.227936 822.169312,251.227936 830.991943,251.227936 
	C830.991943,262.457520 830.991943,273.526245 830.991943,284.833435 
	C842.690979,284.833435 853.969788,284.833435 865.623901,284.833435 
	C865.623901,291.797180 865.623901,298.533203 865.623901,305.698364 
	C854.509460,305.698364 843.108032,305.698364 831.352783,305.698364 
	C831.213135,307.344940 831.015259,308.601318 831.013794,309.857941 
	C830.993530,327.511230 830.816589,345.167358 831.090149,362.816437 
	C831.199951,369.896149 832.662964,377.230835 840.374084,379.875732 
	C845.309021,381.568359 850.905945,381.611206 856.226379,381.789703 
	C859.211731,381.889862 862.238403,380.760376 865.619751,380.113495 
	C865.619751,387.143799 865.619751,394.170502 865.619751,402.326141 
	C860.121277,402.924316 854.230164,403.565186 848.169556,404.603027 
	C846.611084,405.000000 845.222229,405.000000 843.416626,405.000000 
z"/>
<path fill="#FFFFFF" opacity="1.000000" stroke="none" 
	d="
M703.531372,1.000008 
	C700.360413,6.469377 696.892212,12.062512 693.048767,17.384708 
	C681.778198,32.991657 670.354553,48.488056 658.998535,64.033356 
	C652.905334,72.374397 646.828003,80.727028 640.848450,88.930458 
	C619.477661,59.654922 598.317017,30.667311 577.078247,1.339849 
	C619.020874,1.000000 661.041809,1.000000 703.531372,1.000008 
z"/>
<path fill="#FEFEFF" opacity="1.000000" stroke="none" 
	d="
M373.000000,405.000000 
	C325.979095,405.000000 278.958221,405.000000 231.640717,404.666626 
	C239.079483,402.844116 245.866638,399.282532 251.339737,393.783661 
	C256.596069,388.502625 261.995361,383.073608 265.936493,376.828979 
	C277.191254,358.996063 287.716797,340.703491 298.597961,322.633179 
	C299.465454,321.192566 300.861725,320.070404 302.101257,319.147858 
	C304.490601,323.342957 306.719971,327.234985 309.103668,331.030090 
	C319.153473,347.030792 329.249268,363.002594 339.438721,379.285034 
	C342.420868,382.992554 345.140503,386.543549 348.195465,389.777771 
	C354.760040,396.727570 362.184784,402.348907 372.208435,404.017273 
	C372.612244,404.444763 372.806122,404.722382 373.000000,405.000000 
z"/>
<path fill="#417BBE" opacity="1.000000" stroke="none" 
	d="
M302.012268,318.800232 
	C300.861725,320.070404 299.465454,321.192566 298.597961,322.633179 
	C287.716797,340.703491 277.191254,358.996063 265.936493,376.828979 
	C261.995361,383.073608 256.596069,388.502625 251.339737,393.783661 
	C245.866638,399.282532 239.079483,402.844116 231.172058,404.666626 
	C225.311966,405.000000 219.623917,405.000000 213.467941,405.000000 
	C212.311386,404.629822 211.663315,404.105286 210.928192,403.912262 
	C196.766052,400.193115 187.625107,390.994751 182.551758,377.300110 
	C189.698563,373.207306 198.383545,373.383667 203.787323,366.716156 
	C204.300659,366.082764 205.632492,366.112732 206.753387,366.106079 
	C213.023285,378.292694 223.731277,381.836182 233.998886,374.895264 
	C237.653000,372.425110 241.086136,369.219940 243.677689,365.663513 
	C251.106750,355.468414 258.150146,344.986481 265.163391,334.495758 
	C272.814209,323.051392 280.261353,311.470825 288.159180,299.988220 
	C291.348755,303.684387 294.176361,307.341980 297.148560,311.303253 
	C298.866150,314.004669 300.439209,316.402466 302.012268,318.800232 
z"/>
<path fill="#050708" opacity="1.000000" stroke="none" 
	d="
M1.000000,269.468658 
	C6.474950,269.000000 11.949901,269.000000 17.788895,269.000000 
	C17.788895,277.941223 17.788895,286.678314 17.788895,296.436523 
	C23.908474,290.202148 30.830017,287.586884 38.411942,288.108856 
	C52.716972,289.093628 61.783161,297.262421 65.062187,311.607727 
	C67.272354,321.276947 66.161217,330.602905 61.377552,338.914703 
	C52.575783,354.208191 32.484329,357.558075 18.144466,345.169891 
	C18.144466,347.466431 18.144466,349.517487 18.144466,351.999969 
	C12.526126,351.999969 7.231203,351.999969 1.468140,352.000000 
	C1.000000,324.645782 1.000000,297.291534 1.000000,269.468658 
M48.999901,322.238342 
	C48.999897,321.072083 49.118641,319.891693 48.981831,318.741699 
	C47.301842,304.620453 34.857506,299.572144 25.703741,305.088287 
	C19.475620,308.841461 16.316101,318.383881 18.365412,325.934540 
	C20.734560,334.663605 31.221619,341.800201 40.920151,335.679810 
	C45.714634,332.654205 47.702820,328.193939 48.999901,322.238342 
z"/>
<path fill="#3C76BB" opacity="1.000000" stroke="none" 
	d="
M373.467590,405.000000 
	C372.806122,404.722382 372.612244,404.444763 372.208801,403.579895 
	C373.006958,398.815582 374.025085,394.640930 375.015106,390.459625 
	C375.263641,389.410065 375.445099,388.342896 375.617584,387.277374 
	C376.144684,384.021149 376.652435,380.761749 377.609680,377.580322 
	C385.943817,379.194275 392.852081,377.553558 396.754395,370.071808 
	C398.907623,365.943512 400.587311,361.117218 400.830505,356.518372 
	C402.192261,330.767914 398.213776,306.023926 385.778137,283.170959 
	C387.442657,283.630127 389.625092,283.992462 389.734558,284.683289 
	C390.621796,290.282410 395.842896,289.061401 399.062103,290.491394 
	C401.966187,291.781403 407.118988,290.160217 408.578857,291.984528 
	C410.257812,294.082611 408.968628,298.555908 408.968628,302.837128 
	C411.994934,304.269928 415.938477,306.136963 419.882019,308.003998 
	C420.535400,310.419098 421.188782,312.834167 421.491150,315.694366 
	C419.490906,318.538666 417.744110,320.879272 416.247314,323.370148 
	C415.749512,324.198608 415.486328,325.565002 415.808990,326.425659 
	C418.044525,332.388702 416.378448,337.815826 413.903992,343.216400 
	C413.102234,344.966248 412.299591,346.787079 411.948700,348.660004 
	C410.297028,357.475647 411.075897,366.209808 413.491272,374.777130 
	C414.386017,377.950775 415.880432,380.955383 417.101318,384.037079 
	C411.717926,395.415405 402.670044,401.990265 390.215851,404.691528 
	C384.645081,405.000000 379.290131,405.000000 373.467590,405.000000 
z"/>
<path fill="#FFFFFF" opacity="1.000000" stroke="none" 
	d="
M936.468628,405.000031 
	C942.133423,402.968933 948.620544,401.624390 954.294434,398.701263 
	C959.323914,396.110107 963.449585,391.764526 967.882324,388.265991 
	C967.882324,392.163513 967.882324,396.837555 967.882324,402.000000 
	C976.232239,402.000000 984.147522,402.000000 992.531372,402.000000 
	C993.000000,402.992645 993.000000,403.985291 993.000000,405.000000 
	C974.312439,405.000000 955.624878,405.000000 936.468628,405.000031 
z"/>
<path fill="#050708" opacity="1.000000" stroke="none" 
	d="
M394.717743,60.687992 
	C403.018982,59.616306 411.018951,57.856579 418.928894,58.195740 
	C436.045288,58.929653 451.046173,64.993332 462.606232,79.841927 
	C462.606232,73.535828 462.606232,68.061844 462.606232,62.298794 
	C474.928589,62.298794 486.663910,62.298794 498.700684,62.298794 
	C498.700684,110.585747 498.700684,158.972900 498.700684,207.680237 
	C487.447906,207.680237 476.046692,207.680237 464.199219,207.680237 
	C463.693634,201.420486 463.173035,194.974686 462.659149,188.612122 
	C450.986328,205.014099 434.443848,211.591431 414.781097,212.035065 
	C399.633942,212.376816 385.532654,208.899490 372.571136,201.092056 
	C360.532684,193.840622 352.538879,183.264725 346.905853,170.450943 
	C340.044373,154.842697 340.011414,138.399643 341.276978,122.158424 
	C342.565857,105.618362 348.919128,90.413780 361.087738,78.575310 
	C370.356018,69.558472 381.319885,63.121475 394.717743,60.687992 
M382.436615,113.049782 
	C378.039093,121.428017 377.252441,130.326859 377.905182,139.651794 
	C378.590424,149.440598 382.147369,157.880188 388.590515,165.008041 
	C398.597748,176.078644 411.693909,179.393738 425.939575,177.869568 
	C437.600830,176.621918 447.410339,170.863953 453.848480,161.046341 
	C460.351501,151.129791 463.091034,140.117737 461.171387,127.888069 
	C459.681610,118.397057 456.222107,109.992317 449.659027,103.397713 
	C440.022827,93.715256 428.155640,89.920029 414.270355,91.884773 
	C400.385620,93.849449 389.569946,99.796417 382.436615,113.049782 
z"/>
<path fill="#1C2B34" opacity="1.000000" stroke="none" 
	d="
M476.000031,366.000000 
	C476.000031,325.533264 476.000031,285.566528 476.000031,245.011856 
	C486.316620,245.011856 496.412323,244.965164 506.505707,245.097855 
	C507.340118,245.108826 508.459839,246.166626 508.939270,247.022491 
	C516.280212,260.127106 523.567627,273.261963 530.804932,286.424164 
	C540.060364,303.256592 549.256348,320.121704 558.501953,336.959595 
	C558.726746,337.368927 559.233398,337.623535 560.057983,338.341675 
	C562.102051,334.671936 564.097473,331.127136 566.058167,327.563293 
	C580.767578,300.826691 595.441956,274.070648 610.268311,247.399063 
	C610.928223,246.211777 612.937866,245.135406 614.342651,245.104904 
	C623.660217,244.902618 632.984314,245.000168 642.652954,245.000168 
	C642.652954,297.194183 642.652954,349.251587 642.652954,401.654724 
	C634.468323,401.654724 626.065735,401.654724 617.276611,401.654724 
	C617.276611,363.097534 617.276611,324.364227 617.276611,285.630920 
	C616.981140,285.529480 616.685669,285.428040 616.390198,285.326569 
	C613.711609,289.949097 610.965637,294.534058 608.365967,299.200531 
	C596.580688,320.355469 584.865417,341.549530 572.997314,362.657776 
	C572.369812,363.773865 570.596802,364.851227 569.320679,364.895538 
	C562.830383,365.120911 556.321960,365.147888 549.834839,364.881348 
	C548.446533,364.824310 546.549866,363.585297 545.849792,362.346802 
	C533.853149,341.122772 522.008667,319.812714 510.128723,298.522705 
	C507.701935,294.173737 505.266846,289.829437 502.275940,284.482513 
	C502.275940,324.138153 502.275940,362.752625 502.275940,401.682709 
	C493.409882,401.682709 485.008759,401.682709 476.000031,401.682709 
	C476.000031,390.020569 476.000031,378.260284 476.000031,366.000000 
z"/>
<path fill="#3769B2" opacity="1.000000" stroke="none" 
	d="
M297.003998,310.999603 
	C294.176361,307.341980 291.348755,303.684387 288.237274,299.624115 
	C282.054565,287.608795 273.729645,278.038025 262.730560,271.148254 
	C252.133820,264.510559 240.802216,265.772522 231.372131,274.035309 
	C228.636963,276.431915 225.703247,278.987701 223.991455,282.093750 
	C218.959122,291.225037 214.494675,300.669312 209.427917,309.935364 
	C200.607071,308.232941 192.166183,306.586121 183.725281,304.939331 
	C189.687836,283.804474 199.671967,265.077820 217.246033,251.311829 
	C236.186523,236.475540 259.985291,235.639496 279.229675,250.028366 
	C288.450378,256.922638 296.022430,266.021881 304.716736,274.523132 
	C309.025391,280.275482 312.958466,285.627197 316.935608,291.323914 
	C317.721161,293.091766 318.462646,294.514679 318.885254,296.072632 
	C313.892426,300.113739 309.362854,304.214539 304.477417,307.835144 
	C302.364838,309.400787 299.517548,309.975037 297.003998,310.999603 
z"/>
<path fill="#407BBE" opacity="1.000000" stroke="none" 
	d="
M316.891571,290.978912 
	C312.958466,285.627197 309.025391,280.275482 305.067139,274.587219 
	C310.696655,267.728088 315.854340,260.679749 322.096893,254.779221 
	C342.790314,235.219498 367.958130,235.011032 389.272003,253.942688 
	C405.385468,268.255188 414.325378,286.808655 419.901428,307.616882 
	C415.938477,306.136963 411.994934,304.269928 408.968628,302.837128 
	C408.968628,298.555908 410.257812,294.082611 408.578857,291.984528 
	C407.118988,290.160217 401.966187,291.781403 399.062103,290.491394 
	C395.842896,289.061401 390.621796,290.282410 389.734558,284.683289 
	C389.625092,283.992462 387.442657,283.630127 385.565338,282.940948 
	C381.036377,278.240906 377.664215,273.130249 373.194336,269.300964 
	C360.372925,258.317017 346.509460,258.371460 334.309967,269.969879 
	C327.763306,276.194000 322.651093,283.926880 316.891571,290.978912 
z"/>
<path fill="#050708" opacity="1.000000" stroke="none" 
	d="
M81.298462,319.737488 
	C76.987831,309.517670 72.934067,299.602295 68.715172,289.282990 
	C75.241135,289.282990 81.306335,289.282990 87.492828,289.282990 
	C92.432877,302.626617 97.423149,316.105927 102.799339,330.627625 
	C108.208595,316.330750 113.354294,302.730499 118.510857,289.101501 
	C124.258202,289.101501 129.905426,289.101501 136.295197,289.101501 
	C132.631683,297.920319 129.132034,306.411438 125.579979,314.880554 
	C119.070656,330.400696 112.528305,345.906982 106.004112,361.420898 
	C103.580544,367.183899 101.260536,372.993713 98.668724,378.679810 
	C98.199951,379.708282 96.666565,380.845947 95.577271,380.895752 
	C90.473160,381.128906 85.352470,380.999298 79.788078,380.999298 
	C83.809471,371.707825 87.823456,362.995819 91.288918,354.070892 
	C92.280128,351.518127 92.541786,348.048218 91.657120,345.516296 
	C88.646576,336.900177 84.974693,328.515137 81.298462,319.737488 
z"/>
<path fill="#3D76BB" opacity="1.000000" stroke="none" 
	d="
M206.584335,365.834747 
	C205.632492,366.112732 204.300659,366.082764 203.787323,366.716156 
	C198.383545,373.383667 189.698563,373.207306 182.535141,376.945099 
	C176.361053,363.035370 176.413635,348.501740 178.496063,333.411316 
	C187.674606,332.664978 196.289169,332.331238 204.948227,332.437744 
	C203.890274,343.942474 202.922791,355.000397 206.584335,365.834747 
z"/>
<path fill="#3C6FB6" opacity="1.000000" stroke="none" 
	d="
M204.903748,331.997498 
	C196.289169,332.331238 187.674606,332.664978 178.601059,332.997467 
	C179.849152,323.828827 181.556198,314.661407 183.494263,305.216675 
	C192.166183,306.586121 200.607071,308.232941 209.431732,310.315430 
	C208.178238,317.833221 206.540985,324.915375 204.903748,331.997498 
z"/>
<path fill="#407BBE" opacity="1.000000" stroke="none" 
	d="
M417.373779,383.821228 
	C415.880432,380.955383 414.386017,377.950775 413.491272,374.777130 
	C411.075897,366.209808 410.297028,357.475647 411.948700,348.660004 
	C412.299591,346.787079 413.102234,344.966248 413.903992,343.216400 
	C416.378448,337.815826 418.044525,332.388702 415.808990,326.425659 
	C415.486328,325.565002 415.749512,324.198608 416.247314,323.370148 
	C417.744110,320.879272 419.490906,318.538666 421.470825,316.068695 
	C426.243744,338.891907 427.858978,361.612122 417.373779,383.821228 
z"/>
<path fill="#FFFFFF" opacity="1.000000" stroke="none" 
	d="
M844.723694,123.697685 
	C856.120789,97.676727 867.279541,71.968285 878.461853,46.205433 
	C890.916321,74.770958 903.331238,103.245728 915.830444,131.914017 
	C890.887939,131.914017 866.277710,131.914017 841.293762,131.914017 
	C842.386169,129.208740 843.435791,126.609467 844.723694,123.697685 
z"/>
<path fill="#FFFFFF" opacity="1.000000" stroke="none" 
	d="
M937.830200,305.000000 
	C951.132568,306.374695 960.705627,312.451752 966.097717,324.452026 
	C966.608948,325.589935 966.953125,326.910889 966.961487,328.149628 
	C967.029785,338.295349 967.472595,348.475128 966.758606,358.570831 
	C966.487549,362.404449 964.120239,366.556213 961.606384,369.674622 
	C954.888184,378.008606 945.326599,381.827148 935.041870,381.777954 
	C922.673584,381.718842 912.553772,376.185150 906.983582,364.520538 
	C900.990417,351.969940 900.742676,339.052582 905.484436,325.973541 
	C910.206238,312.949677 923.128967,304.255646 937.830200,305.000000 
z"/>
<path fill="#FFFFFF" opacity="1.000000" stroke="none" 
	d="
M728.000000,334.000000 
	C715.518921,334.000000 703.537842,334.000000 691.597168,334.000000 
	C689.861511,323.075775 702.525146,307.259094 713.842468,304.912109 
	C732.971985,300.945068 749.205688,312.255005 750.482239,334.000000 
	C743.147400,334.000000 735.823730,334.000000 728.000000,334.000000 
z"/>
<path fill="#396AB3" opacity="1.000000" stroke="none" 
	d="
M297.148560,311.303253 
	C299.517548,309.975037 302.364838,309.400787 304.477417,307.835144 
	C309.362854,304.214539 313.892426,300.113739 319.159729,296.256104 
	C331.524719,315.531036 343.296265,334.757568 354.700470,354.047302 
	C352.554352,358.499481 350.229828,362.757599 349.138153,367.311218 
	C347.840820,372.722473 344.309814,377.664368 339.328247,378.984924 
	C329.249268,363.002594 319.153473,347.030792 309.103668,331.030090 
	C306.719971,327.234985 304.490601,323.342957 302.101257,319.147858 
	C300.439209,316.402466 298.866150,314.004669 297.148560,311.303253 
z"/>
<path fill="#3C70B7" opacity="1.000000" stroke="none" 
	d="
M339.438721,379.285034 
	C344.309814,377.664368 347.840820,372.722473 349.138153,367.311218 
	C350.229828,362.757599 352.554352,358.499481 354.984619,354.223450 
	C357.024597,356.376831 358.367950,358.449799 359.809875,360.451752 
	C364.617523,367.126678 369.161377,374.080902 377.167694,377.503601 
	C376.652435,380.761749 376.144684,384.021149 375.617584,387.277374 
	C375.445099,388.342896 375.263641,389.410065 375.015106,390.459625 
	C374.025085,394.640930 373.006958,398.815582 371.998871,403.430023 
	C362.184784,402.348907 354.760040,396.727570 348.195465,389.777771 
	C345.140503,386.543549 342.420868,382.992554 339.438721,379.285034 
z"/>
<path fill="#FEFEFF" opacity="1.000000" stroke="none" 
	d="
M204.948227,332.437744 
	C206.540985,324.915375 208.178238,317.833221 209.811676,310.371063 
	C214.494675,300.669312 218.959122,291.225037 223.991455,282.093750 
	C225.703247,278.987701 228.636963,276.431915 231.372131,274.035309 
	C240.802216,265.772522 252.133820,264.510559 262.730560,271.148254 
	C273.729645,278.038025 282.054565,287.608795 287.875366,299.585571 
	C280.261353,311.470825 272.814209,323.051392 265.163391,334.495758 
	C258.150146,344.986481 251.106750,355.468414 243.677689,365.663513 
	C241.086136,369.219940 237.653000,372.425110 233.998886,374.895264 
	C223.731277,381.836182 213.023285,378.292694 206.753387,366.106079 
	C202.922791,355.000397 203.890274,343.942474 204.948227,332.437744 
z"/>
<path fill="#FFFFFF" opacity="1.000000" stroke="none" 
	d="
M48.999260,322.673889 
	C47.702820,328.193939 45.714634,332.654205 40.920151,335.679810 
	C31.221619,341.800201 20.734560,334.663605 18.365412,325.934540 
	C16.316101,318.383881 19.475620,308.841461 25.703741,305.088287 
	C34.857506,299.572144 47.301842,304.620453 48.981831,318.741699 
	C49.118641,319.891693 48.999897,321.072083 48.999260,322.673889 
z"/>
<path fill="#FEFEFF" opacity="1.000000" stroke="none" 
	d="
M377.609680,377.580322 
	C369.161377,374.080902 364.617523,367.126678 359.809875,360.451752 
	C358.367950,358.449799 357.024597,356.376831 355.351959,354.160248 
	C343.296265,334.757568 331.524719,315.531036 319.478638,296.121033 
	C318.462646,294.514679 317.721161,293.091766 316.935608,291.323914 
	C322.651093,283.926880 327.763306,276.194000 334.309967,269.969879 
	C346.509460,258.371460 360.372925,258.317017 373.194336,269.300964 
	C377.664215,273.130249 381.036377,278.240906 385.122620,282.996399 
	C398.213776,306.023926 402.192261,330.767914 400.830505,356.518372 
	C400.587311,361.117218 398.907623,365.943512 396.754395,370.071808 
	C392.852081,377.553558 385.943817,379.194275 377.609680,377.580322 
z"/>
<path fill="#FFFFFF" opacity="1.000000" stroke="none" 
	d="
M382.695251,112.764786 
	C389.569946,99.796417 400.385620,93.849449 414.270355,91.884773 
	C428.155640,89.920029 440.022827,93.715256 449.659027,103.397713 
	C456.222107,109.992317 459.681610,118.397057 461.171387,127.888069 
	C463.091034,140.117737 460.351501,151.129791 453.848480,161.046341 
	C447.410339,170.863953 437.600830,176.621918 425.939575,177.869568 
	C411.693909,179.393738 398.597748,176.078644 388.590515,165.008041 
	C382.147369,157.880188 378.590424,149.440598 377.905182,139.651794 
	C377.252441,130.326859 378.039093,121.428017 382.695251,112.764786 
z"/>
</svg>