<svg xmlns="http://www.w3.org/2000/svg" width="138.408" height="27.0002" viewBox="0 0 138.408 27.0002"><defs><style>.a{fill:#0c131e;}</style></defs><path class="a" d="M37.7476,6.1235h3.8247l.3584,1.99a4.3292,4.3292,0,0,1,4.061-2.346,6.0974,6.0974,0,0,1,2.2413.4465l-.8981,4.6019a4.3169,4.3169,0,0,0-2.2412-.5953c-1.552,0-2.8085,1.0418-2.8085,3.3564V20.971H37.7476Z"/><path class="a" d="M49.8058,15.4422V6.0293h4.6048v8.5514a2.3519,2.3519,0,0,0,2.4522,2.643c1.4856,0,2.7557-1.1277,2.7557-3.6218V6.0293h4.6048V20.8769h-3.846l-.5152-1.9578a5.7067,5.7067,0,0,1-4.7845,2.3141C52.0742,21.2332,49.8058,19.33,49.8058,15.4422Z"/><path class="a" d="M66.5865,6.1234h3.7992l.5089,1.9578a5.5549,5.5549,0,0,1,4.6987-2.3141c2.9313,0,5.1446,1.8716,5.1446,5.76V20.971H76.1891V12.4783c0-1.75-.9-2.7017-2.3948-2.7017-1.3768,0-2.663,1.1276-2.663,3.6805V20.971H66.5825V6.1234Z"/><path class="a" d="M81.7864,6.0293h4.55L89.0239,16.16l2.3917-6.6631-1.18-3.4675h4.5186L97.6793,16.16,100.277,6.0293h4.577L100.009,20.971H95.3421L93.336,15.0251,91.2676,20.971H86.6283Z"/><path class="a" d="M105.117,13.5c0-5.106,3.684-7.733,7.075-7.733a5.6732,5.6732,0,0,1,4.309,1.6812l.415-1.3271h4.191V20.879h-3.983l-.623-1.4439a5.6172,5.6172,0,0,1-4.52,1.798C108.327,21.2331,105.117,18.2209,105.117,13.5Zm11.564,0a3.5249,3.5249,0,1,0-7.017,0,3.5253,3.5253,0,1,0,7.017,0Z"/><path class="a" d="M125.867,27l2.52-6.7994-5.97-14.1715h4.89l3.331,9.2567,2.999-9.2567h4.771L130.519,27Z"/><path class="a" d="M20.6987,26.9835c-3.2711.2991-6.0062-3.5342-8.1029-5.4784C11.5356,29.1441-.0079,28.42,0,20.6708.0039,17.4161,0,9.4623,0,6.31A6.3027,6.3027,0,0,1,6.3215.0011c3.283.004,11.1889-.0039,14.3772,0,7.7562,0,8.4931,11.5392.8277,12.5781l3.6376,3.6326C29.16,19.97,26.1611,27.1488,20.6987,26.9835Zm-1.7616-4.5456c2.2543,2.322,5.8525-1.2752,3.5312-3.5263l-6.3058-6.2969H12.6352v3.5262l5.4506,5.443ZM3.8189,20.6747c-.0512,3.2272,5.0447,3.239,4.9934,0V6.31A2.512,2.512,0,0,0,5.6161,3.917c-.067.02-.13.0394-.1892.063a2.5134,2.5134,0,0,0-1.608,2.3771Zm16.88-11.8736c3.24.0512,3.2357-5.0375,0-4.9864h-8.564c.65,1.37.4848,3.5027.4966,4.9864Z"/></svg>