<svg id="svg" version="1.1" xmlns="http://www.w3.org/2000/svg" xmlns:xlink="http://www.w3.org/1999/xlink" width="400" height="77.53584705257569" viewBox="0, 0, 400,77.53584705257569"><g id="svgg"><path id="path0" d="M199.500 30.750 L 199.500 61.500 205.250 61.500 L 211.000 61.500 211.000 30.750 L 211.000 0.000 205.250 0.000 L 199.500 0.000 199.500 30.750 M125.000 30.750 L 125.000 61.333 130.417 61.333 L 135.833 61.333 135.833 58.674 L 135.833 56.015 137.064 57.257 C 137.741 57.941,138.376 58.500,138.475 58.500 C 138.574 58.500,138.731 58.641,138.823 58.814 C 138.916 58.987,139.167 59.172,139.382 59.226 C 139.596 59.280,139.939 59.469,140.142 59.646 C 140.346 59.822,140.848 60.066,141.257 60.187 C 141.665 60.307,142.000 60.455,142.000 60.515 C 142.000 60.574,142.356 60.721,142.792 60.841 C 143.227 60.961,143.623 61.118,143.673 61.190 C 144.190 61.950,155.167 61.918,155.167 61.157 C 155.167 61.087,155.468 60.978,155.837 60.916 C 156.205 60.854,156.599 60.716,156.712 60.610 C 156.824 60.504,157.348 60.273,157.875 60.098 C 158.402 59.923,158.833 59.728,158.833 59.665 C 158.833 59.602,159.152 59.410,159.542 59.237 C 159.931 59.065,160.348 58.791,160.468 58.629 C 160.588 58.466,160.776 58.333,160.886 58.333 C 160.996 58.333,161.180 58.183,161.295 58.000 C 161.409 57.817,161.584 57.667,161.683 57.667 C 161.947 57.667,164.078 55.456,164.440 54.807 C 164.610 54.501,164.881 54.152,165.042 54.032 C 165.202 53.912,165.333 53.714,165.333 53.592 C 165.333 53.469,165.442 53.327,165.574 53.277 C 165.706 53.226,165.906 52.880,166.017 52.509 C 166.128 52.137,166.275 51.833,166.343 51.833 C 166.411 51.833,166.601 51.458,166.766 51.000 C 166.931 50.542,167.112 50.167,167.169 50.167 C 167.226 50.167,167.375 49.792,167.500 49.333 C 167.625 48.875,167.778 48.500,167.841 48.500 C 167.974 48.500,168.500 45.952,168.500 45.306 C 168.500 45.061,168.594 44.830,168.708 44.792 C 168.868 44.738,168.917 43.713,168.917 40.417 C 168.917 37.120,168.868 36.095,168.708 36.042 C 168.594 36.003,168.500 35.779,168.500 35.542 C 168.500 34.878,167.950 32.167,167.816 32.167 C 167.750 32.167,167.645 31.865,167.583 31.497 C 167.521 31.128,167.383 30.734,167.276 30.622 C 167.170 30.509,166.940 29.985,166.765 29.458 C 166.589 28.931,166.393 28.500,166.329 28.500 C 166.265 28.500,166.078 28.144,165.913 27.708 C 165.749 27.273,165.514 26.857,165.391 26.783 C 165.268 26.710,165.167 26.566,165.167 26.464 C 165.167 26.362,165.059 26.159,164.928 26.014 C 164.797 25.869,164.497 25.540,164.262 25.284 C 164.026 25.028,163.833 24.765,163.832 24.701 C 163.832 24.636,163.459 24.224,163.003 23.784 C 162.548 23.345,162.079 22.850,161.963 22.684 C 161.846 22.518,161.506 22.257,161.208 22.104 C 160.910 21.950,160.667 21.757,160.667 21.674 C 160.667 21.590,160.514 21.474,160.328 21.415 C 160.141 21.356,159.860 21.173,159.703 21.009 C 159.545 20.845,159.135 20.620,158.792 20.509 C 158.448 20.398,158.167 20.250,158.167 20.181 C 158.167 20.111,157.735 19.911,157.208 19.736 C 156.681 19.561,156.212 19.370,156.167 19.311 C 156.042 19.150,154.812 18.835,154.306 18.834 C 154.061 18.834,153.836 18.759,153.806 18.668 C 153.635 18.160,146.025 18.130,145.676 18.636 C 145.625 18.710,145.152 18.865,144.625 18.981 C 144.098 19.096,143.667 19.255,143.667 19.334 C 143.667 19.413,143.498 19.527,143.292 19.587 C 142.612 19.785,142.000 20.079,142.000 20.207 C 142.000 20.277,141.914 20.333,141.808 20.333 C 141.465 20.333,140.181 21.384,138.752 22.833 C 136.962 24.648,136.902 24.718,136.588 25.324 C 136.023 26.417,136.000 25.941,136.000 13.000 L 136.000 0.167 130.500 0.167 L 125.000 0.167 125.000 30.750 M181.292 0.610 C 181.040 0.653,180.833 0.751,180.833 0.828 C 180.833 0.905,180.608 1.046,180.333 1.142 C 180.058 1.238,179.833 1.395,179.833 1.491 C 179.833 1.588,179.730 1.667,179.604 1.667 C 179.336 1.667,178.168 2.987,178.167 3.292 C 178.167 3.406,178.105 3.500,178.029 3.500 C 177.420 3.500,177.355 8.591,177.959 8.979 C 178.048 9.036,178.173 9.249,178.236 9.450 C 178.391 9.946,179.804 11.320,180.283 11.440 C 180.494 11.493,180.667 11.597,180.667 11.671 C 180.667 11.875,182.225 12.167,183.314 12.167 C 184.397 12.167,186.167 11.853,186.167 11.662 C 186.167 11.593,186.353 11.489,186.582 11.432 C 187.068 11.310,188.422 10.007,188.580 9.510 C 188.640 9.321,188.750 9.167,188.825 9.167 C 189.065 9.167,189.333 7.723,189.333 6.434 C 189.333 5.165,189.065 3.500,188.860 3.500 C 188.799 3.500,188.646 3.270,188.522 2.989 C 188.273 2.427,187.529 1.667,187.228 1.667 C 187.122 1.667,186.992 1.554,186.940 1.417 C 186.887 1.279,186.734 1.167,186.600 1.167 C 186.467 1.167,186.229 1.038,186.072 0.882 C 185.785 0.595,182.475 0.406,181.292 0.610 M225.125 0.610 C 224.873 0.653,224.667 0.751,224.667 0.826 C 224.667 0.902,224.498 1.007,224.292 1.059 C 223.735 1.200,223.006 1.800,222.080 2.879 C 221.940 3.041,221.740 3.548,221.634 4.004 C 221.529 4.460,221.381 4.833,221.305 4.833 C 221.229 4.833,221.167 5.471,221.167 6.250 C 221.167 7.083,221.235 7.667,221.333 7.667 C 221.425 7.667,221.500 7.851,221.500 8.075 C 221.500 8.471,221.807 9.330,222.009 9.500 C 222.064 9.546,222.250 9.827,222.423 10.125 C 222.597 10.423,222.817 10.667,222.913 10.667 C 223.008 10.667,223.174 10.807,223.282 10.979 C 223.389 11.151,223.687 11.344,223.945 11.409 C 224.203 11.474,224.459 11.601,224.516 11.692 C 224.934 12.369,229.425 12.266,230.128 11.563 C 230.254 11.436,230.448 11.333,230.558 11.333 C 230.830 11.333,232.500 9.545,232.500 9.254 C 232.500 9.127,232.631 8.892,232.792 8.732 C 233.142 8.381,233.235 4.252,232.897 4.036 C 232.795 3.970,232.654 3.729,232.585 3.500 C 232.450 3.059,232.309 2.869,231.553 2.113 C 230.798 1.358,230.607 1.216,230.167 1.082 C 229.938 1.012,229.699 0.876,229.637 0.779 C 229.520 0.597,225.972 0.464,225.125 0.610 M392.208 0.609 C 392.002 0.654,391.833 0.745,391.833 0.811 C 391.833 0.878,391.567 1.029,391.242 1.147 C 390.693 1.345,390.020 1.922,389.278 2.829 C 388.243 4.095,388.235 9.121,389.269 9.717 C 389.396 9.790,389.500 9.940,389.500 10.050 C 389.500 10.278,390.392 11.167,390.620 11.167 C 390.703 11.167,390.922 11.308,391.107 11.480 C 391.931 12.248,397.167 12.399,397.167 11.655 C 397.167 11.582,397.335 11.469,397.542 11.404 C 398.250 11.179,399.595 9.628,399.806 8.791 C 400.315 6.768,399.907 3.063,399.129 2.646 C 398.966 2.559,398.833 2.378,398.833 2.244 C 398.833 2.110,398.725 2.000,398.593 2.000 C 398.460 2.000,398.253 1.869,398.132 1.708 C 397.868 1.358,397.262 1.000,396.933 1.000 C 396.802 1.000,396.663 0.907,396.625 0.792 C 396.555 0.581,393.023 0.435,392.208 0.609 M43.500 14.417 L 43.500 19.000 40.500 19.000 L 37.500 19.000 37.500 23.917 L 37.500 28.833 40.489 28.833 L 43.478 28.833 43.549 39.708 C 43.620 50.610,43.675 51.653,44.241 52.917 C 44.364 53.192,44.516 53.660,44.579 53.958 C 44.642 54.256,44.762 54.500,44.847 54.500 C 44.931 54.500,45.000 54.620,45.000 54.766 C 45.000 55.060,45.511 56.051,45.708 56.139 C 45.777 56.169,45.833 56.300,45.833 56.428 C 45.833 56.735,48.323 59.333,48.617 59.333 C 48.742 59.333,48.883 59.436,48.932 59.562 C 48.980 59.688,49.334 59.931,49.718 60.101 C 50.102 60.271,50.509 60.499,50.622 60.607 C 50.734 60.715,51.128 60.854,51.497 60.916 C 51.865 60.978,52.167 61.090,52.167 61.164 C 52.167 61.320,54.822 61.834,55.625 61.834 C 55.923 61.833,56.167 61.908,56.167 62.000 C 56.167 62.108,58.083 62.167,61.583 62.167 L 67.000 62.167 67.000 57.333 L 67.000 52.500 63.175 52.500 C 59.693 52.500,57.737 52.332,57.500 52.012 C 57.454 51.950,57.135 51.768,56.792 51.608 C 56.448 51.449,56.167 51.265,56.166 51.201 C 56.166 51.136,55.977 50.863,55.745 50.594 C 55.513 50.324,55.277 49.912,55.220 49.677 C 55.162 49.442,55.055 49.210,54.980 49.160 C 54.644 48.938,54.503 45.477,54.501 37.458 L 54.500 28.833 60.250 28.833 L 66.000 28.833 66.000 23.917 L 66.000 19.000 60.250 19.000 L 54.500 19.000 54.500 14.417 L 54.500 9.833 49.000 9.833 L 43.500 9.833 43.500 14.417 M245.667 14.417 L 245.667 19.000 242.583 19.000 L 239.500 19.000 239.500 23.917 L 239.500 28.833 242.574 28.833 L 245.647 28.833 245.699 39.839 C 245.735 47.644,245.804 50.880,245.934 50.964 C 246.036 51.030,246.169 51.383,246.231 51.750 C 246.428 52.911,246.726 54.000,246.846 54.000 C 246.910 54.000,247.012 54.260,247.071 54.578 C 247.131 54.896,247.271 55.252,247.382 55.370 C 247.493 55.487,247.694 55.808,247.829 56.083 C 248.127 56.691,248.208 56.791,249.557 58.208 C 250.145 58.827,250.707 59.333,250.805 59.333 C 250.903 59.333,251.043 59.434,251.117 59.557 C 251.190 59.680,251.569 59.919,251.958 60.089 C 252.348 60.259,252.667 60.448,252.667 60.510 C 252.667 60.573,253.023 60.721,253.458 60.841 C 253.894 60.961,254.290 61.117,254.339 61.189 C 254.447 61.348,257.160 61.833,257.938 61.833 C 258.247 61.833,258.500 61.908,258.500 62.000 C 258.500 62.108,260.361 62.167,263.750 62.167 L 269.000 62.167 269.000 57.333 L 269.000 52.500 265.278 52.500 C 261.791 52.500,259.667 52.306,259.667 51.988 C 259.667 51.915,259.498 51.805,259.292 51.743 C 258.837 51.606,257.833 50.680,257.833 50.398 C 257.833 50.286,257.756 50.169,257.662 50.137 C 257.437 50.062,257.004 48.418,257.002 47.625 C 257.001 47.281,256.925 47.000,256.833 47.000 C 256.724 47.000,256.667 43.861,256.667 37.917 L 256.667 28.833 262.417 28.833 L 268.167 28.833 268.167 23.917 L 268.167 19.000 262.417 19.000 L 256.667 19.000 256.667 14.417 L 256.667 9.833 251.167 9.833 L 245.667 9.833 245.667 14.417 M13.014 18.351 C 11.967 18.426,11.067 18.555,11.014 18.637 C 10.960 18.720,10.434 18.871,9.845 18.974 C 9.256 19.077,8.731 19.221,8.678 19.295 C 8.626 19.369,8.115 19.577,7.542 19.756 C 6.969 19.936,6.500 20.140,6.500 20.210 C 6.500 20.279,6.200 20.456,5.833 20.603 C 5.467 20.749,5.167 20.931,5.167 21.007 C 5.167 21.082,5.013 21.193,4.826 21.252 C 4.442 21.374,2.000 23.703,2.000 23.947 C 2.000 24.033,1.869 24.253,1.708 24.435 C 1.296 24.904,1.000 25.453,1.000 25.748 C 1.000 25.886,0.933 26.000,0.852 26.000 C 0.099 26.000,-0.244 33.252,0.400 35.542 C 0.574 36.160,0.774 36.667,0.845 36.667 C 0.916 36.667,1.061 36.929,1.167 37.250 C 1.273 37.571,1.412 37.833,1.477 37.833 C 1.542 37.833,1.729 38.060,1.892 38.337 C 2.405 39.204,4.890 41.500,5.317 41.500 C 5.411 41.500,5.621 41.640,5.785 41.812 C 5.949 41.983,6.365 42.223,6.708 42.345 C 7.052 42.467,7.333 42.613,7.333 42.670 C 7.333 42.727,7.708 42.875,8.167 43.000 C 8.625 43.125,9.000 43.279,9.000 43.342 C 9.000 43.406,9.656 43.593,10.458 43.759 C 11.260 43.925,11.954 44.114,12.000 44.178 C 12.046 44.243,12.890 44.428,13.875 44.589 C 14.860 44.750,15.667 44.934,15.667 44.998 C 15.667 45.061,16.192 45.212,16.833 45.333 C 17.475 45.454,18.000 45.614,18.000 45.687 C 18.000 45.760,18.319 45.906,18.708 46.010 C 19.446 46.208,19.526 46.261,20.527 47.223 C 22.568 49.184,20.837 53.333,17.980 53.333 C 17.716 53.333,17.500 53.408,17.500 53.500 C 17.500 53.603,16.639 53.667,15.250 53.667 C 13.861 53.667,13.000 53.603,13.000 53.500 C 13.000 53.408,12.756 53.333,12.458 53.333 C 11.714 53.332,8.941 52.837,8.835 52.685 C 8.788 52.618,8.319 52.468,7.792 52.353 C 7.265 52.237,6.833 52.083,6.833 52.010 C 6.833 51.937,6.383 51.751,5.833 51.597 C 5.283 51.442,4.833 51.260,4.833 51.192 C 4.833 51.124,4.496 50.929,4.083 50.759 C 3.671 50.589,3.333 50.404,3.333 50.349 C 3.333 50.293,3.090 50.141,2.792 50.011 C 2.494 49.881,2.152 49.637,2.032 49.470 C 1.912 49.303,1.704 49.167,1.569 49.167 C 1.433 49.167,1.279 49.051,1.225 48.911 C 1.139 48.687,0.347 48.167,0.092 48.167 C 0.041 48.167,-0.000 50.475,-0.000 53.296 L -0.000 58.426 0.519 58.881 C 0.804 59.132,1.211 59.380,1.424 59.433 C 1.636 59.487,1.844 59.621,1.887 59.733 C 1.930 59.844,2.273 60.037,2.649 60.161 C 3.025 60.285,3.333 60.436,3.333 60.497 C 3.333 60.557,3.708 60.709,4.167 60.833 C 4.625 60.958,5.000 61.109,5.000 61.168 C 5.000 61.228,5.731 61.418,6.625 61.590 C 7.519 61.763,8.287 61.953,8.333 62.013 C 8.812 62.637,21.586 62.638,21.996 62.014 C 22.044 61.942,22.593 61.787,23.217 61.671 C 23.840 61.554,24.440 61.372,24.550 61.265 C 24.660 61.159,25.069 60.977,25.458 60.862 C 25.848 60.747,26.167 60.597,26.167 60.527 C 26.167 60.458,26.504 60.262,26.917 60.092 C 27.329 59.922,27.667 59.736,27.667 59.677 C 27.667 59.619,27.893 59.438,28.169 59.275 C 28.817 58.892,30.833 56.828,30.833 56.548 C 30.833 56.430,30.912 56.333,31.009 56.333 C 31.105 56.333,31.262 56.108,31.358 55.833 C 31.454 55.558,31.588 55.333,31.656 55.333 C 31.724 55.333,31.922 54.902,32.097 54.375 C 32.272 53.848,32.474 53.373,32.546 53.321 C 33.174 52.857,33.151 44.667,32.521 44.667 C 32.458 44.667,32.309 44.337,32.190 43.934 C 31.979 43.221,31.721 42.788,31.125 42.147 C 30.965 41.974,30.833 41.770,30.833 41.693 C 30.833 41.429,28.520 39.204,28.010 38.978 C 27.730 38.854,27.500 38.691,27.500 38.617 C 27.500 38.543,27.275 38.404,27.000 38.308 C 26.725 38.212,26.500 38.079,26.500 38.011 C 26.500 37.943,26.069 37.744,25.542 37.569 C 25.015 37.395,24.546 37.206,24.500 37.149 C 24.454 37.093,24.023 36.948,23.542 36.826 C 23.060 36.704,22.667 36.543,22.667 36.468 C 22.667 36.394,22.498 36.333,22.292 36.333 C 21.740 36.334,19.097 35.797,19.000 35.665 C 18.954 35.603,18.204 35.416,17.333 35.250 C 16.462 35.084,15.713 34.896,15.667 34.832 C 15.621 34.768,15.173 34.618,14.671 34.499 C 14.169 34.380,13.657 34.181,13.534 34.058 C 13.410 33.934,13.221 33.833,13.113 33.832 C 13.005 33.831,12.662 33.568,12.352 33.248 C 12.041 32.928,11.727 32.667,11.655 32.667 C 10.946 32.667,11.143 29.551,11.900 28.796 C 12.877 27.822,13.200 27.631,14.191 27.442 C 14.728 27.340,15.167 27.199,15.167 27.129 C 15.167 27.058,15.842 27.000,16.667 27.000 C 17.556 27.000,18.167 27.068,18.167 27.167 C 18.167 27.258,18.560 27.334,19.042 27.334 C 20.174 27.334,22.892 27.667,23.000 27.818 C 23.046 27.882,23.721 28.070,24.500 28.234 C 25.279 28.399,25.954 28.583,26.000 28.643 C 26.046 28.702,26.515 28.895,27.042 29.069 C 27.569 29.244,28.000 29.444,28.000 29.514 C 28.000 29.584,28.262 29.727,28.583 29.833 C 28.904 29.939,29.167 30.076,29.168 30.138 C 29.169 30.270,30.124 30.833,30.347 30.833 C 30.436 30.833,30.500 29.047,30.500 26.561 L 30.500 22.288 30.054 21.875 C 29.373 21.244,26.670 19.895,25.611 19.658 C 25.092 19.542,24.667 19.395,24.667 19.330 C 24.667 19.266,24.085 19.116,23.375 18.996 C 22.665 18.876,22.044 18.721,21.997 18.650 C 21.901 18.507,17.078 18.153,15.753 18.190 C 15.293 18.204,14.060 18.276,13.014 18.351 M87.758 18.358 C 86.846 18.439,86.059 18.564,86.008 18.636 C 85.958 18.709,85.435 18.856,84.846 18.963 C 84.257 19.070,83.732 19.223,83.679 19.303 C 83.627 19.383,83.152 19.583,82.625 19.747 C 82.098 19.911,81.667 20.104,81.667 20.176 C 81.667 20.248,81.292 20.431,80.833 20.583 C 80.375 20.736,80.000 20.931,80.000 21.018 C 80.000 21.104,79.813 21.246,79.583 21.333 C 79.354 21.420,79.167 21.550,79.167 21.622 C 79.167 21.693,78.932 21.856,78.644 21.983 C 78.070 22.237,75.167 25.085,75.167 25.394 C 75.167 25.500,75.017 25.680,74.833 25.795 C 74.650 25.909,74.500 26.115,74.500 26.251 C 74.500 26.388,74.427 26.500,74.338 26.500 C 74.248 26.500,74.050 26.744,73.898 27.042 C 73.745 27.340,73.567 27.621,73.503 27.667 C 73.439 27.712,73.252 28.106,73.087 28.542 C 72.923 28.977,72.735 29.333,72.670 29.333 C 72.606 29.333,72.458 29.652,72.341 30.042 C 72.225 30.431,72.063 30.792,71.980 30.844 C 71.898 30.896,71.704 31.533,71.549 32.261 C 71.394 32.988,71.207 33.625,71.134 33.676 C 70.382 34.202,70.407 46.833,71.160 46.833 C 71.226 46.833,71.374 47.360,71.489 48.004 C 71.604 48.648,71.788 49.267,71.897 49.379 C 72.006 49.491,72.189 49.902,72.304 50.292 C 72.419 50.681,72.585 51.000,72.673 51.000 C 72.761 51.000,72.833 51.146,72.833 51.323 C 72.833 51.501,72.903 51.690,72.987 51.742 C 73.072 51.794,73.190 52.061,73.250 52.335 C 73.311 52.609,73.420 52.833,73.494 52.833 C 73.568 52.833,73.753 53.096,73.905 53.417 C 74.058 53.737,74.254 54.000,74.341 54.000 C 74.429 54.000,74.500 54.112,74.500 54.249 C 74.500 54.385,74.650 54.591,74.833 54.705 C 75.017 54.820,75.167 54.999,75.167 55.103 C 75.167 55.351,77.816 58.000,78.063 58.000 C 78.168 58.000,78.347 58.150,78.461 58.333 C 78.576 58.517,78.773 58.667,78.900 58.667 C 79.027 58.667,79.174 58.779,79.227 58.917 C 79.280 59.054,79.424 59.167,79.547 59.167 C 79.670 59.167,79.916 59.300,80.094 59.464 C 80.271 59.627,80.792 59.903,81.250 60.077 C 81.708 60.251,82.175 60.485,82.288 60.598 C 82.401 60.711,82.795 60.854,83.163 60.916 C 83.532 60.978,83.833 61.090,83.833 61.164 C 83.833 61.320,86.489 61.834,87.292 61.834 C 87.590 61.833,87.833 61.908,87.833 62.000 C 87.833 62.104,88.806 62.167,90.417 62.167 C 92.028 62.167,93.000 62.104,93.000 62.000 C 93.000 61.908,93.258 61.833,93.572 61.833 C 94.294 61.833,96.499 61.375,96.740 61.175 C 96.840 61.092,97.276 60.935,97.711 60.826 C 98.145 60.717,98.500 60.569,98.500 60.497 C 98.500 60.425,98.875 60.232,99.333 60.067 C 99.792 59.902,100.167 59.711,100.167 59.642 C 100.167 59.572,100.430 59.391,100.752 59.238 C 101.074 59.085,101.512 58.752,101.727 58.498 C 101.941 58.243,102.352 57.913,102.641 57.763 C 102.930 57.614,103.167 57.421,103.167 57.335 C 103.167 57.249,103.410 56.900,103.708 56.561 L 104.250 55.943 104.333 58.597 L 104.417 61.250 109.625 61.294 L 114.833 61.338 114.833 40.252 L 114.833 19.167 109.583 19.167 L 104.333 19.167 104.328 21.875 C 104.324 23.958,104.280 24.509,104.136 24.261 C 103.917 23.883,101.531 21.502,101.364 21.495 C 101.301 21.493,100.955 21.268,100.595 20.995 C 100.235 20.723,99.845 20.500,99.729 20.500 C 99.612 20.500,99.457 20.399,99.383 20.275 C 99.310 20.151,98.800 19.911,98.250 19.741 C 97.700 19.572,97.161 19.346,97.053 19.239 C 96.944 19.133,96.458 18.993,95.972 18.929 C 95.487 18.864,95.047 18.743,94.996 18.660 C 94.762 18.282,90.596 18.109,87.758 18.358 M350.925 18.358 C 350.013 18.439,349.226 18.568,349.175 18.645 C 349.125 18.722,348.577 18.885,347.958 19.007 C 347.340 19.128,346.833 19.275,346.833 19.332 C 346.833 19.390,346.383 19.572,345.833 19.736 C 345.283 19.901,344.833 20.095,344.833 20.168 C 344.833 20.240,344.458 20.435,344.000 20.600 C 343.542 20.764,343.167 20.961,343.167 21.037 C 343.167 21.113,342.979 21.246,342.750 21.333 C 342.521 21.420,342.333 21.560,342.333 21.643 C 342.333 21.726,342.202 21.839,342.042 21.892 C 341.389 22.111,338.333 25.025,338.333 25.428 C 338.333 25.540,338.220 25.675,338.081 25.728 C 337.942 25.781,337.756 26.014,337.668 26.246 C 337.580 26.477,337.443 26.667,337.363 26.667 C 337.283 26.667,337.077 26.985,336.905 27.375 C 336.733 27.765,336.548 28.121,336.492 28.167 C 336.287 28.338,335.335 30.452,335.232 30.966 C 335.173 31.260,335.069 31.500,335.000 31.500 C 334.932 31.500,334.740 32.156,334.574 32.958 C 334.408 33.760,334.221 34.454,334.159 34.500 C 333.574 34.929,333.574 45.571,334.159 46.000 C 334.221 46.046,334.408 46.740,334.574 47.542 C 334.740 48.344,334.929 49.000,334.994 49.000 C 335.059 49.000,335.237 49.450,335.390 50.000 C 335.543 50.550,335.731 51.000,335.807 51.000 C 335.884 51.000,336.046 51.300,336.167 51.667 C 336.288 52.033,336.431 52.334,336.485 52.335 C 336.539 52.336,336.731 52.673,336.912 53.085 C 337.093 53.497,337.301 53.833,337.375 53.833 C 337.448 53.833,337.580 54.023,337.668 54.254 C 337.756 54.486,337.942 54.719,338.081 54.772 C 338.220 54.825,338.333 54.947,338.333 55.043 C 338.333 55.273,341.018 58.000,341.245 58.000 C 341.341 58.000,341.513 58.150,341.628 58.333 C 341.742 58.517,341.948 58.667,342.085 58.667 C 342.221 58.667,342.333 58.738,342.333 58.826 C 342.333 58.913,342.615 59.115,342.958 59.275 C 343.302 59.435,343.621 59.619,343.667 59.685 C 343.713 59.750,344.088 59.937,344.500 60.101 C 344.913 60.265,345.342 60.490,345.455 60.601 C 345.568 60.712,345.962 60.854,346.330 60.916 C 346.699 60.978,347.000 61.090,347.000 61.164 C 347.000 61.320,349.656 61.834,350.458 61.834 C 350.756 61.833,351.000 61.908,351.000 62.000 C 351.000 62.104,351.972 62.167,353.583 62.167 C 355.194 62.167,356.167 62.104,356.167 62.000 C 356.167 61.908,356.432 61.833,356.757 61.833 C 357.479 61.833,359.884 61.349,360.000 61.181 C 360.046 61.114,360.440 60.961,360.875 60.841 C 361.310 60.721,361.667 60.564,361.667 60.492 C 361.667 60.419,362.042 60.236,362.500 60.083 C 362.958 59.931,363.333 59.741,363.333 59.661 C 363.333 59.581,363.600 59.389,363.927 59.234 C 364.253 59.079,364.772 58.719,365.080 58.434 C 365.388 58.150,365.890 57.692,366.197 57.417 C 366.503 57.142,366.886 56.710,367.047 56.458 C 367.585 55.619,367.667 55.911,367.667 58.667 L 367.667 61.333 372.833 61.333 L 378.000 61.333 378.000 40.250 L 378.000 19.167 372.833 19.167 L 367.667 19.167 367.667 21.833 C 367.667 23.500,367.604 24.500,367.500 24.500 C 367.408 24.500,367.333 24.420,367.333 24.323 C 367.333 23.828,363.247 20.333,362.668 20.333 C 362.576 20.333,362.500 20.272,362.500 20.197 C 362.500 20.122,362.087 19.931,361.583 19.772 C 361.079 19.613,360.667 19.420,360.667 19.344 C 360.667 19.267,360.160 19.111,359.542 18.997 C 358.923 18.883,358.336 18.726,358.237 18.648 C 357.760 18.273,353.716 18.113,350.925 18.358 M271.243 19.774 C 271.306 20.108,271.450 20.474,271.564 20.588 C 271.678 20.702,271.872 21.216,271.995 21.731 C 272.119 22.245,272.279 22.667,272.351 22.667 C 272.424 22.667,272.609 23.117,272.763 23.667 C 272.918 24.217,273.099 24.667,273.167 24.667 C 273.235 24.667,273.385 25.004,273.500 25.417 C 273.615 25.829,273.763 26.167,273.828 26.167 C 273.893 26.167,274.086 26.654,274.256 27.250 C 274.427 27.846,274.617 28.333,274.679 28.333 C 274.741 28.333,274.932 28.821,275.102 29.417 C 275.273 30.012,275.469 30.500,275.537 30.500 C 275.606 30.500,275.747 30.837,275.851 31.250 C 275.955 31.662,276.102 32.000,276.178 32.000 C 276.254 32.000,276.442 32.450,276.597 33.000 C 276.751 33.550,276.930 34.000,276.995 34.000 C 277.060 34.000,277.253 34.487,277.423 35.083 C 277.593 35.679,277.784 36.167,277.847 36.167 C 277.909 36.167,278.045 36.504,278.149 36.917 C 278.253 37.329,278.396 37.667,278.467 37.667 C 278.538 37.667,278.743 38.154,278.923 38.750 C 279.103 39.346,279.305 39.833,279.373 39.833 C 279.440 39.833,279.580 40.171,279.684 40.583 C 279.788 40.996,279.924 41.333,279.987 41.333 C 280.049 41.333,280.240 41.821,280.410 42.417 C 280.581 43.012,280.773 43.500,280.838 43.500 C 280.903 43.500,281.082 43.950,281.237 44.500 C 281.391 45.050,281.579 45.500,281.656 45.500 C 281.732 45.500,281.879 45.837,281.983 46.250 C 282.086 46.663,282.228 47.000,282.296 47.000 C 282.365 47.000,282.560 47.487,282.731 48.083 C 282.902 48.679,283.092 49.167,283.154 49.167 C 283.216 49.167,283.407 49.654,283.577 50.250 C 283.747 50.846,283.940 51.333,284.005 51.333 C 284.070 51.333,284.218 51.671,284.333 52.083 C 284.449 52.496,284.599 52.833,284.666 52.833 C 284.734 52.833,284.916 53.283,285.070 53.833 C 285.224 54.383,285.410 54.833,285.482 54.833 C 285.554 54.833,285.714 55.255,285.838 55.769 C 285.961 56.284,286.147 56.790,286.251 56.894 C 286.354 56.998,286.544 57.440,286.673 57.875 C 286.801 58.310,286.953 58.667,287.010 58.667 C 287.586 58.667,287.493 60.864,286.892 61.466 C 286.768 61.589,286.667 61.808,286.667 61.951 C 286.667 62.094,286.524 62.445,286.349 62.730 C 286.175 63.016,285.938 63.569,285.823 63.958 C 285.708 64.348,285.553 64.667,285.478 64.667 C 285.404 64.667,285.223 65.079,285.076 65.583 C 284.930 66.087,284.748 66.500,284.673 66.500 C 284.598 66.500,284.437 66.838,284.315 67.250 C 284.194 67.662,284.043 68.000,283.982 68.000 C 283.920 68.000,283.735 68.450,283.570 69.000 C 283.405 69.550,283.212 70.000,283.140 70.000 C 283.068 70.000,282.889 70.412,282.743 70.917 C 282.596 71.421,282.415 71.833,282.340 71.833 C 282.265 71.833,282.104 72.171,281.982 72.583 C 281.860 72.996,281.714 73.333,281.657 73.333 C 281.601 73.333,281.411 73.765,281.235 74.292 C 281.060 74.819,280.832 75.340,280.729 75.449 C 280.626 75.559,280.441 75.990,280.318 76.407 C 280.195 76.825,280.035 77.167,279.964 77.167 C 279.892 77.167,279.833 77.242,279.833 77.333 C 279.833 77.709,292.186 77.544,292.285 77.167 C 292.333 76.983,292.430 76.833,292.500 76.833 C 292.570 76.833,292.712 76.496,292.816 76.083 C 292.920 75.671,293.062 75.333,293.132 75.333 C 293.202 75.333,293.395 74.808,293.560 74.167 C 293.725 73.525,293.917 73.000,293.987 73.000 C 294.056 73.000,294.253 72.513,294.423 71.917 C 294.593 71.321,294.785 70.833,294.850 70.833 C 294.914 70.833,295.057 70.458,295.167 70.000 C 295.277 69.542,295.422 69.167,295.490 69.167 C 295.558 69.167,295.753 68.679,295.923 68.083 C 296.093 67.488,296.281 67.000,296.340 67.000 C 296.399 67.000,296.587 66.531,296.757 65.958 C 296.928 65.385,297.115 64.879,297.173 64.833 C 297.231 64.787,297.382 64.394,297.509 63.958 C 297.636 63.523,297.786 63.167,297.843 63.167 C 297.900 63.167,298.088 62.698,298.259 62.125 C 298.431 61.552,298.661 60.991,298.771 60.878 C 298.880 60.766,299.021 60.370,299.083 60.000 C 299.146 59.630,299.292 59.232,299.407 59.117 C 299.523 59.001,299.717 58.515,299.840 58.037 C 299.963 57.558,300.120 57.167,300.190 57.167 C 300.259 57.167,300.442 56.717,300.597 56.167 C 300.751 55.617,300.930 55.167,300.995 55.167 C 301.060 55.167,301.212 54.754,301.333 54.250 C 301.454 53.746,301.612 53.333,301.685 53.333 C 301.757 53.333,301.942 52.883,302.097 52.333 C 302.251 51.783,302.437 51.333,302.510 51.333 C 302.583 51.333,302.737 50.912,302.852 50.398 C 302.967 49.883,303.146 49.377,303.250 49.273 C 303.354 49.169,303.544 48.727,303.673 48.292 C 303.801 47.856,303.953 47.500,304.010 47.500 C 304.067 47.500,304.253 47.012,304.423 46.417 C 304.593 45.821,304.778 45.333,304.833 45.333 C 304.889 45.333,305.073 44.846,305.244 44.250 C 305.414 43.654,305.600 43.167,305.657 43.167 C 305.714 43.167,305.864 42.810,305.991 42.375 C 306.118 41.940,306.288 41.539,306.370 41.485 C 306.451 41.430,306.634 40.943,306.775 40.401 C 306.916 39.860,307.086 39.379,307.151 39.333 C 307.217 39.287,307.404 38.819,307.568 38.292 C 307.731 37.765,307.920 37.333,307.989 37.333 C 308.058 37.333,308.206 36.921,308.319 36.417 C 308.432 35.912,308.584 35.500,308.657 35.500 C 308.730 35.500,308.916 35.050,309.070 34.500 C 309.224 33.950,309.407 33.500,309.476 33.500 C 309.546 33.500,309.739 32.975,309.905 32.333 C 310.071 31.692,310.264 31.167,310.334 31.167 C 310.404 31.167,310.545 30.829,310.649 30.417 C 310.753 30.004,310.894 29.667,310.963 29.667 C 311.031 29.667,311.227 29.179,311.398 28.583 C 311.568 27.988,311.767 27.500,311.839 27.500 C 311.912 27.500,312.022 27.199,312.084 26.830 C 312.146 26.462,312.285 26.068,312.393 25.955 C 312.501 25.842,312.728 25.300,312.898 24.750 C 313.068 24.200,313.258 23.712,313.320 23.667 C 313.457 23.565,314.000 21.887,314.000 21.564 C 314.000 21.437,314.065 21.333,314.145 21.333 C 314.225 21.333,314.385 20.996,314.500 20.583 C 314.615 20.171,314.775 19.833,314.855 19.833 C 314.935 19.833,315.000 19.683,315.000 19.500 C 315.000 19.173,314.889 19.167,309.111 19.167 L 303.221 19.167 302.917 20.500 C 302.749 21.233,302.556 21.833,302.486 21.833 C 302.417 21.833,302.225 22.358,302.060 23.000 C 301.895 23.642,301.709 24.167,301.646 24.167 C 301.584 24.167,301.440 24.560,301.326 25.042 C 301.212 25.523,301.069 25.954,301.009 26.000 C 300.874 26.103,300.333 27.786,300.333 28.102 C 300.333 28.229,300.269 28.333,300.189 28.333 C 300.110 28.333,299.950 28.783,299.833 29.333 C 299.717 29.883,299.562 30.333,299.491 30.333 C 299.419 30.333,299.225 30.858,299.060 31.500 C 298.895 32.142,298.709 32.667,298.648 32.667 C 298.586 32.667,298.403 33.209,298.240 33.873 C 298.078 34.536,297.851 35.172,297.738 35.286 C 297.624 35.400,297.479 35.795,297.417 36.163 C 297.355 36.532,297.246 36.833,297.175 36.833 C 297.104 36.833,296.949 37.290,296.830 37.847 C 296.712 38.405,296.527 38.949,296.419 39.058 C 296.310 39.166,296.089 39.797,295.926 40.460 C 295.764 41.124,295.576 41.667,295.509 41.667 C 295.441 41.667,295.294 42.079,295.181 42.583 C 295.068 43.087,294.913 43.500,294.836 43.500 C 294.758 43.500,294.562 44.063,294.400 44.750 C 294.238 45.438,294.044 46.000,293.970 46.000 C 293.895 46.000,293.833 46.146,293.833 46.323 C 293.833 46.944,293.529 46.830,293.417 46.167 C 293.355 45.800,293.249 45.500,293.182 45.500 C 293.115 45.500,292.958 45.125,292.833 44.667 C 292.709 44.208,292.560 43.833,292.503 43.833 C 292.447 43.833,292.260 43.271,292.089 42.583 C 291.918 41.896,291.731 41.333,291.674 41.333 C 291.616 41.333,291.426 40.808,291.250 40.167 C 291.074 39.525,290.883 39.000,290.825 39.000 C 290.767 39.000,290.624 38.574,290.508 38.053 C 290.391 37.532,290.203 37.013,290.090 36.900 C 289.977 36.787,289.788 36.238,289.670 35.680 C 289.551 35.123,289.404 34.667,289.342 34.667 C 289.280 34.667,289.134 34.292,289.016 33.833 C 288.899 33.375,288.749 33.000,288.685 33.000 C 288.620 33.000,288.427 32.438,288.255 31.750 C 288.084 31.063,287.882 30.500,287.805 30.500 C 287.729 30.500,287.667 30.396,287.667 30.269 C 287.667 29.946,287.124 28.268,286.987 28.167 C 286.924 28.121,286.778 27.652,286.660 27.125 C 286.543 26.598,286.390 26.167,286.320 26.167 C 286.251 26.167,286.059 25.642,285.893 25.000 C 285.728 24.358,285.541 23.833,285.477 23.833 C 285.414 23.833,285.229 23.271,285.067 22.583 C 284.905 21.896,284.718 21.333,284.652 21.333 C 284.585 21.333,284.435 20.958,284.317 20.500 C 284.200 20.042,284.043 19.667,283.968 19.667 C 283.894 19.667,283.833 19.554,283.833 19.417 C 283.833 19.199,283.016 19.167,277.481 19.167 L 271.130 19.167 271.243 19.774 M177.833 40.667 L 177.833 61.833 183.417 61.833 L 189.000 61.833 189.000 40.667 L 189.000 19.500 183.417 19.500 L 177.833 19.500 177.833 40.667 M221.667 40.667 L 221.667 61.833 227.167 61.833 L 232.667 61.833 232.667 40.667 L 232.667 19.500 227.167 19.500 L 221.667 19.500 221.667 40.667 M388.833 40.667 L 388.833 61.833 394.333 61.833 L 399.833 61.833 399.833 40.667 L 399.833 19.500 394.333 19.500 L 388.833 19.500 388.833 40.667 M94.984 28.636 C 95.039 28.723,95.523 28.891,96.060 29.011 C 96.598 29.130,97.123 29.311,97.227 29.413 C 97.331 29.514,97.660 29.697,97.958 29.819 C 98.256 29.941,98.500 30.101,98.500 30.176 C 98.500 30.250,98.631 30.353,98.792 30.404 C 99.340 30.580,101.000 32.099,101.000 32.425 C 101.000 32.551,101.150 32.735,101.333 32.833 C 101.517 32.931,101.667 33.107,101.667 33.224 C 101.667 33.341,101.806 33.587,101.976 33.770 C 102.147 33.952,102.378 34.379,102.489 34.718 C 102.601 35.056,102.745 35.333,102.810 35.333 C 102.955 35.333,103.293 36.495,103.440 37.500 C 103.501 37.912,103.618 38.294,103.701 38.348 C 103.917 38.491,103.893 42.897,103.675 42.969 C 103.579 43.001,103.500 43.175,103.500 43.355 C 103.500 43.935,102.946 45.910,102.720 46.137 C 102.599 46.258,102.500 46.436,102.500 46.532 C 102.500 47.073,99.519 50.656,99.056 50.671 C 98.980 50.674,98.622 50.899,98.262 51.171 C 97.902 51.444,97.514 51.667,97.399 51.667 C 97.284 51.667,97.080 51.777,96.944 51.913 C 96.809 52.048,96.204 52.253,95.599 52.368 C 94.995 52.482,94.500 52.634,94.500 52.705 C 94.500 52.775,93.563 52.833,92.417 52.833 C 91.271 52.833,90.333 52.768,90.333 52.688 C 90.333 52.608,90.026 52.493,89.650 52.433 C 89.274 52.373,88.489 52.101,87.907 51.829 C 87.324 51.556,86.807 51.333,86.757 51.333 C 86.538 51.333,84.000 48.893,84.000 48.682 C 84.000 48.592,83.861 48.421,83.692 48.301 C 83.523 48.181,83.292 47.802,83.179 47.458 C 83.066 47.115,82.916 46.833,82.846 46.833 C 82.712 46.833,82.167 45.290,82.167 44.911 C 82.167 44.792,82.098 44.669,82.013 44.639 C 81.389 44.413,81.396 36.667,82.020 36.667 C 82.101 36.667,82.167 36.557,82.167 36.422 C 82.167 36.099,82.675 34.606,82.821 34.500 C 82.884 34.454,83.041 34.157,83.169 33.840 C 83.445 33.159,83.544 33.036,84.957 31.623 C 86.273 30.307,86.458 30.152,87.088 29.833 C 87.361 29.696,87.672 29.500,87.780 29.398 C 87.889 29.297,88.432 29.112,88.989 28.989 C 89.545 28.866,90.000 28.710,90.000 28.642 C 90.000 28.330,94.786 28.324,94.984 28.636 M358.325 28.653 C 358.378 28.739,358.927 28.937,359.544 29.092 C 360.162 29.247,360.667 29.432,360.667 29.504 C 360.667 29.576,360.892 29.712,361.167 29.808 C 361.442 29.904,361.667 30.053,361.667 30.139 C 361.667 30.224,361.798 30.339,361.958 30.392 C 362.609 30.611,364.167 32.050,364.167 32.432 C 364.167 32.542,364.280 32.675,364.419 32.728 C 364.558 32.781,364.744 33.014,364.832 33.246 C 364.920 33.477,365.063 33.667,365.149 33.667 C 365.236 33.667,365.431 34.042,365.583 34.500 C 365.736 34.958,365.917 35.333,365.987 35.333 C 366.139 35.333,366.500 36.481,366.500 36.964 C 366.500 37.152,366.574 37.331,366.664 37.361 C 367.145 37.524,367.157 43.691,366.677 43.996 C 366.602 44.044,366.444 44.515,366.327 45.042 C 366.210 45.569,366.061 46.000,365.996 46.000 C 365.931 46.000,365.750 46.337,365.592 46.750 C 365.435 47.163,365.242 47.500,365.164 47.500 C 365.086 47.500,364.972 47.660,364.910 47.855 C 364.785 48.249,362.473 50.667,362.221 50.667 C 362.134 50.667,361.897 50.821,361.694 51.010 C 361.491 51.199,361.046 51.470,360.704 51.612 C 360.363 51.754,360.044 51.934,359.995 52.011 C 359.946 52.088,359.403 52.247,358.787 52.364 C 358.171 52.480,357.667 52.634,357.667 52.705 C 357.667 52.880,353.774 52.869,353.575 52.693 C 353.488 52.617,352.985 52.455,352.458 52.334 C 351.931 52.212,351.500 52.065,351.500 52.006 C 351.500 51.947,351.125 51.764,350.667 51.600 C 350.208 51.435,349.833 51.245,349.833 51.178 C 349.833 51.111,349.629 50.950,349.378 50.820 C 348.801 50.520,347.306 48.994,346.990 48.382 C 346.858 48.126,346.668 47.842,346.567 47.750 C 346.467 47.658,346.284 47.321,346.160 47.000 C 346.037 46.679,345.871 46.373,345.793 46.319 C 345.623 46.201,345.171 44.566,345.169 44.056 C 345.168 43.857,345.073 43.663,344.958 43.625 C 344.684 43.533,344.657 37.716,344.930 37.536 C 345.029 37.470,345.210 36.942,345.331 36.361 C 345.452 35.781,345.636 35.218,345.740 35.111 C 345.844 35.004,346.070 34.542,346.242 34.083 C 346.415 33.625,346.693 33.152,346.861 33.032 C 347.029 32.912,347.167 32.747,347.167 32.665 C 347.167 32.292,350.165 29.667,350.591 29.667 C 350.646 29.667,350.791 29.566,350.915 29.442 C 351.038 29.319,351.595 29.121,352.153 29.003 C 352.710 28.885,353.167 28.727,353.167 28.653 C 353.167 28.331,358.125 28.330,358.325 28.653 M149.500 28.645 C 149.500 28.725,149.819 28.841,150.208 28.902 C 150.956 29.019,152.026 29.351,152.167 29.509 C 152.212 29.560,152.494 29.701,152.792 29.821 C 153.090 29.942,153.333 30.090,153.333 30.151 C 153.333 30.212,153.577 30.403,153.875 30.577 C 154.569 30.980,155.520 31.931,155.923 32.625 C 156.097 32.923,156.288 33.167,156.349 33.167 C 156.410 33.167,156.559 33.410,156.681 33.708 C 156.803 34.006,156.986 34.335,157.087 34.440 C 157.189 34.544,157.370 35.069,157.489 35.606 C 157.609 36.144,157.770 36.623,157.847 36.673 C 158.317 36.972,158.296 43.306,157.824 43.472 C 157.737 43.503,157.667 43.646,157.667 43.791 C 157.667 44.202,157.120 45.833,156.982 45.833 C 156.915 45.833,156.775 46.089,156.672 46.402 C 156.568 46.715,156.375 47.012,156.242 47.063 C 156.109 47.114,156.000 47.257,156.000 47.380 C 156.000 47.503,155.866 47.749,155.703 47.927 C 155.539 48.105,155.295 48.409,155.160 48.603 C 154.885 49.000,153.410 50.167,153.183 50.167 C 153.102 50.167,152.995 50.272,152.946 50.400 C 152.897 50.528,152.572 50.727,152.225 50.842 C 151.877 50.956,151.496 51.147,151.378 51.264 C 151.261 51.382,150.602 51.573,149.915 51.689 C 149.229 51.804,148.667 51.959,148.667 52.033 C 148.667 52.212,145.777 52.205,145.575 52.025 C 145.488 51.948,144.871 51.791,144.204 51.676 C 143.538 51.562,142.896 51.372,142.778 51.254 C 142.661 51.137,142.335 50.990,142.055 50.929 C 141.774 50.867,141.403 50.684,141.229 50.522 C 141.055 50.360,140.777 50.152,140.611 50.059 C 140.126 49.788,138.000 47.652,138.000 47.437 C 138.000 47.329,137.850 47.112,137.667 46.955 C 137.483 46.798,137.333 46.562,137.333 46.430 C 137.333 46.298,137.235 46.091,137.115 45.970 C 136.884 45.737,136.333 44.190,136.333 43.774 C 136.333 43.639,136.240 43.497,136.125 43.458 C 135.849 43.366,135.823 37.216,136.098 37.036 C 136.198 36.970,136.416 36.410,136.581 35.792 C 136.747 35.173,136.938 34.667,137.005 34.667 C 137.071 34.667,137.217 34.447,137.328 34.179 C 137.440 33.910,137.636 33.650,137.765 33.601 C 137.894 33.551,138.000 33.409,138.000 33.285 C 138.000 33.161,138.169 32.909,138.375 32.724 C 138.581 32.539,138.909 32.206,139.104 31.985 C 139.706 31.303,140.436 30.688,140.895 30.480 C 141.136 30.370,141.333 30.232,141.333 30.173 C 141.333 30.115,141.615 29.966,141.958 29.843 C 142.302 29.720,142.627 29.552,142.681 29.469 C 142.798 29.290,144.421 28.838,144.958 28.835 C 145.165 28.834,145.333 28.758,145.333 28.667 C 145.333 28.564,146.139 28.500,147.417 28.500 C 148.563 28.500,149.500 28.565,149.500 28.645 " stroke="none" fill="#a15efc" fill-rule="evenodd"></path><path id="path1" d="M319.333 49.648 C 319.333 49.729,318.994 49.846,318.580 49.908 C 318.165 49.971,317.697 50.150,317.538 50.308 C 317.380 50.465,317.063 50.691,316.833 50.810 C 316.255 51.111,315.201 52.464,315.068 53.076 C 315.008 53.355,314.874 53.637,314.771 53.702 C 314.522 53.861,314.511 58.297,314.759 58.464 C 314.856 58.530,315.037 58.846,315.160 59.167 C 315.284 59.487,315.468 59.825,315.570 59.917 C 315.671 60.008,315.887 60.290,316.048 60.542 C 316.209 60.794,316.452 61.000,316.587 61.000 C 316.723 61.000,316.833 61.070,316.833 61.154 C 316.833 61.328,317.772 61.833,318.095 61.833 C 318.211 61.833,318.331 61.905,318.361 61.993 C 318.546 62.525,323.460 62.530,323.639 61.998 C 323.669 61.907,323.803 61.833,323.936 61.833 C 324.262 61.833,325.239 61.210,325.766 60.667 C 326.511 59.898,326.853 59.379,327.017 58.767 C 327.118 58.391,327.285 58.031,327.388 57.967 C 327.622 57.821,327.630 54.188,327.396 54.028 C 327.307 53.967,327.144 53.610,327.035 53.236 C 326.926 52.862,326.648 52.337,326.417 52.070 C 326.187 51.802,325.961 51.471,325.915 51.333 C 325.870 51.196,325.533 50.940,325.166 50.765 C 324.800 50.590,324.500 50.395,324.500 50.333 C 324.500 50.189,323.328 49.833,322.856 49.833 C 322.660 49.833,322.500 49.758,322.500 49.667 C 322.500 49.567,321.861 49.500,320.917 49.500 C 320.046 49.500,319.333 49.566,319.333 49.648 " stroke="none" fill="#e80000" fill-rule="evenodd"></path></g></svg>