<svg xmlns="http://www.w3.org/2000/svg" width="688" height="362" viewBox="0 0 688 362" version="1.1"><path d="M 547.388 199.980 C 541.007 202.558, 539.007 211.478, 543.589 216.923 C 545.814 219.568, 546.848 220, 550.954 220 C 554.250 220, 556.535 219.367, 558.328 217.957 C 564.008 213.489, 562.377 203.309, 555.522 200.445 C 551.641 198.823, 550.424 198.754, 547.388 199.980" stroke="none" fill="#ce0507" fill-rule="evenodd"/><path d="M 215.448 115.275 C 215.163 116.019, 215.057 139.453, 215.214 167.351 C 215.531 223.513, 215.059 219.955, 222.185 219.985 C 228.591 220.011, 230.887 218.561, 231.611 214.031 C 231.966 211.814, 232.481 210, 232.757 210 C 233.032 210, 235.036 211.606, 237.209 213.570 C 245.341 220.917, 256.238 223.073, 267.073 219.478 C 274.565 216.993, 283.835 207.747, 286.804 199.801 C 291.059 188.415, 290.636 175.437, 285.656 164.560 C 282.267 157.157, 277.735 152.487, 270.466 148.909 C 264.699 146.070, 263.419 145.816, 256.802 146.199 C 248.646 146.672, 242.477 149.146, 237.270 154.033 L 234.040 157.064 233.770 135.782 L 233.500 114.500 224.734 114.211 C 218.081 113.991, 215.842 114.248, 215.448 115.275 M 343.241 166.750 L 343.500 219.500 352 219.500 L 360.500 219.500 360.759 166.750 L 361.018 114 352 114 L 342.982 114 343.241 166.750 M 309 116.294 C 303.146 119.255, 302.672 127.863, 308.111 132.440 C 314.904 138.156, 324 133.705, 324 124.666 C 324 120.882, 323.517 119.772, 320.923 117.589 C 317.525 114.730, 313.053 114.244, 309 116.294 M 383.077 117.589 C 380.591 119.681, 380 120.942, 380 124.155 C 380 129.172, 381.284 131.578, 384.980 133.490 C 390.819 136.509, 397.092 134.282, 398.995 128.514 C 402.438 118.082, 391.452 110.542, 383.077 117.589 M 672.357 115.992 C 664.497 119.164, 665.593 131.599, 673.954 134.104 C 681.174 136.267, 687 132.068, 687 124.701 C 687 117.410, 679.660 113.045, 672.357 115.992 M 75.035 131.934 C 74.466 132.998, 74 136.798, 74 140.379 L 74 146.890 69.250 147.195 L 64.500 147.500 64.207 154.693 L 63.915 161.887 68.707 162.193 L 73.500 162.500 74.045 182 C 74.645 203.511, 75.377 206.625, 81.301 212.876 C 83.060 214.733, 86.450 217.133, 88.833 218.209 C 93.450 220.296, 106.060 221.704, 110.390 220.617 C 112.912 219.984, 113 219.711, 113 212.481 L 113 205 107.401 205 C 104.322 205, 100.307 204.290, 98.478 203.423 C 92.902 200.777, 92 197.397, 92 179.160 L 92 163.123 96.250 162.554 C 98.588 162.242, 102.975 161.877, 106 161.743 L 111.500 161.500 111.500 154.500 L 111.500 147.500 101.750 147.214 L 92 146.928 92 138.464 L 92 130 84.035 130 C 77.184 130, 75.926 130.270, 75.035 131.934 M 422.648 133.712 C 422.304 135.795, 422.017 139.613, 422.011 142.195 L 422 146.890 417.250 147.195 L 412.500 147.500 412.207 154.693 L 411.915 161.887 416.707 162.193 L 421.500 162.500 422.074 181 C 422.415 192.017, 423.188 201.222, 423.984 203.758 C 425.778 209.471, 430.934 215.279, 436.559 217.923 C 441.685 220.332, 451.826 221.630, 457.381 220.588 L 461 219.909 461 212.568 L 461 205.226 454.049 204.833 C 441.678 204.134, 439.733 200.295, 440.195 177.500 L 440.500 162.500 450.250 162.214 L 460 161.928 460 154.500 L 460 147.072 450.250 146.786 L 440.500 146.500 440 138.500 L 439.500 130.500 431.387 130.212 L 423.274 129.924 422.648 133.712 M 16 147.474 C 3.175 151.634, -3.548 165.128, 1.894 175.790 C 4.997 181.871, 10.217 185.263, 21.530 188.551 C 34.878 192.431, 38.865 195.419, 37.571 200.575 C 35.553 208.615, 11.427 207.386, 2.262 198.777 L -0 196.651 -0 205.703 L -0 214.754 5.117 216.955 C 12.915 220.310, 23.461 222.208, 29.926 221.422 C 37.504 220.500, 45.462 217.411, 49.585 213.791 C 56.165 208.014, 57.680 195.272, 52.670 187.838 C 49.675 183.395, 44.495 180.599, 32.260 176.825 C 26.627 175.088, 21.115 172.824, 20.010 171.794 C 16.128 168.178, 18.157 162.654, 23.820 161.418 C 25.294 161.096, 27.123 160.637, 27.883 160.397 C 30.357 159.617, 41.256 162.096, 46.065 164.533 C 48.645 165.841, 51.036 166.630, 51.378 166.288 C 52.338 165.329, 52.113 155.428, 51.069 152.683 C 49.698 149.075, 42.470 146.869, 30.500 146.403 C 23.518 146.132, 19.142 146.455, 16 147.474 M 144.752 147.425 C 135.775 150.629, 126.979 160.180, 123.903 170.063 C 119.288 184.890, 123.167 202.341, 133.251 212.128 C 140.396 219.062, 144.122 220.494, 155.023 220.497 C 164.135 220.500, 164.773 220.354, 169.802 217.127 C 172.694 215.271, 175.711 212.824, 176.507 211.687 C 178.239 209.214, 178.536 209.438, 180.207 214.482 C 181.253 217.636, 182.141 218.548, 184.850 219.246 C 186.692 219.720, 189.842 219.972, 191.850 219.804 L 195.500 219.500 195.762 183.250 L 196.025 147 188.612 147 L 181.199 147 179.997 152.013 L 178.794 157.026 175.212 153.882 C 169.276 148.670, 162.421 146.015, 155 146.054 C 151.425 146.072, 146.814 146.690, 144.752 147.425 M 594.500 148.845 C 568.621 161.107, 567.456 202.717, 592.576 217.575 C 603.569 224.077, 619.263 221.866, 627.924 212.595 C 629.258 211.168, 630.670 210, 631.063 210 C 631.456 210, 632.093 211.688, 632.478 213.750 C 632.864 215.813, 633.644 218.063, 634.212 218.750 C 635.361 220.141, 645.727 220.460, 647.763 219.168 C 648.750 218.541, 648.968 210.615, 648.763 182.933 L 648.500 147.500 641.004 147.500 L 633.509 147.500 632.598 152 C 632.097 154.475, 631.552 156.668, 631.387 156.873 C 631.222 157.078, 629.017 155.425, 626.488 153.198 C 617.645 145.415, 605.288 143.733, 594.500 148.845 M 305.490 149.250 C 305.188 150.488, 305.067 166.800, 305.221 185.500 L 305.500 219.500 313.405 219.795 C 317.753 219.957, 321.708 219.692, 322.193 219.207 C 323.223 218.177, 324.284 157.539, 323.382 151.250 L 322.773 147 314.406 147 C 306.557 147, 306.004 147.140, 305.490 149.250 M 381.237 183.211 L 381.500 219.500 390.263 219.789 L 399.025 220.078 398.763 183.789 L 398.500 147.500 389.737 147.211 L 380.975 146.922 381.237 183.211 M 467 147.553 C 467 147.856, 469.965 155.619, 473.589 164.803 C 491.716 210.740, 494.074 217.191, 493.452 219.153 C 493.098 220.265, 490.404 226.863, 487.463 233.815 C 483.607 242.929, 482.449 246.665, 483.308 247.212 C 485.275 248.462, 497.476 248.109, 499.246 246.750 C 500.142 246.063, 502.686 241, 504.899 235.500 C 516.813 205.895, 538.015 151.790, 538.573 149.567 L 539.217 147 530.198 147 L 521.179 147 518.171 155.750 C 516.517 160.563, 512.886 171.166, 510.103 179.312 C 504.359 196.121, 504.037 196.821, 502.956 194.878 C 502.534 194.120, 498.793 183.479, 494.642 171.231 C 490.491 158.984, 486.822 148.521, 486.488 147.981 C 485.866 146.974, 467 146.559, 467 147.553 M 668.455 148.256 C 668.190 148.946, 668.092 165.259, 668.237 184.506 L 668.500 219.500 676 219.756 C 680.125 219.898, 684.175 219.577, 685 219.044 C 686.267 218.226, 686.550 213.369, 686.820 187.788 C 686.996 171.129, 686.851 155.137, 686.498 152.250 L 685.856 147 677.397 147 C 671.531 147, 668.789 147.385, 668.455 148.256 M 150.970 164.250 C 141.002 169.286, 137.340 183.679, 143.107 195.155 C 149.607 208.091, 167.776 208.059, 175.369 195.098 C 177.757 191.021, 178.647 180.490, 177.019 175.559 C 173.238 164.102, 161.419 158.971, 150.970 164.250 M 244.500 163.881 C 237.346 167.166, 233.838 173.508, 233.648 183.500 C 233.421 195.364, 240.522 203.907, 251.310 204.752 C 262.598 205.636, 271.024 196.589, 270.978 183.636 C 270.920 167.449, 257.894 157.730, 244.500 163.881 M 604.481 163.339 C 600.161 165.300, 595.273 171.275, 593.931 176.237 C 592.443 181.735, 593.299 191.118, 595.655 195.138 C 601.906 205.809, 615.243 208.128, 624.356 200.129 C 630.544 194.698, 632.495 180.570, 628.199 172.308 C 624.897 165.959, 619.972 162.680, 613.152 162.291 C 609.816 162.101, 606.263 162.530, 604.481 163.339" stroke="none" fill="#985aec" fill-rule="evenodd"/></svg>